<?xml version="1.0" encoding="UTF-8"?>
<svg xmlns="http://www.w3.org/2000/svg" version="1.1" viewBox="0 0 423 357">
  <defs>
    <style>
      .cls-1 {
        fill: none;
        stroke: #fff;
        stroke-opacity: .1;
        stroke-width: 2px;
      }
    </style>
  </defs>
  <!-- Generator: Adobe Illustrator 28.7.1, SVG Export Plug-In . SVG Version: 1.2.0 Build 142)  -->
  <g>
    <g id="Layer_1">
      <path class="cls-1" d="M349.4,42.6C224.5-97.5,201.6-193.2,198-232.4h0c-.5-5.7-7.8-7.6-11-3-14.7,21.7-37.3,64.3-39.4,122.4-2.1,58.2,16.4,132.1,84.1,216.5l-.8.6.8-.6c63.3,78.9,90.6,153.4,99.9,215.8.5,3.2-4,4.3-5.1,1.4-12.1-30.3-35.6-59.2-77.4-81.2h0s0,0,0,0c-5.7-4-11.9-7.9-18.5-11.7h0C123.1,164.7,110.1,78.6,109.7,43.1h0c0-4.3-5.3-6.1-7.9-2.8h0c-20.9,26.4-67.5,91.6-89.2,172.3-21.7,80.6-18.5,176.6,60.3,264.8l-.7.7.7-.7c125.7,140.7,148.6,236.7,152.2,276h0c.5,5.7,7.8,7.6,11,3,14.7-21.7,37.3-64.3,39.4-122.4,2.1-58.2-16.4-132.1-84.1-216.5l.8-.6-.8.6c-63.5-79.2-90.8-154-100-216.5M349.4,42.6h0s.9,1,.9,1c78.8,88.2,82,184.3,60.2,265-21.8,80.7-68.5,145.9-89.3,172.2-2.6,3.3-7.8,1.5-7.9-2.8h0c-.6-35.1-14.2-120.5-121.7-183.6l-.5.9M91.3,201s0,0,0,0h1M91.3,201s0,0,0,0h1M91.3,201c-.5-3.2,4-4.3,5.1-1.4M92.3,200.8c-.3-2,2.5-2.7,3.2-.9M96.4,199.6s0,0,0,0l-.9.4M96.4,199.6c12.1,30.3,35.4,59.7,76.6,83.1h0s0,0,0,0c5.7,4,11.9,7.9,18.5,11.7l-.5.9M96.4,199.6s0,0,0,0l-.9.4"/>
    </g>
  </g>
</svg>