<?xml version="1.0" encoding="UTF-8"?><svg id="Layer_2" xmlns="http://www.w3.org/2000/svg" viewBox="0 0 594.32 233.33"><defs><style>.cls-1{fill:#cb3727;}.cls-2{fill:#2f3638;}</style></defs><g id="Layer_1-2"><g id="Layer_1-3"><path class="cls-2" d="M382.52,171.31c0-3.2,2.3-5.3,5-5.3s5,2.2,5,5.3-2.3,5.3-5,5.3-5-2.1-5-5.3ZM391.62,171.31c0-2.6-1.8-4.6-4.1-4.6s-4.1,1.9-4.1,4.6,1.8,4.5,4.1,4.5,4.1-1.9,4.1-4.5ZM385.62,168.31h1.9c1.1,0,2.1.4,2.1,1.8s-.5,1.3-1.1,1.5l1.3,2.4h-1l-1.1-2.1h-1.3v2.1h-.9v-5.7h.1ZM387.22,171.21c.8,0,1.4-.3,1.4-1s-.3-1.1-1.3-1.1h-.9v2.1h.8Z"/><path class="cls-2" d="M136.92,36.31h9.7l11.3,35.9h-8.6l-4.7-18.2c-1-3.6-2-7.8-2.9-11.6h-.2c-.9,3.8-1.8,8-2.8,11.6l-4.7,18.2h-8.3l11.3-35.9s-.1,0-.1,0ZM133.02,57.31h17.3v6.3h-17.3v-6.3Z"/><path class="cls-2" d="M160.62,44.91h6.6l.6,3.5h.2c2.2-2.3,4.7-4.2,8.3-4.2s6.2,1.7,7.5,4.6c2.4-2.5,5-4.6,8.6-4.6,5.9,0,8.5,4.2,8.5,11v17h-8.1v-15.9c0-3.9-1.1-5.2-3.4-5.2s-2.9.9-4.6,2.7v18.4h-8.1v-15.9c0-3.9-1.1-5.2-3.4-5.2s-2.9.9-4.6,2.7v18.4h-8.1v-27.3Z"/><path class="cls-2" d="M205.32,58.51c0-8.9,6.3-14.3,12.9-14.3s11.6,5.7,11.6,13.1-.2,2.9-.3,3.6h-16.3c.7,4,3.4,5.8,7.1,5.8s3.9-.6,5.9-1.8l2.7,4.9c-2.8,1.9-6.5,3.1-9.7,3.1-7.8,0-13.8-5.3-13.8-14.3l-.1-.1h0ZM222.92,55.61c0-3-1.3-5.2-4.5-5.2s-4.8,1.7-5.3,5.2h9.9-.1,0Z"/><path class="cls-2" d="M234.62,44.91h6.6l.6,4.8h.2c2-3.6,5-5.4,7.8-5.4s2.5.2,3.3.6l-1.3,7c-1-.2-1.8-.4-2.9-.4-2.1,0-4.6,1.3-6,5.1v15.8h-8.1v-27.3l-.2-.2h0Z"/><path class="cls-2" d="M255.82,36.71c0-2.5,2-4.2,4.7-4.2s4.7,1.7,4.7,4.2-2,4.2-4.7,4.2-4.7-1.8-4.7-4.2h0ZM256.42,44.91h8.1v27.3h-8.1v-27.3Z"/><path class="cls-2" d="M268.62,58.51c0-9.1,6.7-14.3,14.2-14.3s5.9,1.2,8,2.9l-3.8,5.2c-1.3-1.1-2.4-1.6-3.7-1.6-3.9,0-6.4,3.1-6.4,7.8s2.6,7.8,6.1,7.8,3.5-.9,4.9-2l3.2,5.3c-2.7,2.3-6,3.3-9,3.3-7.6,0-13.5-5.2-13.5-14.3v-.1h0Z"/><path class="cls-2" d="M294.52,64.61c0-5.8,4.6-8.9,15.4-10-.2-2.4-1.4-3.9-4.3-3.9s-4.6,1-7.2,2.5l-2.9-5.3c3.5-2.1,7.4-3.6,11.7-3.6,7,0,10.8,4,10.8,12.4v15.6h-6.6l-.6-2.8h-.2c-2.3,2-4.9,3.5-7.9,3.5-5,0-8.1-3.6-8.1-8.2l-.1-.2h0ZM309.92,64.31v-4.8c-5.8.8-7.6,2.4-7.6,4.5s1.2,2.6,3.1,2.6,3.1-.9,4.5-2.3Z"/><path class="cls-2" d="M322.12,44.91h6.6l.6,3.5h.2c2.3-2.2,5.1-4.1,8.8-4.1,5.9,0,8.5,4.2,8.5,11v17h-8.1v-15.9c0-3.9-1.1-5.2-3.4-5.2s-3.3.9-5.1,2.7v18.4h-8.1s0-27.4,0-27.4Z"/><path class="cls-1" d="M82.22,65.81C52.82,33.01,47.52,10.61,46.62,1.51c-.1-1.5-2.1-2.1-3-.8-6.9,10.2-21.3,39.9,10.5,79.4,14.8,18.4,21.2,35.8,23.3,50.3,0,.5-.6.6-.8.2-2.9-7.1-8.4-13.9-18.2-19.1-1.4-.9-2.8-1.8-4.3-2.7-25.1-14.7-28.1-34.7-28.2-42.9,0-1.2-1.5-1.7-2.3-.8-9.8,12.3-43.7,61.1-6.8,102.4,29.4,32.8,34.7,55.2,35.6,64.3.1,1.5,2.1,2.1,3,.8,6.9-10.2,21.3-39.9-10.5-79.4-14.8-18.5-21.2-35.9-23.4-50.5,0-.5.6-.6.8-.2,2.9,7.1,8.4,14,18,19.5,1.4.9,2.8,1.8,4.3,2.7,25.1,14.7,28.2,34.5,28.4,42.7,0,1.2,1.5,1.7,2.3.8,9.8-12.3,43.8-61.1,6.8-102.4h.1Z"/><path class="cls-2" d="M138.32,161.01h5.2l12.2,36.1h-4.9l-6.3-20.2c-1.3-4-2.5-8-3.6-12.2h-.2c-1.1,4.2-2.3,8.1-3.6,12.2l-6.4,20.2h-4.7l12.2-36.1h.1ZM132.52,182.51h16.6v3.7h-16.6v-3.7Z"/><path class="cls-2" d="M158.52,194.11l2.2-3c2.3,1.9,4.7,3.2,7.9,3.2s5.3-1.9,5.3-4.2-3.2-4-6.1-5.1c-3.7-1.4-8-3.2-8-7.7s3.4-7.6,9.2-7.6,6.2,1.4,8.3,3l-2.2,2.9c-1.8-1.4-3.7-2.4-6.1-2.4-3.4,0-4.9,1.8-4.9,3.8s2.9,3.5,5.9,4.6c3.9,1.5,8.2,3,8.2,8.1s-3.4,8-9.8,8-7.5-1.6-10-3.7l.1.1h0Z"/><path class="cls-2" d="M181.82,194.11l2.2-3c2.3,1.9,4.7,3.2,7.9,3.2s5.3-1.9,5.3-4.2-3.2-4-6.1-5.1c-3.7-1.4-8-3.2-8-7.7s3.4-7.6,9.2-7.6,6.2,1.4,8.3,3l-2.2,2.9c-1.8-1.4-3.7-2.4-6.1-2.4-3.4,0-4.9,1.8-4.9,3.8s2.9,3.5,5.9,4.6c3.9,1.5,8.2,3,8.2,8.1s-3.4,8-9.8,8-7.5-1.6-10-3.7l.1.1h0Z"/><path class="cls-2" d="M205.52,183.81c0-8.9,5.8-14.1,12.4-14.1s12.4,5.1,12.4,14.1-5.8,14-12.4,14-12.4-5.1-12.4-14ZM225.62,183.81c0-6.1-3.1-10.3-7.7-10.3s-7.7,4.2-7.7,10.3,3.1,10.2,7.7,10.2,7.7-4.1,7.7-10.2Z"/><path class="cls-2" d="M234.82,183.81c0-8.9,6-14.1,12.9-14.1s5.9,1.4,7.8,3.1l-2.3,3c-1.6-1.4-3.2-2.4-5.3-2.4-4.8,0-8.4,4.2-8.4,10.3s3.4,10.2,8.3,10.2,4.6-1.2,6.3-2.7l2,3c-2.4,2.1-5.4,3.4-8.7,3.4-7.1,0-12.6-5.1-12.6-14v.2h0Z"/><path class="cls-2" d="M260.12,161.91c0-1.8,1.4-2.9,3.1-2.9s3.1,1.1,3.1,2.9-1.4,2.9-3.1,2.9-3.1-1.2-3.1-2.9ZM261.02,170.41h4.5v26.8h-4.5v-26.8Z"/><path class="cls-2" d="M270.92,190.21c0-5.8,5-8.7,16.4-10,0-3.4-1.2-6.8-5.5-6.8s-5.9,1.5-8,2.9l-1.8-3.1c2.5-1.6,6.2-3.5,10.5-3.5,6.5,0,9.3,4.3,9.3,11v16.4h-3.7l-.4-3.2h-.2c-2.5,2.1-5.5,3.9-8.8,3.9s-7.8-2.8-7.8-7.6h0ZM287.32,190.61v-7.4c-9,1.1-12,3.3-12,6.7s2.1,4.3,4.7,4.3,4.7-1.3,7.3-3.5v-.1Z"/><path class="cls-2" d="M299.52,188.91v-14.8h-4v-3.4l4.2-.3.5-7.5h3.8v7.5h7.2v3.7h-7.2v14.9c0,3.3,1.1,5.2,4.1,5.2s2.2-.4,3-.7l.9,3.4c-1.5.5-3.3,1-5,1-5.7,0-7.6-3.6-7.6-8.9l.1-.1h0Z"/><path class="cls-2" d="M316.02,161.91c0-1.8,1.4-2.9,3.1-2.9s3.1,1.1,3.1,2.9-1.4,2.9-3.1,2.9-3.1-1.2-3.1-2.9ZM316.82,170.41h4.5v26.8h-4.5v-26.8Z"/><path class="cls-2" d="M327.02,183.81c0-8.9,5.8-14.1,12.4-14.1s12.4,5.1,12.4,14.1-5.8,14-12.4,14-12.4-5.1-12.4-14ZM347.12,183.81c0-6.1-3.1-10.3-7.7-10.3s-7.7,4.2-7.7,10.3,3.1,10.2,7.7,10.2,7.7-4.1,7.7-10.2Z"/><path class="cls-2" d="M357.72,170.41h3.7l.4,3.9h.2c2.6-2.5,5.3-4.5,9-4.5,5.6,0,8.2,3.6,8.2,10.5v17h-4.5v-16.4c0-5-1.5-7.1-5-7.1s-4.6,1.4-7.3,4.1v19.4h-4.5v-26.8l-.2-.1h0Z"/><path class="cls-2" d="M126.52,85.81h14.2l16,30.6,6.1,13.5h.4c-.7-6.5-1.8-15.1-1.8-22.4v-21.7h13.2v61.5h-14.2l-16-30.7-6.1-13.4h-.4c.7,6.8,1.8,15,1.8,22.3v21.8h-13.2v-61.5h0Z"/><path class="cls-2" d="M182.82,129.51v-29.1h13.9v27.3c0,6.7,1.8,8.8,5.8,8.8s5.6-1.5,8.3-5.1v-31h13.9v46.8h-11.3l-1-6.5h-.3c-3.9,4.7-8.3,7.6-14.7,7.6-10.2,0-14.5-7.2-14.5-18.9l-.1.1h0Z"/><path class="cls-2" d="M233.42,100.51h11.3l1,8.2h.3c3.4-6.3,8.5-9.3,13.3-9.3s4.2.3,5.6.9l-2.3,12c-1.7-.4-3-.8-5.1-.8-3.5,0-7.8,2.3-10.3,8.7v27.1h-13.9v-46.8h.1,0Z"/><path class="cls-2" d="M266.72,141.91l6.2-8.6c4.2,3.2,8.2,4.9,12.1,4.9s5.9-1.6,5.9-4-4.6-4.5-9.5-6.4c-5.7-2.2-12.4-6-12.4-13.8s7.1-14.7,17.9-14.7,12.5,2.9,16.5,5.9l-6.2,8.3c-3.3-2.4-6.6-4-9.9-4s-5.3,1.4-5.3,3.7,4.4,4.1,9.2,5.9c5.9,2.2,12.6,5.5,12.6,14.1s-6.7,15.1-19.2,15.1-13.2-2.7-18-6.5l.1.1h0Z"/><path class="cls-2" d="M308.92,123.91c0-15.2,10.8-24.6,22.1-24.6s19.9,9.7,19.9,22.5-.3,5-.6,6.1h-28c1.2,6.8,5.9,9.9,12.1,9.9s6.7-1.1,10.1-3.1l4.6,8.4c-4.8,3.3-11.1,5.3-16.6,5.3-13.3,0-23.7-9-23.7-24.5h.1ZM339.02,118.81c0-5.1-2.2-8.9-7.8-8.9s-8.2,2.9-9.1,8.9h16.9Z"/><path class="cls-2" d="M355.52,141.91l6.2-8.6c4.2,3.2,8.2,4.9,12.1,4.9s5.9-1.6,5.9-4-4.6-4.5-9.5-6.4c-5.7-2.2-12.4-6-12.4-13.8s7.1-14.7,17.9-14.7,12.5,2.9,16.5,5.9l-6.2,8.3c-3.3-2.4-6.6-4-9.9-4s-5.3,1.4-5.3,3.7,4.4,4.1,9.2,5.9c5.9,2.2,12.6,5.5,12.6,14.1s-6.7,15.1-19.2,15.1-13.2-2.7-18-6.5l.1.1h0Z"/></g></g></svg>