<?xml version="1.0" encoding="UTF-8"?>
<svg width="263px" height="39px" viewBox="0 0 263 39" version="1.1" xmlns="http://www.w3.org/2000/svg" xmlns:xlink="http://www.w3.org/1999/xlink">
    <!-- Generator: Sketch 44.1 (41455) - http://www.bohemiancoding.com/sketch -->
    <title>logo/enterprise/col</title>
    <desc>Created with Sketch.</desc>
    <defs>
        <polygon id="path-1" points="22.9279108 35.1219512 0.100681789 35.1219512 0.100681789 0.494744891 22.9279108 0.494744891"></polygon>
    </defs>
    <g id="Symbols" stroke="none" stroke-width="1" fill="none" fill-rule="evenodd">
        <g id="component/mainmenu/enterprise" transform="translate(-50.000000, -68.000000)">
            <g id="logo/enterprise/col" transform="translate(47.000000, 67.000000)">
                <g id="Page-1" transform="translate(3.240964, 1.081081)">
                    <g id="Group-6" transform="translate(63.738956, 0.000000)">
                        <g id="Group-3" transform="translate(4.842820, 3.796968)">
                            <mask id="mask-2" fill="white">
                                <use xlink:href="#path-1"></use>
                            </mask>
                            <g id="Clip-2"></g>
                            <path d="M8.12731663,35.1221411 C-14.561293,13.2867291 18.5480957,11.4119763 13.8418437,0.494744891 C25.5217559,12.1286539 5.60614477,16.3746131 7.1190416,23.7635122 C7.62269483,19.2422729 22.1608391,14.6099723 20.3961157,7.11096111 C30.4798346,21.2271378 7.1190416,25.4170916 8.12731663,35.1221411" id="Fill-1" fill="#193E4B" mask="url(#mask-2)"></path>
                        </g>
                        <path d="M15.1551195,0.320938695 C11.9617643,5.54556625 -6.01962471,14.9326196 2.21510566,24.500029 C3.2233807,13.4555992 22.3815749,8.81285695 15.1551195,0.320938695" id="Fill-4" fill="#009685
"></path>
                    </g>
                    <path d="M46.3314219,11.8918919 L39.6475104,28.1081081 L43.145402,28.1081081 L44.5701529,24.4977607 L51.1649582,24.4977607 L52.5897091,28.1081081 L56.1767068,28.1081081 L49.4937433,11.8918919 L46.3314219,11.8918919 Z M47.8670816,16.1473638 L49.9392742,21.3690539 L45.7967848,21.3690539 L47.8670816,16.1473638 Z M6.68201557,11.8918919 L0,28.1081081 L3.49599566,28.1081081 L4.92169454,24.4977607 L11.5155519,24.4977607 L12.9412507,28.1081081 L16.5273005,28.1081081 L9.84433702,11.8918919 L6.68201557,11.8918919 Z M8.2186232,16.1473638 L10.2898679,21.3690539 L6.14643055,21.3690539 L8.2186232,16.1473638 Z M31.6289022,12.0064284 L31.6289022,21.9211786 L24.3231433,12.0064284 L21.1598739,12.0064284 L21.1598739,28.1081081 L24.5459088,28.1081081 L24.5459088,17.8722641 L32.0971836,28.1081081 L35.014937,28.1081081 L35.014937,12.0064284 L31.6289022,12.0064284 Z" id="Fill-7" fill="#53565A"></path>
                    <path d="M100.46988,27.8828696 L111.917077,27.8828696 L111.917077,26.2611521 L102.2392,26.2611521 L102.2392,20.7432872 L110.796952,20.7432872 L110.796952,19.1215697 L102.2392,19.1215697 L102.2392,13.7388479 L111.804588,13.7388479 L111.804588,12.1171304 L100.46988,12.1171304 L100.46988,27.8828696 Z M117.718846,27.8828696 L119.443361,27.8828696 L119.443361,14.955136 L129.569288,27.8828696 L130.980168,27.8828696 L130.980168,12.1171304 L129.255653,12.1171304 L129.255653,24.7525331 L119.37663,12.1171304 L117.718846,12.1171304 L117.718846,27.8828696 Z M141.800095,27.8828696 L143.591341,27.8828696 L143.591341,13.7608925 L148.856404,13.7608925 L148.856404,12.1171304 L136.535033,12.1171304 L136.535033,13.7608925 L141.800095,13.7608925 L141.800095,27.8828696 Z M154.411269,27.8828696 L165.858466,27.8828696 L165.858466,26.2611521 L156.180589,26.2611521 L156.180589,20.7432872 L164.738341,20.7432872 L164.738341,19.1215697 L156.180589,19.1215697 L156.180589,13.7388479 L165.74693,13.7388479 L165.74693,12.1171304 L154.411269,12.1171304 L154.411269,27.8828696 Z M171.660235,27.8828696 L173.429555,27.8828696 L173.429555,21.7563814 L177.910054,21.7563814 L182.457283,27.8828696 L184.630802,27.8828696 L179.813789,21.4410474 C182.278063,20.9905703 184.070263,19.4599067 184.070263,16.8471397 L184.070263,16.802092 C184.070263,15.5628008 183.623166,14.4596112 182.860528,13.6938002 C181.875772,12.7027506 180.329523,12.1171304 178.402909,12.1171304 L171.660235,12.1171304 L171.660235,27.8828696 Z M173.429555,20.157667 L173.429555,13.7608925 L178.268494,13.7608925 C180.799499,13.7608925 182.278063,14.9321329 182.278063,16.8691843 L182.278063,16.914232 C182.278063,18.9413789 180.598353,20.157667 178.245614,20.157667 L173.429555,20.157667 Z M190.09701,27.8828696 L191.865377,27.8828696 L191.865377,22.3199569 L195.6738,22.3199569 C199.011295,22.3199569 201.834009,20.5630963 201.834009,17.1624737 L201.834009,17.117426 C201.834009,14.0091341 199.50415,12.1171304 195.96551,12.1171304 L190.09701,12.1171304 L190.09701,27.8828696 Z M191.865377,20.6982395 L191.865377,13.7608925 L195.831095,13.7608925 C198.3621,13.7608925 200.04181,14.9321329 200.04181,17.1845183 L200.04181,17.229566 C200.04181,19.3017605 198.33922,20.6982395 195.741485,20.6982395 L191.865377,20.6982395 Z M207.300218,27.8828696 L209.069538,27.8828696 L209.069538,21.7563814 L213.550036,21.7563814 L218.097266,27.8828696 L220.269831,27.8828696 L215.453772,21.4410474 C217.918046,20.9905703 219.710245,19.4599067 219.710245,16.8471397 L219.710245,16.802092 C219.710245,15.5628008 219.262195,14.4596112 218.500511,13.6938002 C217.514801,12.7027506 215.969506,12.1171304 214.042891,12.1171304 L207.300218,12.1171304 L207.300218,27.8828696 Z M209.069538,20.157667 L209.069538,13.7608925 L213.908476,13.7608925 C216.439481,13.7608925 217.918046,14.9321329 217.918046,16.8691843 L217.918046,16.914232 C217.918046,18.9413789 216.238336,20.157667 213.885597,20.157667 L209.069538,20.157667 Z M225.89238,27.8828696 L227.660747,27.8828696 L227.660747,12.1171304 L225.89238,12.1171304 L225.89238,27.8828696 Z M239.870582,28.1081081 C242.984052,28.1081081 245.224301,26.3512475 245.224301,23.6483851 L245.224301,23.6033374 C245.224301,21.1937642 243.611322,19.9103838 240.117486,19.1445728 C236.667502,18.4008064 235.861013,17.567903 235.861013,16.0813287 L235.861013,16.036281 C235.861013,14.616799 237.160357,13.4906063 239.198507,13.4906063 C240.811487,13.4906063 242.268125,14.0091341 243.723811,15.2024192 L244.755279,13.8289433 C243.164225,12.5455629 241.528367,11.8918919 239.243312,11.8918919 C236.264257,11.8918919 234.091692,13.7158448 234.091692,16.1934687 L234.091692,16.2385164 C234.091692,18.8292388 235.748523,20.0004792 239.355801,20.7883349 C242.649444,21.4860951 243.432102,22.3199569 243.432102,23.7835282 L243.432102,23.8285759 C243.432102,25.383201 242.044101,26.5093937 239.938266,26.5093937 C237.764748,26.5093937 236.196573,25.7656273 234.561668,24.279053 L233.464422,25.5854365 C235.345279,27.2752048 237.384382,28.1081081 239.870582,28.1081081 L239.870582,28.1081081 Z M251.070875,27.8828696 L262.518072,27.8828696 L262.518072,26.2611521 L252.841149,26.2611521 L252.841149,20.7432872 L261.397948,20.7432872 L261.397948,19.1215697 L252.841149,19.1215697 L252.841149,13.7388479 L262.406536,13.7388479 L262.406536,12.1171304 L251.070875,12.1171304 L251.070875,27.8828696 Z" id="Fill-8" fill="#53565A"></path>
                </g>
            </g>
        </g>
    </g>
</svg>