<?xml version="1.0" encoding="UTF-8"?>
<svg width="197px" height="38px" viewBox="0 0 197 38" version="1.1" xmlns="http://www.w3.org/2000/svg" xmlns:xlink="http://www.w3.org/1999/xlink">
    <!-- Generator: Sketch 44.1 (41455) - http://www.bohemiancoding.com/sketch -->
    <title>logo/ancc</title>
    <desc>Created with Sketch.</desc>
    <defs>
        <polygon id="path-1" points="0 37.3496503 196.667752 37.3496503 196.667752 0.230958042 0 0.230958042"></polygon>
    </defs>
    <g id="Symbols" stroke="none" stroke-width="1" fill="none" fill-rule="evenodd">
        <g id="component/mainmenu/ancc" transform="translate(-49.000000, -67.000000)">
            <g id="menu_bar_04">
                <g id="logo/ancc" transform="translate(49.000000, 67.000000)">
                    <g id="Page-1">
                        <path d="M2.30762769,32.0940591 L7.57692307e-05,37.409143 L0.944160385,37.409143 L1.48363731,36.1350626 L3.96356423,36.1350626 L4.49660077,37.409143 L5.47023538,37.409143 L3.16192577,32.0940591 L2.30762769,32.0940591 Z M2.71981231,33.2027339 L3.62639115,35.3133703 L1.82118923,35.3133703 L2.71981231,33.2027339 Z" id="Fill-1" fill="#221F20"></path>
                        <polygon id="Fill-2" fill="#221F20" points="11.1064812 32.1321329 9.51002346 34.6273182 7.91432346 32.1321329 6.93197538 32.1321329 6.93197538 37.4091049 7.83855423 37.4091049 7.83855423 33.6398392 9.48085231 36.1125385 9.51002346 36.1125385 11.1663388 33.6245944 11.1663388 37.4091049 12.0876927 37.4091049 12.0876927 32.1321329"></polygon>
                        <polygon id="Fill-3" fill="#221F20" points="14.0009037 32.1321329 14.0009037 37.4091049 17.9284017 37.4091049 17.9284017 36.5797902 14.9230152 36.5797902 14.9230152 35.1627902 17.553344 35.1627902 17.553344 34.3330944 14.9230152 34.3330944 14.9230152 32.9614476 17.890896 32.9614476 17.890896 32.1321329"></polygon>
                        <g id="Group-41" transform="translate(0.000000, 0.150199)">
                            <path d="M21.856165,34.5977052 C22.5153573,34.5977052 22.9351188,34.2512682 22.9351188,33.7157962 L22.9351188,33.7005514 C22.9351188,33.1353521 22.5301323,32.8262647 21.8482092,32.8262647 L20.5070938,32.8262647 L20.5070938,34.5977052 L21.856165,34.5977052 Z M19.5846035,31.9820864 L21.9228419,31.9820864 C22.5824131,31.9820864 23.0995381,32.1776003 23.43709,32.5095549 C23.7144054,32.7957752 23.8720054,33.1879465 23.8720054,33.647957 L23.8720054,33.6628206 C23.8720054,34.5298661 23.3548804,35.0500934 22.6202977,35.2608521 L24.0368035,37.2586773 L22.9498938,37.2586773 L21.6606804,35.4193976 L21.6459054,35.4193976 L20.5070938,35.4193976 L20.5070938,37.2586773 L19.5846035,37.2586773 L19.5846035,31.9820864 Z" id="Fill-4" fill="#221F20"></path>
                            <mask id="mask-2" fill="white">
                                <use xlink:href="#path-1"></use>
                            </mask>
                            <g id="Clip-7"></g>
                            <polygon id="Fill-6" fill="#221F20" mask="url(#mask-2)" points="25.6194712 37.2589441 26.5415827 37.2589441 26.5415827 31.981972 25.6194712 31.981972"></polygon>
                            <path d="M28.272114,34.6356647 L28.272114,34.6204199 C28.272114,33.1199549 29.3889525,31.8912276 30.9778333,31.8912276 C31.9442698,31.8912276 32.5288294,32.2304234 33.0308006,32.713301 L32.438664,33.399315 C32.0192813,33.0071437 31.569591,32.7434094 30.9698775,32.7434094 C29.966314,32.7434094 29.2393083,33.572343 29.2393083,34.6051752 L29.2393083,34.6204199 C29.2393083,35.6532521 29.966314,36.4974304 30.9698775,36.4974304 C31.6146737,36.4974304 32.0268583,36.2336962 32.4765487,35.8117976 L33.0683063,36.4147276 C32.5220102,36.9879304 31.9222967,37.3496122 30.9399487,37.3496122 C29.4113044,37.3496122 28.272114,36.1513745 28.272114,34.6356647" id="Fill-8" fill="#221F20" mask="url(#mask-2)"></path>
                            <path d="M37.775091,35.1634 L36.868891,33.0523825 L35.9695102,35.1634 L37.775091,35.1634 Z M36.4567063,31.9440888 L37.3110044,31.9440888 L39.6189352,37.2587916 L38.6453006,37.2587916 L38.1126429,35.9847112 L35.6323371,35.9847112 L35.0928602,37.2587916 L34.1487756,37.2587916 L36.4567063,31.9440888 Z" id="Fill-9" fill="#221F20" mask="url(#mask-2)"></path>
                            <polygon id="Fill-10" fill="#221F20" mask="url(#mask-2)" points="41.0826073 31.981972 41.9365265 31.981972 44.7464285 35.6308042 44.7464285 31.981972 45.6530073 31.981972 45.6530073 37.2589441 44.8816765 37.2589441 41.9888073 33.504542 41.9888073 37.2589441 41.0826073 37.2589441"></polygon>
                            <polygon id="Fill-11" fill="#221F20" mask="url(#mask-2)" points="50.3761581 31.981972 51.2304562 31.981972 54.0403581 35.6308042 54.0403581 31.981972 54.9473158 31.981972 54.9473158 37.2589441 54.1756062 37.2589441 51.2827369 33.504542 51.2827369 37.2589441 50.3761581 37.2589441"></polygon>
                            <path d="M56.7766123,35.0197563 L56.7766123,31.9818577 L57.6991027,31.9818577 L57.6991027,34.9824066 C57.6991027,35.9622633 58.2010738,36.4897318 59.0246854,36.4897318 C59.8418565,36.4897318 60.3438277,35.9927528 60.3438277,35.0197563 L60.3438277,31.9818577 L61.2655604,31.9818577 L61.2655604,34.9751654 C61.2655604,36.5503297 60.3813335,37.3419136 59.0102892,37.3419136 C57.6460642,37.3419136 56.7766123,36.5503297 56.7766123,35.0197563" id="Fill-12" fill="#221F20" mask="url(#mask-2)"></path>
                            <path d="M65.3657365,34.5977052 C66.0249288,34.5977052 66.4450692,34.2512682 66.4450692,33.7157962 L66.4450692,33.7005514 C66.4450692,33.1353521 66.0397038,32.8262647 65.3577808,32.8262647 L64.0166654,32.8262647 L64.0166654,34.5977052 L65.3657365,34.5977052 Z M63.0945538,31.9820864 L65.4327923,31.9820864 C66.0919846,31.9820864 66.6091096,32.1776003 66.9466615,32.5095549 C67.2239769,32.7957752 67.3815769,33.1879465 67.3815769,33.647957 L67.3815769,33.6628206 C67.3815769,34.5298661 66.8644519,35.0500934 66.1298692,35.2608521 L67.546375,37.2586773 L66.4594654,37.2586773 L65.1702519,35.4193976 L65.1558558,35.4193976 L64.0166654,35.4193976 L64.0166654,37.2586773 L63.0945538,37.2586773 L63.0945538,31.9820864 Z" id="Fill-13" fill="#221F20" mask="url(#mask-2)"></path>
                            <path d="M68.7243213,36.4898843 L69.279331,35.8267374 C69.7813021,36.2638808 70.2828944,36.5131325 70.9356463,36.5131325 C71.5046733,36.5131325 71.8641983,36.248636 71.8641983,35.8496045 L71.8641983,35.8339787 C71.8641983,35.4574332 71.6550752,35.2535346 70.680304,35.0275311 C69.5638444,34.7561745 68.9342021,34.4242199 68.9342021,33.4516045 L68.9342021,33.437122 C68.9342021,32.5319647 69.6835598,31.9065486 70.7250079,31.9065486 C71.4898983,31.9065486 72.0968098,32.1405556 72.6290887,32.5700766 L72.1346944,33.2709542 C71.6618944,32.9168948 71.190231,32.7278598 70.7102329,32.7278598 C70.170756,32.7278598 69.8563137,33.0068388 69.8563137,33.353657 L69.8563137,33.3689017 C69.8563137,33.7759367 70.0961233,33.9569682 71.1000656,34.1978353 C72.2093271,34.4695731 72.7866887,34.8689857 72.7866887,35.7432724 L72.7866887,35.7588983 C72.7866887,36.7463773 72.014979,37.3344437 70.9125367,37.3344437 C70.1108983,37.3344437 69.3539637,37.0554647 68.7243213,36.4898843" id="Fill-14" fill="#221F20" mask="url(#mask-2)"></path>
                            <polygon id="Fill-15" fill="#221F20" mask="url(#mask-2)" points="74.435124 31.981972 78.3251163 31.981972 78.3251163 32.8112867 75.3576144 32.8112867 75.3576144 34.1829336 77.9875644 34.1829336 77.9875644 35.0122483 75.3576144 35.0122483 75.3576144 36.4296294 78.3626221 36.4296294 78.3626221 37.2589441 74.435124 37.2589441"></polygon>
                            <path d="M79.6675577,36.4898843 L80.2225673,35.8267374 C80.7245385,36.2638808 81.2265096,36.5131325 81.8788827,36.5131325 C82.4479096,36.5131325 82.8074346,36.248636 82.8074346,35.8496045 L82.8074346,35.8339787 C82.8074346,35.4574332 82.5983115,35.2535346 81.6239192,35.0275311 C80.5070808,34.7561745 79.8778173,34.4242199 79.8778173,33.4516045 L79.8778173,33.437122 C79.8778173,32.5319647 80.6267962,31.9065486 81.6682442,31.9065486 C82.4331346,31.9065486 83.0400462,32.1405556 83.572325,32.5700766 L83.0779308,33.2709542 C82.6055096,32.9168948 82.1334673,32.7278598 81.6538481,32.7278598 C81.1139923,32.7278598 80.79955,33.0068388 80.79955,33.353657 L80.79955,33.3689017 C80.79955,33.7759367 81.0397385,33.9569682 82.0433019,34.1978353 C83.1525635,34.4695731 83.729925,34.8689857 83.729925,35.7432724 L83.729925,35.7588983 C83.729925,36.7463773 82.9582154,37.3344437 81.8557731,37.3344437 C81.0541346,37.3344437 80.2972,37.0554647 79.6675577,36.4898843" id="Fill-16" fill="#221F20" mask="url(#mask-2)"></path>
                            <path d="M87.9562948,34.6356647 L87.9562948,34.6204199 C87.9562948,33.1199549 89.0731333,31.8912276 90.662014,31.8912276 C91.6288294,31.8912276 92.2130102,32.2304234 92.7149813,32.713301 L92.1228448,33.399315 C91.7034621,33.0071437 91.2537717,32.7434094 90.6540583,32.7434094 C89.6504948,32.7434094 88.923489,33.572343 88.923489,34.6051752 L88.923489,34.6204199 C88.923489,35.6532521 89.6504948,36.4974304 90.6540583,36.4974304 C91.2988544,36.4974304 91.711039,36.2336962 92.1607294,35.8117976 L92.7524871,36.4147276 C92.206191,36.9879304 91.6064775,37.3496122 90.6241294,37.3496122 C89.0954852,37.3496122 87.9562948,36.1513745 87.9562948,34.6356647" id="Fill-17" fill="#221F20" mask="url(#mask-2)"></path>
                            <path d="M96.553981,34.5977052 C97.2131733,34.5977052 97.6333137,34.2512682 97.6333137,33.7157962 L97.6333137,33.7005514 C97.6333137,33.1353521 97.2279483,32.8262647 96.5460252,32.8262647 L95.2049098,32.8262647 L95.2049098,34.5977052 L96.553981,34.5977052 Z M94.283556,31.9820864 L96.6217944,31.9820864 C97.2809867,31.9820864 97.797354,32.1776003 98.134906,32.5095549 C98.4122213,32.7957752 98.5690637,33.1879465 98.5690637,33.647957 L98.5690637,33.6628206 C98.5690637,34.5298661 98.0526963,35.0500934 97.3181137,35.2608521 L98.7346194,37.2586773 L97.6477098,37.2586773 L96.3584963,35.4193976 L96.3441002,35.4193976 L95.2049098,35.4193976 L95.2049098,37.2586773 L94.283556,37.2586773 L94.283556,31.9820864 Z" id="Fill-18" fill="#221F20" mask="url(#mask-2)"></path>
                            <polygon id="Fill-19" fill="#221F20" mask="url(#mask-2)" points="100.264741 31.981972 104.153976 31.981972 104.153976 32.8112867 101.186474 32.8112867 101.186474 34.1829336 103.816424 34.1829336 103.816424 35.0122483 101.186474 35.0122483 101.186474 36.4296294 104.190724 36.4296294 104.190724 37.2589441 100.264741 37.2589441"></polygon>
                            <path d="M107.804651,36.4146895 C108.905957,36.4146895 109.625764,35.6684587 109.625764,34.6356266 L109.625764,34.6203818 C109.625764,33.5875497 108.905957,32.8260741 107.804651,32.8260741 L106.77078,32.8260741 L106.77078,36.4146895 L107.804651,36.4146895 Z M105.848668,31.9818958 L107.804651,31.9818958 C109.453389,31.9818958 110.592201,33.1199168 110.592201,34.6051371 L110.592201,34.6203818 C110.592201,36.105221 109.453389,37.2588678 107.804651,37.2588678 L105.848668,37.2588678 L105.848668,31.9818958 Z" id="Fill-20" fill="#221F20" mask="url(#mask-2)"></path>
                            <polygon id="Fill-21" fill="#221F20" mask="url(#mask-2)" points="112.271626 31.981972 116.161618 31.981972 116.161618 32.8112867 113.194116 32.8112867 113.194116 34.1829336 115.824066 34.1829336 115.824066 35.0122483 113.194116 35.0122483 113.194116 36.4296294 116.199124 36.4296294 116.199124 37.2589441 112.271626 37.2589441"></polygon>
                            <polygon id="Fill-22" fill="#221F20" mask="url(#mask-2)" points="117.855553 31.981972 118.71023 31.981972 121.520511 35.6308042 121.520511 31.981972 122.42709 31.981972 122.42709 37.2589441 121.65538 37.2589441 118.76289 33.504542 118.76289 37.2589441 117.855553 37.2589441"></polygon>
                            <polygon id="Fill-23" fill="#221F20" mask="url(#mask-2)" points="125.628567 32.8409759 123.965053 32.8409759 123.965053 31.9819339 128.221769 31.9819339 128.221769 32.8409759 126.558255 32.8409759 126.558255 37.2589059 125.628567 37.2589059"></polygon>
                            <polygon id="Fill-24" fill="#221F20" mask="url(#mask-2)" points="129.810877 37.2589441 130.73261 37.2589441 130.73261 31.981972 129.810877 31.981972"></polygon>
                            <path d="M135.874802,35.1634 L134.967466,33.0523825 L134.068464,35.1634 L135.874802,35.1634 Z M134.556039,31.9440888 L135.409579,31.9440888 L137.717889,37.2587916 L136.743118,37.2587916 L136.211596,35.9847112 L133.731291,35.9847112 L133.191435,37.2587916 L132.246971,37.2587916 L134.556039,31.9440888 Z" id="Fill-25" fill="#221F20" mask="url(#mask-2)"></path>
                            <polygon id="Fill-26" fill="#221F20" mask="url(#mask-2)" points="139.180462 31.981972 140.102195 31.981972 140.102195 36.4147657 142.859816 36.4147657 142.859816 37.2589441 139.180462 37.2589441"></polygon>
                            <polygon id="Fill-27" fill="#221F20" mask="url(#mask-2)" points="144.43396 37.2589441 145.355692 37.2589441 145.355692 31.981972 144.43396 31.981972"></polygon>
                            <polygon id="Fill-28" fill="#221F20" mask="url(#mask-2)" points="147.319707 31.981972 148.174005 31.981972 150.983907 35.6308042 150.983907 31.981972 151.890864 31.981972 151.890864 37.2589441 151.119155 37.2589441 148.226285 33.504542 148.226285 37.2589441 147.319707 37.2589441"></polygon>
                            <path d="M153.570327,34.6356647 L153.570327,34.6204199 C153.570327,33.142822 154.694743,31.8912276 156.276046,31.8912276 C157.189823,31.8912276 157.752031,32.1477206 158.291887,32.60735 L157.706948,33.3086087 C157.302719,32.9617906 156.90531,32.7434094 156.238162,32.7434094 C155.270968,32.7434094 154.537143,33.5952101 154.537143,34.6051752 L154.537143,34.6204199 C154.537143,35.7062276 155.248994,36.5050528 156.321129,36.5050528 C156.815144,36.5050528 157.264835,36.3465073 157.587233,36.1052591 L157.587233,35.1181612 L156.245739,35.1181612 L156.245739,34.3113325 L158.479416,34.3113325 L158.479416,36.5279199 C157.962291,36.9726857 157.22051,37.3496122 156.290443,37.3496122 C154.64966,37.3496122 153.570327,36.1734794 153.570327,34.6356647" id="Fill-29" fill="#221F20" mask="url(#mask-2)"></path>
                            <path d="M162.819477,34.6356647 L162.819477,34.6204199 C162.819477,33.1199549 163.936316,31.8912276 165.525196,31.8912276 C166.491633,31.8912276 167.075814,32.2304234 167.578164,32.713301 L166.986027,33.399315 C166.566644,33.0071437 166.116954,32.7434094 165.517241,32.7434094 C164.513677,32.7434094 163.786671,33.572343 163.786671,34.6051752 L163.786671,34.6204199 C163.786671,35.6532521 164.513677,36.4974304 165.517241,36.4974304 C166.162037,36.4974304 166.574221,36.2336962 167.023912,35.8117976 L167.615669,36.4147276 C167.069373,36.9879304 166.46966,37.3496122 165.487312,37.3496122 C163.958667,37.3496122 162.819477,36.1513745 162.819477,34.6356647" id="Fill-30" fill="#221F20" mask="url(#mask-2)"></path>
                            <polygon id="Fill-31" fill="#221F20" mask="url(#mask-2)" points="169.145185 31.981972 173.035177 31.981972 173.035177 32.8112867 170.067675 32.8112867 170.067675 34.1829336 172.697625 34.1829336 172.697625 35.0122483 170.067675 35.0122483 170.067675 36.4296294 173.072683 36.4296294 173.072683 37.2589441 169.145185 37.2589441"></polygon>
                            <polygon id="Fill-32" fill="#221F20" mask="url(#mask-2)" points="174.730552 31.981972 175.584471 31.981972 178.394373 35.6308042 178.394373 31.981972 179.301331 31.981972 179.301331 37.2589441 178.529621 37.2589441 175.636752 33.504542 175.636752 37.2589441 174.730552 37.2589441"></polygon>
                            <polygon id="Fill-33" fill="#221F20" mask="url(#mask-2)" points="182.501709 32.8409759 180.838575 32.8409759 180.838575 31.9819339 185.09529 31.9819339 185.09529 32.8409759 183.431777 32.8409759 183.431777 37.2589059 182.501709 37.2589059"></polygon>
                            <polygon id="Fill-34" fill="#221F20" mask="url(#mask-2)" points="186.63314 31.981972 190.522375 31.981972 190.522375 32.8112867 187.554873 32.8112867 187.554873 34.1829336 190.184823 34.1829336 190.184823 35.0122483 187.554873 35.0122483 187.554873 36.4296294 190.559123 36.4296294 190.559123 37.2589441 186.63314 37.2589441"></polygon>
                            <path d="M194.487568,34.5977052 C195.14676,34.5977052 195.566522,34.2512682 195.566522,33.7157962 L195.566522,33.7005514 C195.566522,33.1353521 195.161535,32.8262647 194.479612,32.8262647 L193.138118,32.8262647 L193.138118,34.5977052 L194.487568,34.5977052 Z M192.216764,31.9820864 L194.555003,31.9820864 C195.214574,31.9820864 195.730941,32.1776003 196.068493,32.5095549 C196.345808,32.7957752 196.502651,33.1879465 196.502651,33.647957 L196.502651,33.6628206 C196.502651,34.5298661 195.986283,35.0500934 195.251701,35.2608521 L196.667828,37.2586773 L195.581297,37.2586773 L194.292083,35.4193976 L194.277308,35.4193976 L193.138118,35.4193976 L193.138118,37.2586773 L192.216764,37.2586773 L192.216764,31.9820864 Z" id="Fill-35" fill="#221F20" mask="url(#mask-2)"></path>
                            <path d="M108.797266,13.8525661 C108.950698,13.8525661 108.950698,13.7599542 108.920012,13.6364717 L106.004033,5.29911503 C105.8506,4.83605559 105.697168,4.83605559 105.543735,5.29911503 L102.842562,13.6364717 C102.781189,13.7908248 102.842562,13.8525661 102.934243,13.8525661 L108.797266,13.8525661 Z M105.605108,1.50126538 C105.973347,0.481772378 106.096472,0.29692972 106.280591,0.29692972 C106.46471,0.29692972 106.587456,0.450901748 106.955695,1.40827238 C107.415993,2.58211853 112.235295,15.3351185 114.107931,20.0289787 C115.213025,22.7772269 116.102935,23.2707759 116.746973,23.4559997 C117.208029,23.6103528 117.667948,23.6412234 117.975572,23.6412234 C118.159691,23.6412234 118.282058,23.6720941 118.282058,23.8264472 C118.282058,24.0120521 118.006258,24.0737934 117.667948,24.0737934 C117.208029,24.0737934 114.967533,24.0737934 112.848647,24.0120521 C112.265981,23.9811815 111.92805,23.9811815 111.92805,23.7959577 C111.92805,23.6720941 112.020868,23.6103528 112.143614,23.5794822 C112.327354,23.5177409 112.511473,23.2399052 112.327354,22.7455941 L109.472748,15.1495136 C109.411375,15.0264122 109.350002,14.9642899 109.196948,14.9642899 L102.597448,14.9642899 C102.443637,14.9642899 102.351577,15.0569017 102.290204,15.2112549 L100.448633,20.6772619 C100.172454,21.4490276 100.018643,22.1895416 100.018643,22.7455941 C100.018643,23.3637689 100.663439,23.6412234 101.185489,23.6412234 L101.492354,23.6412234 C101.706781,23.6412234 101.798841,23.7029647 101.798841,23.8264472 C101.798841,24.0120521 101.6151,24.0737934 101.338922,24.0737934 C100.602066,24.0737934 99.2825446,23.9811815 98.944235,23.9811815 C98.6070619,23.9811815 96.9185446,24.0737934 95.4762773,24.0737934 C95.0765946,24.0737934 94.8928542,24.0120521 94.8928542,23.8264472 C94.8928542,23.7029647 95.0152215,23.6412234 95.1686542,23.6412234 C95.3842177,23.6412234 95.8138292,23.6103528 96.0589427,23.5794822 C97.4712812,23.3942584 98.0850119,22.2211745 98.6377485,20.6772619 L105.605108,1.50126538 Z" id="Fill-36" fill="#221F20" mask="url(#mask-2)"></path>
                            <path d="M123.65368,19.8740157 C123.714674,22.4065507 124.022297,23.2088059 124.851213,23.455771 C125.433878,23.6105052 126.109361,23.6413759 126.385539,23.6413759 C126.538972,23.6413759 126.630653,23.7031171 126.630653,23.8265997 C126.630653,24.0118234 126.446913,24.0739458 126.078674,24.0739458 C124.328784,24.0739458 123.101322,23.9809528 122.825143,23.9809528 C122.548586,23.9809528 121.259751,24.0739458 119.878478,24.0739458 C119.571234,24.0739458 119.387114,24.0426941 119.387114,23.8265997 C119.387114,23.7031171 119.479174,23.6413759 119.632607,23.6413759 C119.878478,23.6413759 120.430836,23.6105052 120.891513,23.455771 C121.658297,23.2400577 121.812488,22.3444283 121.812488,19.5344388 L121.843174,1.84099476 C121.843174,0.636659091 121.935234,0.296701049 122.180347,0.296701049 C122.425839,0.296701049 122.948268,0.976236014 123.254755,1.28494231 C123.714674,1.81012413 128.288484,6.78143881 133.015726,11.876236 C136.054451,15.1496661 139.399663,18.9170262 140.382011,19.935757 L140.044838,4.24928497 C140.014151,2.24231294 139.799345,1.56315909 138.847684,1.31581294 C138.294947,1.19233042 137.589536,1.16145979 137.343664,1.16145979 C137.12848,1.16145979 137.098172,1.0688479 137.098172,0.944984266 C137.098172,0.760141608 137.343664,0.729270979 137.712282,0.729270979 C139.093176,0.729270979 140.567266,0.821882867 140.904439,0.821882867 C141.241991,0.821882867 142.254647,0.729270979 143.513553,0.729270979 C143.851105,0.729270979 144.065911,0.760141608 144.065911,0.944984266 C144.065911,1.0688479 143.943164,1.16145979 143.728359,1.16145979 C143.574926,1.16145979 143.359741,1.16145979 142.991503,1.25407168 C141.978468,1.47016608 141.856101,2.14970105 141.856101,4.00231993 L141.794728,22.0974633 C141.794728,24.1356871 141.733355,24.2900402 141.518549,24.2900402 C141.272299,24.2900402 140.904439,23.9500822 139.277295,22.3135577 C138.940122,22.0048514 134.519745,17.4657255 131.266214,13.9453304 C127.705818,10.0853584 124.237103,6.19489685 123.254755,5.08317308 L123.65368,19.8740157 Z" id="Fill-37" fill="#221F20" mask="url(#mask-2)"></path>
                            <path d="M152.261717,21.1706965 C149.284365,18.4845706 148.547509,14.9645566 148.547509,12.0310846 C148.547509,9.96199021 149.253678,6.34898322 151.985538,3.60111608 C153.82673,1.74811608 156.619963,0.296815385 161.347205,0.296815385 C162.575046,0.296815385 164.293871,0.389427273 165.798269,0.667644056 C166.964736,0.883738462 167.946705,1.06896224 168.929053,1.1307035 C169.266605,1.16157413 169.327978,1.28505664 169.327978,1.47028042 C169.327978,1.71724545 169.235919,2.08807413 169.174546,3.19941678 C169.112794,4.21852867 169.112794,5.91679441 169.082107,6.37985385 C169.051421,6.84329441 168.990426,7.02851818 168.806307,7.02851818 C168.591122,7.02851818 168.560057,6.81242378 168.560057,6.37985385 C168.560057,5.1758993 168.06983,3.90944126 167.271222,3.23028741 C166.196815,2.30416853 163.833951,1.47028042 161.132399,1.47028042 C157.050332,1.47028042 155.147009,2.67461608 154.072601,3.7245986 C151.831347,5.88592378 151.310055,8.63417203 151.310055,11.7837385 C151.310055,17.6815531 155.821734,23.0850566 162.390547,23.0850566 C164.692796,23.0850566 166.50368,22.8076021 167.732278,21.5415252 C168.376317,20.8623713 168.775621,19.5036825 168.86768,18.9476301 C168.929053,18.6080531 168.990426,18.4845706 169.174546,18.4845706 C169.327978,18.4845706 169.388972,18.700665 169.388972,18.9476301 C169.388972,19.1637245 169.021113,21.8502315 168.714247,22.9005951 C168.529371,23.4871371 168.467997,23.5488783 167.916019,23.7962245 C166.687799,24.2901545 164.355244,24.506249 162.390547,24.506249 C157.78643,24.506249 154.685953,23.3636545 152.261717,21.1706965" id="Fill-38" fill="#221F20" mask="url(#mask-2)"></path>
                            <path d="M176.81682,21.1706965 C173.839847,18.4845706 173.102612,14.9645566 173.102612,12.0310846 C173.102612,9.96199021 173.80916,6.34898322 176.540641,3.60111608 C178.381833,1.74811608 181.175445,0.296815385 185.902308,0.296815385 C187.130148,0.296815385 188.849352,0.389427273 190.353372,0.667644056 C191.519839,0.883738462 192.501808,1.06896224 193.484156,1.1307035 C193.821708,1.16157413 193.883081,1.28505664 193.883081,1.47028042 C193.883081,1.71724545 193.791022,2.08807413 193.729648,3.19941678 C193.668275,4.21852867 193.668275,5.91679441 193.637589,6.37985385 C193.606902,6.84329441 193.545529,7.02851818 193.36141,7.02851818 C193.146225,7.02851818 193.11516,6.81242378 193.11516,6.37985385 C193.11516,5.1758993 192.624933,3.90944126 191.826325,3.23028741 C190.752297,2.30416853 188.389054,1.47028042 185.687502,1.47028042 C181.605435,1.47028042 179.702112,2.67461608 178.628083,3.7245986 C176.386829,5.88592378 175.865158,8.63417203 175.865158,11.7837385 C175.865158,17.6815531 180.376837,23.0850566 186.946029,23.0850566 C189.247898,23.0850566 191.059162,22.8076021 192.287381,21.5415252 C192.93142,20.8623713 193.331102,19.5036825 193.422783,18.9476301 C193.484156,18.6080531 193.545529,18.4845706 193.729648,18.4845706 C193.883081,18.4845706 193.944454,18.700665 193.944454,18.9476301 C193.944454,19.1637245 193.576216,21.8502315 193.269729,22.9005951 C193.084473,23.4871371 193.023479,23.5488783 192.471122,23.7962245 C191.242902,24.2901545 188.910347,24.506249 186.946029,24.506249 C182.341533,24.506249 179.241435,23.3636545 176.81682,21.1706965" id="Fill-39" fill="#221F20" mask="url(#mask-2)"></path>
                            <path d="M77.5665148,12.8787311 C75.5574937,14.5987206 73.6912975,16.9441262 70.3112321,19.0673395 C65.2619706,22.1704094 58.8295417,21.2801157 54.263309,20.2392801 C60.4494879,19.2979164 65.6321033,16.2501087 72.611586,14.4794304 C68.0006494,13.8418185 65.9855667,14.0674409 56.0010763,9.9010493 C64.5830783,8.79771014 71.3644244,11.2391577 77.5665148,12.8787311 M40.2236494,19.5315423 C46.6670648,18.5215773 51.4450725,16.5283255 57.036084,15.2431927 C52.9555321,13.7560668 50.042584,13.9954094 41.9735398,9.67275909 C51.1241898,9.02828706 56.1219283,13.6329654 63.6549052,14.5869059 C61.498134,15.866322 58.604886,17.2562626 55.1346552,18.754822 C50.0149283,20.8715563 44.8349648,20.456899 40.2236494,19.5315423 M25.688459,16.0046682 C31.258634,16.193322 38.5275552,14.4714269 43.5283244,14.7580283 C37.966484,12.5734549 34.4235148,8.98293392 31.285911,6.86619965 C33.7203763,7.10325559 37.1720437,8.3327451 39.9326956,9.98641993 C42.6956206,11.6362836 44.9137648,13.6969934 47.9854494,15.2805423 C44.3826225,16.407892 41.251459,17.8096472 37.6747725,18.071857 C34.0893725,18.3329234 29.4871494,17.6080353 25.688459,16.0046682 M30.7695437,11.9339374 C26.5238148,9.25162273 24.3499956,6.33187098 21.4378052,4.2250458 C24.5231283,4.94612273 27.3542456,6.54377308 29.5068494,8.09492692 C31.6227052,9.69600734 31.6518763,10.502836 36.5662687,13.4930948 C33.3184206,13.5628395 29.8470533,14.6875213 26.7086917,14.2309409 C23.5593437,13.7328185 21.1824629,12.5955598 18.200186,10.3229479 C23.3354456,11.6195143 26.6518648,12.3169619 30.7695437,11.9339374 M25.860834,9.99823462 C21.5158475,9.68800385 14.5746283,7.60252133 9.97998212,5.61155629 C16.1555533,4.95755629 21.5200148,5.58983252 25.860834,9.99823462 M83.1723013,7.80832552 C86.426211,9.14452832 88.6333687,11.1907556 90.7245994,12.6127101 L90.7245994,0.23091993 L0.895630192,0.23091993 L8.73963981,11.9404164 L0.137180192,23.6510563 L90.7245994,23.6510563 L90.7245994,13.5845633 C85.3995379,15.3735353 79.8418648,19.2800038 73.4226956,20.1851612 C79.4914321,13.5716052 82.6945763,13.8341962 87.1039667,12.4316787 C80.4021783,10.4201332 73.790934,9.53631853 67.3475187,9.23180455 C72.8786725,7.63148636 77.536586,5.52580455 83.1723013,7.80832552" id="Fill-40" fill="#074777" mask="url(#mask-2)"></path>
                        </g>
                    </g>
                </g>
            </g>
        </g>
    </g>
</svg>