<?xml version="1.0" encoding="UTF-8"?>
<svg width="175px" height="40px" viewBox="0 0 175 40" version="1.1" xmlns="http://www.w3.org/2000/svg" xmlns:xlink="http://www.w3.org/1999/xlink">
    <!-- Generator: Sketch 44.1 (41455) - http://www.bohemiancoding.com/sketch -->
    <title>logo/anf</title>
    <desc>Created with Sketch.</desc>
    <defs>
        <polygon id="path-1" points="74.5697736 27.5862069 148.98563 27.5862069 148.98563 0.19862069 0.153917323 0.19862069 0.153917323 27.5862069 74.5697736 27.5862069"></polygon>
    </defs>
    <g id="Symbols" stroke="none" stroke-width="1" fill="none" fill-rule="evenodd">
        <g id="component/mainmenu/foundation" transform="translate(-47.000000, -67.000000)">
            <g id="logo/anf" transform="translate(47.000000, 67.000000)">
                <g id="Page-1">
                    <g id="Group-3" transform="translate(25.492126, 11.906207)">
                        <mask id="mask-2" fill="white">
                            <use xlink:href="#path-1"></use>
                        </mask>
                        <g id="Clip-2"></g>
                        <path d="M147.889744,2.71310345 L148.726161,1.60482759 L148.626949,1.52482759 C147.497028,0.615862069 146.387776,0.228275862 144.921634,0.228275862 C142.882264,0.228275862 141.40372,1.46758621 141.40372,3.20413793 C141.40372,5.13862069 142.827835,5.84551724 144.968484,6.31103448 C147.147028,6.77103448 147.545945,7.28896552 147.545945,8.1737931 C147.545945,9.12965517 146.654409,9.79724138 145.377736,9.79724138 C144.04939,9.79724138 143.050374,9.38413793 141.930787,8.37103448 L141.830886,8.28068966 L140.940039,9.33655172 L141.034429,9.42068966 C142.320748,10.5703448 143.686299,11.1055172 145.334331,11.1055172 C147.483937,11.1055172 148.985906,9.85103448 148.985906,8.0262069 C148.985906,6.42 147.950374,5.50827586 145.52311,4.97862069 C143.245354,4.49034483 142.827835,3.96275862 142.827835,3.07172414 C142.827835,2.16758621 143.677343,1.53655172 144.892008,1.53655172 C145.953031,1.53655172 146.872815,1.88275862 147.78502,2.62758621 L147.889744,2.71310345 Z M131.79939,10.9586207 L139.587579,10.9586207 L139.587579,9.63586207 L133.224193,9.63586207 L133.224193,6.28413793 L138.851063,6.28413793 L138.851063,4.96137931 L133.224193,4.96137931 L133.224193,1.69862069 L139.513858,1.69862069 L139.513858,0.375862069 L131.79939,0.375862069 L131.79939,10.9586207 Z M123.530984,3.07172414 C123.530984,2.16758621 124.379803,1.53655172 125.595157,1.53655172 C126.65687,1.53655172 127.575965,1.88275862 128.488858,2.62758621 L128.593583,2.71310345 L129.428622,1.60482759 L129.330098,1.52482759 C128.199488,0.615862069 127.090925,0.228275862 125.624783,0.228275862 C123.586102,0.228275862 122.106181,1.46758621 122.106181,3.20413793 C122.106181,5.13931034 123.530984,5.84551724 125.671634,6.31103448 C127.850177,6.77103448 128.249094,7.28896552 128.249094,8.1737931 C128.249094,9.12965517 127.35687,9.79724138 126.081575,9.79724138 C124.75185,9.79724138 123.752835,9.38413793 122.633248,8.37103448 L122.532657,8.28068966 L121.6425,9.33655172 L121.737579,9.42068966 C123.023898,10.5703448 124.389449,11.1055172 126.036102,11.1055172 C128.185709,11.1055172 129.688366,9.85103448 129.688366,8.0262069 C129.688366,6.41931034 128.652835,5.50827586 126.226949,4.97862069 C123.947815,4.49034483 123.530984,3.96275862 123.530984,3.07172414 L123.530984,3.07172414 Z M120.642795,10.9586207 L117.4425,6.69724138 C119.138071,6.31793103 120.143287,5.17241379 120.143287,3.57310345 C120.143287,2.73931034 119.847028,1.98344828 119.308937,1.44551724 C118.619961,0.755862069 117.545846,0.375862069 116.285709,0.375862069 L111.72124,0.375862069 L111.72124,10.9586207 L113.145354,10.9586207 L113.145354,6.94827586 L115.895059,6.94827586 L118.885906,10.9586207 L120.642795,10.9586207 Z M116.182362,5.63931034 L113.145354,5.63931034 L113.145354,1.71310345 L116.196831,1.71310345 C117.76563,1.71310345 118.704016,2.42482759 118.704016,3.64689655 C118.704016,4.85724138 117.713957,5.63931034 116.182362,5.63931034 L116.182362,5.63931034 Z M109.227835,6.41862069 L109.227835,0.375862069 L107.802343,0.375862069 L107.802343,6.50758621 C107.802343,8.61931034 106.744764,9.78206897 104.825276,9.78206897 C102.905098,9.78206897 101.803425,8.56206897 101.803425,6.4337931 L101.803425,0.375862069 L100.378622,0.375862069 L100.378622,6.50758621 C100.378622,9.35241379 102.070748,11.12 104.79565,11.12 C107.570157,11.12 109.227835,9.36275862 109.227835,6.41862069 L109.227835,6.41862069 Z M104.958937,24.8510345 L98.658248,16.8262069 L97.3739961,16.8262069 L97.3739961,27.4096552 L98.7698622,27.4096552 L98.7698622,19.1924138 L105.193878,27.3593103 L105.233839,27.4096552 L106.355492,27.4096552 L106.355492,16.8262069 L104.958937,16.8262069 L104.958937,24.8510345 Z M96.763563,10.9586207 L97.8852165,10.9586207 L97.8852165,0.375862069 L96.4893504,0.375862069 L96.4893504,8.4 L90.1879724,0.375862069 L88.9037205,0.375862069 L88.9037205,10.9586207 L90.2988976,10.9586207 L90.2988976,2.74137931 L96.7236024,10.9082759 L96.763563,10.9586207 Z M89.3584449,16.6496552 C86.3276378,16.6496552 83.9548031,19.0510345 83.9548031,22.1475862 C83.9548031,25.2482759 86.2649409,27.5862069 89.3288189,27.5862069 C92.358937,27.5862069 94.7338386,25.1841379 94.7338386,22.0882759 C94.7338386,18.9875862 92.4230118,16.6496552 89.3584449,16.6496552 L89.3584449,16.6496552 Z M89.3288189,17.9868966 C91.572126,17.9868966 93.263563,19.7627586 93.263563,22.1475862 C93.263563,24.4855172 91.5838386,26.2482759 89.3584449,26.2482759 C87.1151378,26.2482759 85.4237008,24.4724138 85.4237008,22.0882759 C85.4237008,19.7503448 87.1020472,17.9868966 89.3288189,17.9868966 L89.3288189,17.9868966 Z M80.7062795,10.9586207 L81.829311,10.9586207 L81.829311,0.375862069 L80.4341339,0.375862069 L80.4341339,8.4 L74.130689,0.375862069 L72.847815,0.375862069 L72.847815,10.9586207 L74.2423031,10.9586207 L74.2423031,2.74137931 L80.6676969,10.9082759 L80.7062795,10.9586207 Z M69.608248,10.9586207 L71.1467323,10.9586207 L66.3652362,0.37862069 L66.3300984,0.302068966 L65.0727165,0.302068966 L60.2547047,10.9586207 L61.734626,10.9586207 L62.9575591,8.23034483 L68.4004724,8.23034483 L69.608248,10.9586207 Z M67.8279331,6.90758621 L63.5314764,6.90758621 L65.6859055,2.10896552 L67.8279331,6.90758621 Z M51.351752,5.63724138 C51.351752,3.29931034 53.012185,1.53655172 55.2127756,1.53655172 C56.4040157,1.53655172 57.3465354,1.94896552 58.3641535,2.91586207 L58.4592323,3.0062069 L59.4327559,1.95931034 L59.3390551,1.87034483 C58.4185827,1.00206897 57.2838386,0.19862069 55.2279331,0.19862069 C52.2308858,0.19862069 49.8828543,2.60068966 49.8828543,5.69655172 C49.8828543,8.79724138 52.1619882,11.1351724 55.1838386,11.1351724 C57.2907283,11.1351724 58.497815,10.1986207 59.400374,9.28275862 L59.4926969,9.18965517 L58.5425984,8.25724138 L58.4523425,8.34413793 C57.5401378,9.21655172 56.6403346,9.79724138 55.2127756,9.79724138 C53.0480118,9.79724138 51.351752,7.98344828 51.351752,5.63724138 L51.351752,5.63724138 Z M51.3682874,16.8262069 L47.6581496,16.8262069 L47.6581496,27.4096552 L51.3682874,27.4096552 C54.6195669,27.4096552 56.978622,25.1841379 56.978622,22.0882759 C56.978622,19.0393103 54.6195669,16.8262069 51.3682874,16.8262069 L51.3682874,16.8262069 Z M51.3682874,26.0717241 L49.0829528,26.0717241 L49.0829528,18.1634483 L51.3682874,18.1634483 C53.8065748,18.1634483 55.5097244,19.7896552 55.5097244,22.1475862 C55.5097244,24.457931 53.8065748,26.0717241 51.3682874,26.0717241 L51.3682874,26.0717241 Z M46.1561811,10.9586207 L47.5809843,10.9586207 L47.5809843,0.375862069 L46.1561811,0.375862069 L46.1561811,10.9586207 Z M43.4381693,27.4096552 L44.5612008,27.4096552 L44.5612008,16.8262069 L43.1660236,16.8262069 L43.1660236,24.8510345 L36.8639567,16.8262069 L35.5797047,16.8262069 L35.5797047,27.4096552 L36.9748819,27.4096552 L36.9748819,19.1924138 L43.3995866,27.3593103 L43.4381693,27.4096552 Z M44.3241929,10.9586207 L41.1238976,6.69724138 C42.8194685,6.31793103 43.824685,5.17241379 43.824685,3.57310345 C43.824685,2.73931034 43.5284252,1.98344828 42.9910236,1.44551724 C42.3013583,0.755862069 41.2279331,0.375862069 39.9671063,0.375862069 L35.4026378,0.375862069 L35.4026378,10.9586207 L36.8274409,10.9586207 L36.8274409,6.94827586 L39.5778346,6.94827586 L42.5679921,10.9586207 L44.3241929,10.9586207 Z M39.8637598,5.63931034 L36.8274409,5.63931034 L36.8274409,1.71310345 L39.8796063,1.71310345 C41.4484055,1.71310345 42.3854134,2.42482759 42.3854134,3.64689655 C42.3854134,4.85724138 41.3953543,5.63931034 39.8637598,5.63931034 L39.8637598,5.63931034 Z M25.5337402,10.9586207 L33.3219291,10.9586207 L33.3219291,9.63586207 L26.9585433,9.63586207 L26.9585433,6.28413793 L32.5854134,6.28413793 L32.5854134,4.96137931 L26.9585433,4.96137931 L26.9585433,1.69862069 L33.2482087,1.69862069 L33.2482087,0.375862069 L25.5337402,0.375862069 L25.5337402,10.9586207 Z M25.2202559,22.8848276 L25.2202559,16.8262069 L23.7954528,16.8262069 L23.7954528,22.9586207 C23.7954528,25.8034483 25.4875787,27.5710345 28.2117913,27.5710345 C30.9869882,27.5710345 32.6439764,25.8137931 32.6439764,22.8696552 L32.6439764,16.8262069 L31.2191732,16.8262069 L31.2191732,22.9586207 C31.2191732,25.0703448 30.1615945,26.2331034 28.2414173,26.2331034 C26.3212402,26.2331034 25.2202559,25.0124138 25.2202559,22.8848276 L25.2202559,22.8848276 Z M21.4529331,10.9586207 L22.8777362,10.9586207 L22.8777362,0.375862069 L21.4990945,0.375862069 L17.8123819,5.90344828 L14.1263583,0.375862069 L12.7470276,0.375862069 L12.7470276,10.9586207 L14.1428937,10.9586207 L14.1428937,2.90551724 L17.6601181,8.07034483 L17.6993898,8.12689655 L17.895748,8.12689655 L21.4529331,2.89172414 L21.4529331,10.9586207 Z M15.941811,16.6496552 C12.9116929,16.6496552 10.5374803,19.0510345 10.5374803,22.1475862 C10.5374803,25.2482759 12.8483071,27.5862069 15.912185,27.5862069 C18.9423031,27.5862069 21.3165157,25.1841379 21.3165157,22.0882759 C21.3165157,18.9875862 19.005689,16.6496552 15.941811,16.6496552 L15.941811,16.6496552 Z M15.912185,17.9868966 C18.1554921,17.9868966 19.8476181,19.7627586 19.8476181,22.1475862 C19.8476181,24.4855172 18.1685827,26.2482759 15.941811,26.2482759 C13.6985039,26.2482759 12.0070669,24.4724138 12.0070669,22.0882759 C12.0070669,19.7503448 13.6854134,17.9868966 15.912185,17.9868966 L15.912185,17.9868966 Z M9.50814961,10.9586207 L11.0473228,10.9586207 L6.2651378,0.37862069 L6.23,0.302068966 L4.97055118,0.302068966 L0.153917323,10.9586207 L1.63452756,10.9586207 L2.85677165,8.23034483 L8.29968504,8.23034483 L9.50814961,10.9586207 Z M7.72783465,6.90758621 L3.43068898,6.90758621 L5.58580709,2.10896552 L7.72783465,6.90758621 Z M8.77990157,16.8262069 L1.10883858,16.8262069 L1.10883858,27.4096552 L2.53433071,27.4096552 L2.53433071,22.9117241 L8.1171063,22.9117241 L8.1171063,21.5896552 L2.53433071,21.5896552 L2.53433071,18.1634483 L8.77990157,18.1634483 L8.77990157,16.8262069 Z M62.8039173,16.7524138 L57.9859055,27.4096552 L59.4665157,27.4096552 L60.6894488,24.6813793 L66.1323622,24.6813793 L67.3401378,27.4096552 L68.878622,27.4096552 L64.097126,16.8296552 L64.0619882,16.7524138 L62.8039173,16.7524138 Z M63.4184843,18.56 L65.5591339,23.3586207 L61.2633661,23.3586207 L63.4184843,18.56 Z M77.3220276,16.8262069 L68.9585433,16.8262069 L68.9585433,18.1634483 L72.4199606,18.1634483 L72.4199606,27.4096552 L73.8599213,27.4096552 L73.8599213,18.1634483 L77.3220276,18.1634483 L77.3220276,16.8262069 Z M79.7864961,27.4089655 L81.2112992,27.4089655 L81.2112992,16.8262069 L79.7864961,16.8262069 L79.7864961,27.4089655 Z" id="Fill-1" fill="#53565A" mask="url(#mask-2)"></path>
                    </g>
                    <path d="M10.7575394,39.0555862 C-8.79836614,14.0755862 23.9583268,16.1597241 20.7008465,4.47006897 C30.719252,17.7307586 13.1572441,17.7755862 10.944252,27.5142069 C9.44779528,34.1004138 10.798189,37.6693793 10.7575394,39.0555862" id="Fill-4" fill="#1899D6"></path>
                    <path d="M17.7310138,0.000137931034 C15.5903642,2.78841379 -6.67528543,9.56013793 1.99548228,23.0697931 C4.36693898,11.9415172 23.7678248,9.5222069 17.7310138,0.000137931034" id="Fill-6" fill="#0B3A5C"></path>
                </g>
            </g>
        </g>
    </g>
</svg>