<?xml version="1.0" encoding="UTF-8"?>
<svg width="308px" height="35px" viewBox="0 0 308 35" version="1.1" xmlns="http://www.w3.org/2000/svg" xmlns:xlink="http://www.w3.org/1999/xlink">
    <!-- Generator: Sketch 44.1 (41455) - http://www.bohemiancoding.com/sketch -->
    <title>logo/nkc</title>
    <desc>Created with Sketch.</desc>
    <defs></defs>
    <g id="Symbols" stroke="none" stroke-width="1" fill="none" fill-rule="evenodd">
        <g id="component/mainmenu/nkc" transform="translate(-50.000000, -69.000000)">
            <g id="logo/nkc" transform="translate(49.000000, 68.000000)">
                <path d="M237.890082,36 C239.353609,36 240.219989,35.469717 241.001227,34.6203256 L239.938099,33.5257369 C239.343254,34.0783106 238.81169,34.4326148 237.944159,34.4326148 C236.644013,34.4326148 235.744266,33.3262942 235.744266,32.0005866 L235.744266,31.9782959 C235.744266,30.6514152 236.667025,29.5685584 237.944159,29.5685584 C238.702386,29.5685584 239.300683,29.8993987 239.884022,30.4414137 L240.946,29.1931368 C240.24185,28.4857017 239.385825,28 237.956815,28 C235.624607,28 234,29.7996774 234,32.0005866 L234,32.0217041 C234,34.2437308 235.659124,36 237.890082,36 Z M242.33474,35.8674292 L248.110608,35.8674292 L248.110608,34.355184 L243.992713,34.355184 L243.992713,32.7291392 L247.568689,32.7291392 L247.568689,31.2157208 L243.992713,31.2157208 L243.992713,29.644816 L248.056531,29.644816 L248.056531,28.1325708 L242.33474,28.1325708 L242.33474,35.8674292 Z M249.597147,35.8674292 L251.242464,35.8674292 L251.242464,30.9505793 L254.91854,35.8674292 L256.337194,35.8674292 L256.337194,28.1325708 L254.691877,28.1325708 L254.691877,32.8945593 L251.135461,28.1325708 L249.597147,28.1325708 L249.597147,35.8674292 Z M259.925826,35.8674292 L261.594155,35.8674292 L261.594155,29.7011292 L263.902201,29.7011292 L263.902201,28.1325708 L257.61778,28.1325708 L257.61778,29.7011292 L259.925826,29.7011292 L259.925826,35.8674292 Z M265.183938,35.8674292 L270.957506,35.8674292 L270.957506,34.355184 L266.83961,34.355184 L266.83961,32.7291392 L270.416737,32.7291392 L270.416737,31.2157208 L266.83961,31.2157208 L266.83961,29.644816 L270.903429,29.644816 L270.903429,28.1325708 L265.183938,28.1325708 L265.183938,35.8674292 Z M272.444044,35.8674292 L272.444044,28.1325708 L275.911866,28.1325708 C276.877196,28.1325708 277.623917,28.408271 278.122114,28.9162634 C278.544374,29.346825 278.772187,29.9545388 278.772187,30.6854377 L278.772187,30.7065552 C278.772187,31.9560053 278.111759,32.7408711 277.14758,33.1045608 L279,35.8674292 L277.049781,35.8674292 L275.424024,33.391993 L274.111222,33.391993 L274.111222,35.8674292 L272.444044,35.8674292 Z M274.111222,31.8903065 L275.803713,31.8903065 C276.616016,31.8903065 277.083148,31.4480129 277.083148,30.7957178 L277.083148,30.7734272 C277.083148,30.0437014 276.5838,29.6671066 275.770346,29.6671066 L274.111222,29.6671066 L274.111222,31.8903065 Z" id="Fill-1" fill="#53565A"></path>
                <path d="M234.016385,22.530875 L235.688308,22.530875 L235.688308,20.262875 L236.569846,19.373 L238.928308,22.530875 L240.937154,22.530875 L237.698308,18.260375 L240.797538,15.11375 L238.776,15.11375 L235.688308,18.356 L235.688308,15.11375 L234.016385,15.11375 L234.016385,22.530875 Z M241.951385,22.530875 L243.601385,22.530875 L243.601385,17.816 L247.287923,22.530875 L248.709462,22.530875 L248.709462,15.11375 L247.059462,15.11375 L247.059462,19.680125 L243.492923,15.11375 L241.951385,15.11375 L241.951385,22.530875 Z M254.231769,22.658 C256.581,22.658 258.285231,20.93225 258.285231,18.822875 L258.285231,18.8015 C258.285231,16.692125 256.601769,14.986625 254.252538,14.986625 C251.905615,14.986625 250.199077,16.712375 250.199077,18.822875 L250.199077,18.843125 C250.199077,20.953625 251.882538,22.658 254.231769,22.658 L254.231769,22.658 Z M254.252538,21.155 C252.904846,21.155 251.949462,20.094125 251.949462,18.822875 L251.949462,18.8015 C251.949462,17.529125 252.884077,16.49075 254.231769,16.49075 C255.579462,16.49075 256.537154,17.5505 256.537154,18.822875 L256.537154,18.843125 C256.537154,20.1155 255.601385,21.155 254.252538,21.155 L254.252538,21.155 Z M261.351,22.58375 L262.807154,22.58375 L264.524077,17.731625 L266.242154,22.58375 L267.697154,22.58375 L270.295615,15.11375 L268.546385,15.11375 L266.970231,20.13575 L265.263692,15.092375 L263.829462,15.092375 L262.122923,20.13575 L260.546769,15.11375 L258.753692,15.11375 L261.351,22.58375 Z M271.537154,22.530875 L277.002923,22.530875 L277.002923,21.048125 L273.209077,21.048125 L273.209077,15.11375 L271.537154,15.11375 L271.537154,22.530875 Z M278.264077,22.530875 L284.055231,22.530875 L284.055231,21.08075 L279.925615,21.08075 L279.925615,19.5215 L283.511769,19.5215 L283.511769,18.07025 L279.925615,18.07025 L279.925615,16.565 L284.001,16.565 L284.001,15.11375 L278.264077,15.11375 L278.264077,22.530875 Z M285.546,22.530875 L288.512538,22.530875 C290.905615,22.530875 292.555615,20.910875 292.555615,18.822875 L292.555615,18.8015 C292.555615,16.712375 290.905615,15.11375 288.512538,15.11375 L285.546,15.11375 L285.546,22.530875 Z M288.512538,16.58525 C289.883308,16.58525 290.807538,17.50775 290.807538,18.822875 L290.807538,18.843125 C290.807538,20.15825 289.883308,21.059375 288.512538,21.059375 L287.217923,21.059375 L287.217923,16.58525 L288.512538,16.58525 Z M297.707538,22.658 C299.100231,22.658 300.176769,22.128125 300.957923,21.482375 L300.957923,18.2615 L297.653308,18.2615 L297.653308,19.67 L299.339077,19.67 L299.339077,20.72975 C298.914462,21.02675 298.371,21.17525 297.761769,21.17525 C296.414077,21.17525 295.458692,20.1785 295.458692,18.822875 L295.458692,18.8015 C295.458692,17.540375 296.425615,16.49075 297.644077,16.49075 C298.523308,16.49075 299.044846,16.766375 299.632154,17.243375 L300.685615,16.003625 C299.894077,15.346625 299.067923,14.986625 297.697154,14.986625 C295.391769,14.986625 293.708308,16.7135 293.708308,18.822875 L293.708308,18.84425 C293.708308,21.038 295.338692,22.658 297.707538,22.658 L297.707538,22.658 Z M302.567538,22.530875 L308.359846,22.530875 L308.359846,21.08075 L304.230231,21.08075 L304.230231,19.5215 L307.816385,19.5215 L307.816385,18.07025 L304.230231,18.07025 L304.230231,16.565 L308.305615,16.565 L308.305615,15.11375 L302.567538,15.11375 L302.567538,22.530875 Z" id="Fill-3" fill="#53565A"></path>
                <path d="M234,9.86742924 L235.658734,9.86742924 L235.658734,4.95057926 L239.361039,9.86742924 L240.789104,9.86742924 L240.789104,2.13257076 L239.131529,2.13257076 L239.131529,6.89455932 L235.549775,2.13257076 L234,2.13257076 L234,9.86742924 Z M245.812832,9.98944127 C247.866835,9.98944127 249.163917,8.84088576 249.163917,6.49802024 L249.163917,2.13257076 L247.485477,2.13257076 L247.485477,6.56489221 C247.485477,7.79087843 246.861857,8.42088283 245.836015,8.42088283 C244.807855,8.42088283 244.185395,7.76858777 244.185395,6.50857897 L244.185395,2.13257076 L242.505796,2.13257076 L242.505796,6.55316029 C242.505796,8.82915383 243.761148,9.98944127 245.812832,9.98944127 L245.812832,9.98944127 Z M250.880608,9.86742924 L252.561366,9.86742924 L252.561366,7.39199296 L253.881631,7.39199296 L255.52066,9.86742924 L257.485408,9.86742924 L255.618028,7.10456079 C256.58939,6.7408711 257.254739,5.95600528 257.254739,4.70655521 L257.254739,4.68543775 C257.254739,3.95453879 257.026388,3.34682505 256.600982,2.91626338 C256.099073,2.40827101 255.346788,2.13257076 254.373108,2.13257076 L250.880608,2.13257076 L250.880608,9.86742924 Z M252.561366,5.8903065 L252.561366,3.66710661 L254.231692,3.66710661 C255.050048,3.66710661 255.554275,4.04370142 255.554275,4.77342719 L255.554275,4.79571785 C255.554275,5.44801291 255.083663,5.8903065 254.264148,5.8903065 L252.561366,5.8903065 Z M261.493727,9.97770934 C263.142029,9.97770934 264.298854,9.11658601 264.298854,7.58087696 L264.298854,7.5585863 C264.298854,6.21058806 263.426019,5.64628245 261.876244,5.23683825 C260.552502,4.89426602 260.225624,4.72884587 260.225624,4.2208535 L260.225624,4.19856284 C260.225624,3.82196803 260.565253,3.52397712 261.209737,3.52397712 C261.853062,3.52397712 262.519569,3.8114093 263.19535,4.28655228 L264.068185,3.00542602 C263.293877,2.37542162 262.344538,2.02229066 261.230601,2.02229066 C259.669235,2.02229066 258.556457,2.95028597 258.556457,4.35342426 L258.556457,4.37454172 C258.556457,5.91142396 259.549843,6.34315882 261.088027,6.7408711 C262.367721,7.07288459 262.628529,7.29344479 262.628529,7.72517965 L262.628529,7.74629711 C262.628529,8.20032263 262.214714,8.47602288 261.525024,8.47602288 C260.65103,8.47602288 259.930042,8.11115999 259.24267,7.53629564 L258.251602,8.74116439 C259.167326,9.56943833 260.335743,9.97770934 261.493727,9.97770934 L261.493727,9.97770934 Z M265.839356,9.86742924 L267.520115,9.86742924 L267.520115,2.13257076 L265.839356,2.13257076 L265.839356,9.86742924 Z M269.431542,9.86742924 L271.089118,9.86742924 L271.089118,4.95057926 L274.792581,9.86742924 L276.222965,9.86742924 L276.222965,2.13257076 L274.563071,2.13257076 L274.563071,6.89455932 L270.980158,2.13257076 L269.431542,2.13257076 L269.431542,9.86742924 Z M281.737011,10 C283.136097,10 284.21526,9.44742631 285,8.77401379 L285,5.41516351 L281.682531,5.41516351 L281.682531,6.88400059 L283.37604,6.88400059 L283.37604,7.98914797 C282.949475,8.2988708 282.403518,8.45373222 281.791491,8.45373222 C280.437611,8.45373222 279.475522,7.41428362 279.475522,6.0005866 L279.475522,5.97829594 C279.475522,4.66314709 280.446884,3.56855844 281.672099,3.56855844 C282.556525,3.56855844 283.080458,3.85599061 283.670462,4.35342426 L284.72876,3.06056607 C283.93127,2.37542162 283.101323,2 281.726578,2 C279.41061,2 277.719419,3.80085056 277.719419,6.0005866 L277.719419,6.02287725 C277.719419,8.31060273 279.35613,10 281.737011,10 L281.737011,10 Z" id="Fill-6" fill="#53565A"></path>
                <polygon id="Fill-8" fill="#53565A" points="215 36 215.785 36 215.785 1 215 1"></polygon>
                <path d="M57.9779887,36 C41.0807457,19.6047575 65.7376417,18.1970443 62.2332446,10 C70.9317631,18.7358985 56.1002577,21.9228687 57.2271298,27.4717969 C57.6019754,24.0759775 68.4292896,20.5982337 67.1144108,14.968535 C74.6241668,25.5667687 57.2271298,28.7133537 57.9779887,36" id="Fill-10" fill="#193E4B"></path>
                <path d="M59.8325502,7 C57.5391431,10.8896657 44.6201417,17.8773357 50.536141,25 C51.2604341,16.7779331 65.0242563,13.3218508 59.8325502,7" id="Fill-11" fill="#009685
"></path>
                <path d="M35.6387849,16 L30.6433469,28 L33.2580927,28 L34.3228071,25.32747 L39.2528478,25.32747 L40.3187095,28 L43,28 L38.0034146,16 L35.6387849,16 Z M36.7884011,19.1498094 L38.3372852,23.0126063 L35.239517,23.0126063 L36.7884011,19.1498094 Z M5.99658535,16 L1,28 L3.61474581,28 L4.68060753,25.32747 L9.61064824,25.32747 L10.6753626,28 L13.3578004,28 L8.36121507,16 L5.99658535,16 Z M7.14505422,19.1498094 L8.69393832,23.0126063 L5.59617013,23.0126063 L7.14505422,19.1498094 Z M24.6474445,16.0856054 L24.6474445,23.4218704 L19.1850466,16.0856054 L16.8204169,16.0856054 L16.8204169,28 L19.3525555,28 L19.3525555,20.4268543 L24.9973776,28 L27.1795831,28 L27.1795831,16.0856054 L24.6474445,16.0856054 Z" id="Fill-12" fill="#53565A"></path>
                <path d="M76,27.8335088 L84.5472095,27.8335088 L84.5472095,26.6336236 L77.321781,26.6336236 L77.321781,22.5505693 L83.710581,22.5505693 L83.710581,21.3506841 L77.321781,21.3506841 L77.321781,17.3675246 L84.4642381,17.3675246 L84.4642381,16.1676395 L76,16.1676395 L76,27.8335088 Z M88.8790095,27.8335088 L90.1673714,27.8335088 L90.1673714,18.2665774 L97.7281429,27.8335088 L98.781419,27.8335088 L98.781419,16.1676395 L97.4942095,16.1676395 L97.4942095,25.5164099 L90.117819,16.1676395 L88.8790095,16.1676395 L88.8790095,27.8335088 Z M106.860762,27.8335088 L108.198676,27.8335088 L108.198676,17.3835997 L112.129448,17.3835997 L112.129448,16.1676395 L102.92999,16.1676395 L102.92999,17.3835997 L106.860762,17.3835997 L106.860762,27.8335088 Z M116.278019,27.8335088 L124.825229,27.8335088 L124.825229,26.6336236 L117.598648,26.6336236 L117.598648,22.5505693 L123.9886,22.5505693 L123.9886,21.3506841 L117.598648,21.3506841 L117.598648,17.3675246 L124.741105,17.3675246 L124.741105,16.1676395 L116.278019,16.1676395 L116.278019,27.8335088 Z M129.157029,27.8335088 L130.47881,27.8335088 L130.47881,23.300354 L133.824171,23.300354 L137.220238,27.8335088 L138.841638,27.8335088 L135.247362,23.0672663 C137.08541,22.7331356 138.423324,21.5998469 138.423324,19.6674002 L138.423324,19.634102 C138.423324,18.7166778 138.089133,17.9002966 137.52101,17.3342264 C136.78579,16.6005167 135.629952,16.1676395 134.192933,16.1676395 L129.157029,16.1676395 L129.157029,27.8335088 Z M130.47881,22.1165439 L130.47881,17.3835997 L134.091524,17.3835997 C135.981429,17.3835997 137.08541,18.2505023 137.08541,19.6834753 L137.08541,19.7167735 C137.08541,21.2174911 135.831619,22.1165439 134.07539,22.1165439 L130.47881,22.1165439 Z M142.923371,27.8335088 L144.244,27.8335088 L144.244,23.7171563 L147.088076,23.7171563 C149.580676,23.7171563 151.688381,22.4173763 151.688381,19.900488 L151.688381,19.8671897 C151.688381,17.5673141 149.948286,16.1676395 147.305876,16.1676395 L142.923371,16.1676395 L142.923371,27.8335088 Z M144.244,22.5172711 L144.244,17.3835997 L147.206771,17.3835997 C149.095524,17.3835997 150.349314,18.2505023 150.349314,19.916563 L150.349314,19.9498613 C150.349314,21.4838771 149.07939,22.5172711 147.138781,22.5172711 L144.244,22.5172711 Z M155.768962,27.8335088 L157.090743,27.8335088 L157.090743,23.300354 L160.436105,23.300354 L163.831019,27.8335088 L165.453571,27.8335088 L161.858143,23.0672663 C163.697343,22.7331356 165.035257,21.5998469 165.035257,19.6674002 L165.035257,19.634102 C165.035257,18.7166778 164.701067,17.9002966 164.132943,17.3342264 C163.396571,16.6005167 162.243038,16.1676395 160.803714,16.1676395 L155.768962,16.1676395 L155.768962,27.8335088 Z M157.090743,22.1165439 L157.090743,17.3835997 L160.703457,17.3835997 C162.593362,17.3835997 163.697343,18.2505023 163.697343,19.6834753 L163.697343,19.7167735 C163.697343,21.2174911 162.443552,22.1165439 160.687324,22.1165439 L157.090743,22.1165439 Z M169.651695,27.8335088 L170.973476,27.8335088 L170.973476,16.1676395 L169.651695,16.1676395 L169.651695,27.8335088 Z M180.089962,28 C182.414314,28 184.087571,26.7002201 184.087571,24.7000287 L184.087571,24.6667305 C184.087571,22.8835518 182.883333,21.9339776 180.27319,21.3667592 C177.697619,20.8167639 177.094924,20.2001722 177.094924,19.1001818 L177.094924,19.0668836 C177.094924,18.0174146 178.065229,17.1838102 179.587524,17.1838102 C180.791762,17.1838102 181.87961,17.5673141 182.966305,18.4502918 L183.736095,17.4341211 C182.54799,16.4833987 181.327619,16 179.620943,16 C177.396848,16 175.775448,17.3503014 175.775448,19.1840015 L175.775448,19.2172998 C175.775448,21.1336714 177.011952,22.0005741 179.705067,22.5838676 C182.163095,23.1005645 182.748505,23.7171563 182.748505,24.7999235 L182.748505,24.8332217 C182.748505,25.9837336 181.712514,26.8173381 180.139514,26.8173381 C178.516962,26.8173381 177.346143,26.2673428 176.125771,25.1673524 L175.305276,26.1330016 C176.711181,27.3834083 178.232324,28 180.089962,28 L180.089962,28 Z M188.45279,27.8335088 L197,27.8335088 L197,26.6336236 L189.774571,26.6336236 L189.774571,22.5505693 L196.163371,22.5505693 L196.163371,21.3506841 L189.774571,21.3506841 L189.774571,17.3675246 L196.917029,17.3675246 L196.917029,16.1676395 L188.45279,16.1676395 L188.45279,27.8335088 Z" id="Fill-13" fill="#53565A"></path>
            </g>
        </g>
    </g>
</svg>