<svg id="Layer_1" data-name="Layer 1" xmlns="http://www.w3.org/2000/svg" viewBox="0 0 334.82 63.4"><defs><style>.cls-1,.cls-3{fill:none;stroke:#fff}.cls-1{stroke-width:.61px}.cls-2{fill:#fff}.cls-3{stroke-width:.63px}</style></defs><path class="cls-1" d="M175.75 0v63.4"/><path class="cls-2" d="M132.54 268.54s17.17 4.58 17.17 15.61c0 10.62-15.29 10.66-14.23 23.51 0 0-7.08-3.34-6.09-9.26s10.41-11.4 11.24-16.68.4-8.07-8.09-13.18" transform="translate(-120.88 -256.4)"/><path class="cls-2" d="M132.34 270.15c5.81 5.74 2.3 11.53-.11 14.13l5.62.08s-11.91 5.15-13.29 8.54 0 5.52 0 5.52-5.08-6.31-3.3-11.8 8.52-7.33 10.69-12.3a6.53 6.53 0 0 0 .39-4.17M220.09 287.14l3.11-7.59 3.11 7.59zm-9.22 9.79h5.24l2.14-5.25h9.89l2.14 5.25h5.38l-10-23.56h-4.75zm-26.07 0h5.08v-14.87l11.33 14.87h4.38v-23.39h-5.08v14.4l-11-14.4h-4.71zm-20.8-9.79l3.11-7.59 3.1 7.59zm-9.23 9.79H160l2.14-5.25H172l2.14 5.25h5.38l-10-23.56h-4.75zM267.35 307.58h.83v-3.41l2.65 3.41h.7v-4.8h-.83v3.32l-2.57-3.32h-.78zm-3.39-.7a1.64 1.64 0 0 1-1.63-1.7 1.63 1.63 0 0 1 1.62-1.7 1.65 1.65 0 0 1 1.63 1.71 1.61 1.61 0 0 1-1.62 1.69m0 .78a2.46 2.46 0 0 0 2.52-2.48 2.51 2.51 0 0 0-5 0 2.43 2.43 0 0 0 2.5 2.47m-4.28-.08h.85v-4.8h-.85zm-3.17 0h.85v-4h1.52v-.78H255v.78h1.52zm-4.59-1.91l.82-1.91.83 1.91zm-1.66 1.91h.86l.49-1.16h2.27l.49 1.16h.89l-2.11-4.83h-.78zm-1.58 0h.84v-4.8h-.84zm-2.74.08a2.48 2.48 0 0 0 1.94-.85l-.54-.55a1.86 1.86 0 0 1-1.38.62 1.61 1.61 0 0 1-1.58-1.7 1.62 1.62 0 0 1 1.58-1.7 1.92 1.92 0 0 1 1.35.6l.54-.62a2.51 2.51 0 0 0-1.88-.75 2.43 2.43 0 0 0-2.47 2.48 2.41 2.41 0 0 0 2.44 2.47m-5.62-.78a1.64 1.64 0 0 1-1.63-1.7 1.62 1.62 0 0 1 1.62-1.7 1.65 1.65 0 0 1 1.63 1.71 1.62 1.62 0 0 1-1.62 1.69m0 .78a2.46 2.46 0 0 0 2.51-2.48 2.51 2.51 0 0 0-5 0 2.43 2.43 0 0 0 2.5 2.47m-4.86 0c1 0 1.71-.54 1.71-1.43 0-.79-.52-1.16-1.54-1.4s-1.14-.39-1.14-.76c0-.32.29-.57.78-.57a2.17 2.17 0 0 1 1.3.49l.46-.63a2.7 2.7 0 0 0-1.75-.61 1.46 1.46 0 0 0-1.63 1.39c0 .88.57 1.18 1.59 1.43s1.09.39 1.09.74c0 .36-.33.6-.85.6a2.22 2.22 0 0 1-1.52-.62l-.51.6a3 3 0 0 0 2 .77m-4.19 0c1 0 1.72-.54 1.72-1.43 0-.79-.52-1.16-1.54-1.4s-1.14-.39-1.14-.76c0-.32.28-.57.78-.57a2.17 2.17 0 0 1 1.3.49l.45-.63a2.65 2.65 0 0 0-1.74-.61 1.47 1.47 0 0 0-1.64 1.39c0 .88.58 1.18 1.6 1.43s1.09.39 1.09.74c0 .36-.33.6-.86.6a2.2 2.2 0 0 1-1.51-.62l-.51.6a2.94 2.94 0 0 0 2 .77m-5.62-2l.82-1.91.83 1.91zm-1.67 1.94h.86l.49-1.16h2.27l.49 1.16h.89l-2.11-4.83h-.78zm-4.08.07c1 0 1.71-.54 1.71-1.43 0-.79-.52-1.16-1.54-1.4s-1.14-.39-1.14-.76c0-.32.29-.57.78-.57a2.17 2.17 0 0 1 1.3.49l.46-.63a2.7 2.7 0 0 0-1.75-.61 1.46 1.46 0 0 0-1.63 1.39c0 .88.57 1.18 1.59 1.43s1.09.39 1.09.74c0 .36-.33.6-.85.6a2.22 2.22 0 0 1-1.52-.62l-.51.6a3 3 0 0 0 2 .77m-6.14-.07h3.59v-.75h-2.75v-1.29H217v-.76h-2.41v-1.24h2.72v-.76h-3.56zm-2.57.07c1 0 1.71-.54 1.71-1.43 0-.79-.52-1.16-1.53-1.4s-1.15-.39-1.15-.76c0-.32.29-.57.78-.57a2.22 2.22 0 0 1 1.31.49l.45-.63a2.67 2.67 0 0 0-1.74-.61 1.47 1.47 0 0 0-1.64 1.39c0 .88.57 1.18 1.6 1.43s1.08.39 1.08.74c0 .36-.33.6-.85.6a2.22 2.22 0 0 1-1.52-.62l-.5.6a2.9 2.9 0 0 0 2 .77m-5.66-2.49v-1.61h1.23c.62 0 1 .28 1 .79 0 .49-.38.8-1 .8zm-.84 2.42h.84v-1.67h1.06l1.18 1.67h1l-1.3-1.82a1.43 1.43 0 0 0 1.14-1.45 1.43 1.43 0 0 0-.4-1 1.94 1.94 0 0 0-1.38-.48h-2.14zm-3.09.08a1.92 1.92 0 0 0 2.07-2.16v-2.72h-.85v2.76c0 .89-.45 1.34-1.2 1.34s-1.22-.48-1.22-1.37v-2.73h-.84v2.76a1.9 1.9 0 0 0 2 2.12m-7.24-.08h.83v-3.41l2.64 3.41h.71v-4.8h-.83v3.32l-2.57-3.32h-.78zm-7.2 0h.87v-3.41l2.64 3.41h.71v-4.8h-.83v3.32l-2.57-3.32h-.78zm-4-1.91l.83-1.91.83 1.91zm-1.66 1.91h.86l.49-1.16h2.27l.49 1.16h.89l-2.11-4.83h-.78zm-2.29.08a2.48 2.48 0 0 0 2-.85l-.54-.55a1.86 1.86 0 0 1-1.38.62 1.61 1.61 0 0 1-1.58-1.7 1.62 1.62 0 0 1 1.58-1.7 1.88 1.88 0 0 1 1.34.6l.55-.62a2.51 2.51 0 0 0-1.88-.75 2.43 2.43 0 0 0-2.48 2.48 2.41 2.41 0 0 0 2.44 2.47m-4.21-.08h.84v-4.8H175zm-4-2.42v-1.61h1.23c.62 0 1 .28 1 .79 0 .49-.38.8-1 .8zm-.84 2.42h.84v-1.67h.98l1.18 1.67h1l-1.3-1.82a1.43 1.43 0 0 0 1.14-1.45 1.43 1.43 0 0 0-.4-1 1.92 1.92 0 0 0-1.38-.48h-2.14zm-4.46 0h3.6v-.75h-2.75v-1.29h2.4v-.76h-2.4v-1.24h2.71v-.76h-3.56zm-5.81 0h.83v-3.43l1.5 2.25 1.51-2.26v3.44h.85v-4.8h-.9l-1.46 2.27-1.46-2.27h-.9zm-4-1.91l.83-1.91.83 1.91zm-1.66 1.91h.75l.5-1.16h2.26l.49 1.16h.89l-2.14-4.83h-.78z" transform="translate(-120.88 -256.4)"/><path class="cls-2" d="M209.72 24.16h-6.84v3.6h6.23v4.74h-6.23v8.46h-5.67V19.42h12.51v4.74zM213.4 19.42h5.68v21.53h-5.68z"/><path class="cls-2" d="M350.5 285.45h1.07a4.24 4.24 0 0 0 2.58-.68 2.34 2.34 0 0 0 .9-2 2.31 2.31 0 0 0-.9-2 4.17 4.17 0 0 0-2.58-.69h-1.07zm12.5 11.91h-7.07l-5.41-8.28v8.28h-5.68v-21.53h8.83a8.64 8.64 0 0 1 3.19.53 5.93 5.93 0 0 1 3.58 3.55 7.27 7.27 0 0 1 .45 2.57 6.28 6.28 0 0 1-1.2 4 6.1 6.1 0 0 1-3.55 2.07zM377.64 281.34a7 7 0 0 0-1.86-1.1 4.88 4.88 0 0 0-1.79-.36 2.91 2.91 0 0 0-1.8.52 1.59 1.59 0 0 0-.69 1.34 1.29 1.29 0 0 0 .35.94 2.89 2.89 0 0 0 .91.64 7.48 7.48 0 0 0 1.27.48c.48.13.94.27 1.41.42a8.8 8.8 0 0 1 4.07 2.45 5.93 5.93 0 0 1 1.29 4 7.64 7.64 0 0 1-.57 3 6.41 6.41 0 0 1-1.65 2.3 7.49 7.49 0 0 1-2.67 1.48 11 11 0 0 1-3.57.53 13.3 13.3 0 0 1-7.68-2.43l2.44-4.55a9.6 9.6 0 0 0 2.52 1.66 6.15 6.15 0 0 0 2.46.54 3 3 0 0 0 2.07-.63 1.91 1.91 0 0 0 .68-1.43 1.86 1.86 0 0 0-.18-.84 1.74 1.74 0 0 0-.57-.66 5.18 5.18 0 0 0-1.06-.55c-.44-.17-1-.36-1.58-.57s-1.45-.48-2.16-.76a6.88 6.88 0 0 1-1.88-1.1 5 5 0 0 1-1.33-1.73 6 6 0 0 1-.51-2.64 7.49 7.49 0 0 1 .54-2.9 6.5 6.5 0 0 1 1.5-2.23 6.83 6.83 0 0 1 2.38-1.44 9.11 9.11 0 0 1 3.14-.51 14.22 14.22 0 0 1 3.39.44 15.32 15.32 0 0 1 3.39 1.3z" transform="translate(-120.88 -256.4)"/><path class="cls-2" d="M272.17 24.16v16.8h-5.68v-16.8h-4.66v-4.74h15v4.74h-4.66zM282.02 38.73h6.02v2.23h-8.46V19.42h2.44v19.31zM290.76 19.42h2.43v21.54h-2.43zM298.06 18.51l17.03 17.59V19.42h2.44v22.51L300.5 24.36v16.6h-2.44V18.51zM322.33 19.42h11.33v2.23h-8.89v6.4h8.63v2.22h-8.63v8.46h8.89v2.23h-11.33V19.42z"/><path class="cls-2" d="M319.8 264.21h.64c2.05 0 4.27-.38 4.27-2.91s-2.39-2.79-4.38-2.79h-.53zm0 8.43h-2v-15.9h2.3c5 0 6.51 1.69 6.51 4.6 0 3.35-2.59 4.64-5.65 4.64h-1.16zM330.81 264.27h.64c2.05 0 4.28-.38 4.28-2.91s-2.4-2.85-4.39-2.85h-.53zm8 8.37h-2.44l-4.75-6.72h-.83v6.72h-2v-15.9h2.44a8.58 8.58 0 0 1 4.25.74 4.48 4.48 0 0 1-1.75 8.25zM354.59 264.69a6.44 6.44 0 0 0-12.87 0 6.44 6.44 0 1 0 12.87 0m2 0a8.45 8.45 0 0 1-16.89 0 8.45 8.45 0 0 1 16.89 0M363.92 256.74v10.1c0 3.06-.6 6.14-4.36 6.14a4.86 4.86 0 0 1-2.53-.69l1-1.69a2.69 2.69 0 0 0 1.6.53c2.31 0 2.27-2.66 2.27-4.29v-10.1z" transform="translate(-120.88 -256.4)"/><path class="cls-2" d="M246.27.34v15.9h8.66v-1.81h-6.65V8.41h6.46V6.6h-6.46V2.15h6.65V.34h-8.66z"/><path class="cls-2" d="M390.46 259.78a6.55 6.55 0 0 0-4.25-1.56 6.48 6.48 0 1 0 4.25 11.3v2.34a8.77 8.77 0 0 1-4.23 1.12 8.3 8.3 0 0 1-8.41-8.2 8.42 8.42 0 0 1 8.58-8.38 7.84 7.84 0 0 1 4.06 1.08z" transform="translate(-120.88 -256.4)"/><path class="cls-2" d="M270.89.34v1.81h3.83v14.09h2.01V2.15h3.83V.34h-9.67z"/><path class="cls-2" d="M320.65 311.8a2.46 2.46 0 0 1 0-4.91 2.51 2.51 0 0 1 1.88.75l-.37.39a2.09 2.09 0 0 0-1.51-.65 1.88 1.88 0 0 0-1.87 2 1.9 1.9 0 0 0 1.87 2 2.11 2.11 0 0 0 1.55-.69l.36.35a2.52 2.52 0 0 1-1.93.83M324.87 307.46h-1.13v3.76h1.13a1.88 1.88 0 1 0 0-3.76m0 4.26h-1.68V307h1.68a2.38 2.38 0 1 1 0 4.75M330.45 311.8a2.46 2.46 0 0 1 0-4.91 2.54 2.54 0 0 1 1.88.75l-.33.36a2.09 2.09 0 0 0-1.51-.65 1.88 1.88 0 0 0-1.87 2 1.9 1.9 0 0 0 1.87 2 2.15 2.15 0 0 0 1.56-.69l.35.35a2.52 2.52 0 0 1-1.92.83M333.12 307.68h-.25V307h.63v.61a.84.84 0 0 1-.76.93l-.08-.24c.34-.12.48-.3.46-.59M336.07 309.09c1.07.23 1.57.61 1.57 1.35s-.69 1.35-1.65 1.35a2.85 2.85 0 0 1-2-.76l.34-.4a2.3 2.3 0 0 0 1.65.68c.65 0 1.07-.34 1.07-.82s-.24-.7-1.25-.91-1.62-.59-1.62-1.38a1.41 1.41 0 0 1 1.59-1.3 2.57 2.57 0 0 1 1.69.58l-.32.42a2.11 2.11 0 0 0-1.39-.52c-.62 0-1 .34-1 .78s.25.7 1.31.93" transform="translate(-120.88 -256.4)"/><path class="cls-2" d="M222.79 50.56h.53v4.75h-.43l-3.11-3.89v3.89h-.53v-4.75h.51l3.03 3.81v-3.81z"/><path class="cls-2" d="M345.41 310.67c0 .45.41.71.9.71a1.07 1.07 0 0 0 1.19-.95v-.34a4 4 0 0 0-1.05-.15c-.67 0-1 .29-1 .73m-.06-1.79l-.16-.43a3.06 3.06 0 0 1 1.29-.29c1 0 1.52.49 1.52 1.41v2.15h-.51v-.53a1.57 1.57 0 0 1-1.29.6 1.19 1.19 0 0 1-1.33-1.1c0-.74.62-1.14 1.53-1.14a3.77 3.77 0 0 1 1.09.15v-.12c0-.63-.39-1-1.06-1a2.49 2.49 0 0 0-1.08.26M349.47 310.72a.53.53 0 0 0 .6.59 1.1 1.1 0 0 0 .51-.13v.45a1.26 1.26 0 0 1-.64.15.9.9 0 0 1-1-1v-2.12h-.5v-.46h.5v-1.06h.53v1.06h1.13v.46h-1.13zM351.24 311.72h.53v-3.51h-.53zm0-4.28h.61v-.58h-.61zM354.29 308.6A1.29 1.29 0 0 0 353 310a1.33 1.33 0 0 0 1.32 1.37 1.3 1.3 0 0 0 1.31-1.35 1.34 1.34 0 0 0-1.33-1.38m0 3.2a1.81 1.81 0 0 1-1.84-1.82 1.84 1.84 0 0 1 1.86-1.85 1.82 1.82 0 0 1 1.85 1.83 1.84 1.84 0 0 1-1.87 1.84M357.31 311.72h-.53v-3.51h.53v.61a1.36 1.36 0 0 1 1.22-.69 1.29 1.29 0 0 1 1.36 1.41v2.18h-.53v-2.05a.94.94 0 0 0-1-1.06 1 1 0 0 0-1.07 1.1zM361 310.67c0 .45.41.71.89.71a1.06 1.06 0 0 0 1.19-.95v-.34a3.9 3.9 0 0 0-1-.15c-.67 0-1 .29-1 .73m-.07-1.79l-.15-.43a3 3 0 0 1 1.29-.29c1 0 1.52.49 1.52 1.41v2.15H363v-.53a1.57 1.57 0 0 1-1.29.6 1.19 1.19 0 0 1-1.33-1.1c0-.74.62-1.14 1.52-1.14a3.79 3.79 0 0 1 1.1.15v-.12c0-.63-.4-1-1.06-1a2.57 2.57 0 0 0-1.09.26" transform="translate(-120.88 -256.4)"/><path class="cls-2" d="M243.5 50.36h.53v4.96h-.53zM248.56 55.31h-.55v-4.25h-1.61v-.5h3.78v.5h-1.62v4.25z"/><path class="cls-2" d="M371.57 311.72H371v-3.51h.53v.92a1.5 1.5 0 0 1 1.45-1v.56a1.42 1.42 0 0 0-1.41 1.61zM373.58 310.67c0 .45.41.71.89.71a1.06 1.06 0 0 0 1.19-.95v-.34a3.9 3.9 0 0 0-1-.15c-.67 0-1 .29-1 .73m-.07-1.79l-.15-.43a3 3 0 0 1 1.29-.29c1 0 1.52.49 1.52 1.41v2.15h-.51v-.53a1.57 1.57 0 0 1-1.29.6 1.19 1.19 0 0 1-1.33-1.1c0-.74.62-1.14 1.52-1.14a3.79 3.79 0 0 1 1.1.15v-.12c0-.63-.4-1-1.06-1a2.57 2.57 0 0 0-1.09.26M377 311.72h.53v-3.51H377zm0-4.28h.61v-.58H377zM379 311.72h-.53v-3.51h.53v.61a1.37 1.37 0 0 1 1.22-.69 1.3 1.3 0 0 1 1.37 1.41v2.18H381v-2.05a.94.94 0 0 0-1-1.06 1 1 0 0 0-1.07 1.1zM382.37 311.72h.53v-3.51h-.53zm0-4.28h.6v-.58h-.6zM384.33 311.72h-.53v-3.51h.53v.61a1.34 1.34 0 0 1 1.22-.69 1.29 1.29 0 0 1 1.36 1.41v2.18h-.53v-2.05a.94.94 0 0 0-1-1.06 1 1 0 0 0-1.06 1.1zM389.26 308.6a1.16 1.16 0 0 0-1.23 1.18 1.2 1.2 0 0 0 1.23 1.21 1.25 1.25 0 0 0 1.31-1.2 1.23 1.23 0 0 0-1.31-1.19m0 4.22a2.81 2.81 0 0 1-1.62-.49l.24-.41a2.25 2.25 0 0 0 1.37.45 1.17 1.17 0 0 0 1.3-1.25v-.41a1.7 1.7 0 0 1-1.4.74 1.66 1.66 0 1 1 0-3.32 1.68 1.68 0 0 1 1.39.71v-.63h.53v2.9a1.61 1.61 0 0 1-1.81 1.71M396 311.8a2.46 2.46 0 0 1 0-4.91 2.51 2.51 0 0 1 1.88.75l-.37.39a2.12 2.12 0 0 0-1.52-.65 2 2 0 0 0 0 3.93 2.12 2.12 0 0 0 1.56-.69l.36.35a2.52 2.52 0 0 1-1.93.83M400 308.6a1.29 1.29 0 0 0-1.3 1.36 1.32 1.32 0 0 0 1.31 1.37 1.3 1.3 0 0 0 1.31-1.35 1.33 1.33 0 0 0-1.32-1.38m0 3.2a1.81 1.81 0 0 1-1.85-1.82 1.84 1.84 0 0 1 1.86-1.85 1.84 1.84 0 1 1 0 3.67" transform="translate(-120.88 -256.4)"/><path class="cls-2" d="M281.61 50.36h.53v4.96h-.53zM283.08 50.36h.53v4.96h-.53z"/><path class="cls-2" d="M405.65 310.67c0 .45.42.71.9.71a1.07 1.07 0 0 0 1.19-.95v-.34a3.92 3.92 0 0 0-1.05-.15c-.66 0-1 .29-1 .73m-.06-1.79l-.16-.43a3.11 3.11 0 0 1 1.3-.29 1.32 1.32 0 0 1 1.51 1.41v2.15h-.51v-.53a1.55 1.55 0 0 1-1.28.6 1.18 1.18 0 0 1-1.33-1.1c0-.74.62-1.14 1.52-1.14a3.72 3.72 0 0 1 1.09.15v-.12c0-.63-.39-1-1.06-1a2.49 2.49 0 0 0-1.08.26M410.83 308.6a1.37 1.37 0 0 0 0 2.73 1.26 1.26 0 0 0 1.26-1.36 1.28 1.28 0 0 0-1.26-1.37m.1 3.19a1.63 1.63 0 0 1-1.37-.74v.67H409v-5h.53v2.16a1.6 1.6 0 0 1 1.37-.79 1.83 1.83 0 0 1 0 3.66M414.9 308.6a1.3 1.3 0 0 0-1.31 1.36 1.33 1.33 0 0 0 1.32 1.37 1.3 1.3 0 0 0 1.31-1.35 1.33 1.33 0 0 0-1.32-1.38m0 3.2a1.81 1.81 0 0 1-1.85-1.82 1.84 1.84 0 0 1 1.86-1.85 1.84 1.84 0 1 1 0 3.67M417.91 311.72h-.53v-3.51h.53v.92a1.5 1.5 0 0 1 1.45-1v.56a1.42 1.42 0 0 0-1.41 1.61zM419.92 310.67c0 .45.41.71.89.71a1.06 1.06 0 0 0 1.19-.95v-.34a3.9 3.9 0 0 0-1-.15c-.67 0-1 .29-1 .73m-.07-1.79l-.15-.43a3 3 0 0 1 1.29-.29c1 0 1.52.49 1.52 1.41v2.15H422v-.53a1.58 1.58 0 0 1-1.29.6 1.19 1.19 0 0 1-1.33-1.1c0-.74.62-1.14 1.52-1.14a3.79 3.79 0 0 1 1.1.15v-.12c0-.63-.4-1-1.06-1a2.57 2.57 0 0 0-1.09.26M424 310.72a.53.53 0 0 0 .6.59 1.14 1.14 0 0 0 .52-.13v.45a1.32 1.32 0 0 1-.64.15.9.9 0 0 1-1-1v-2.12H423v-.46h.49v-1.06h.51v1.06h1.13v.46H424zM425.75 311.72h.53v-3.51h-.53zm0-4.28h.61v-.58h-.61z" transform="translate(-120.88 -256.4)"/><path class="cls-2" d="M308.93 51.8h.57l-1.55 3.54h-.46l-1.55-3.54h.59l1.2 2.92 1.2-2.92z"/><path class="cls-2" d="M433.28 309.77a1.16 1.16 0 0 0-1.14-1.19 1.22 1.22 0 0 0-1.16 1.19zm-1 1.58a1.48 1.48 0 0 0 1.12-.5l.33.29a1.83 1.83 0 0 1-1.47.66 1.84 1.84 0 0 1-.07-3.67 1.68 1.68 0 0 1 1.66 1.87v.16H431a1.25 1.25 0 0 0 1.26 1.19M320.21 316.21v.45h-1.12v3h-.53v-3h-.49v-.46h.49v-.3c0-.77.39-1.18 1.07-1.18a1.66 1.66 0 0 1 .59.09v.45a1.93 1.93 0 0 0-.52-.08c-.41 0-.62.24-.62.74v.29zM322.11 316.58a1.31 1.31 0 0 0-1.31 1.42 1.33 1.33 0 0 0 1.32 1.37 1.31 1.31 0 0 0 1.31-1.36 1.33 1.33 0 0 0-1.32-1.38m0 3.21A1.84 1.84 0 1 1 324 318a1.84 1.84 0 0 1-1.86 1.84M325.12 319.71h-.53v-3.51h.53v.91a1.54 1.54 0 0 1 1.46-1v.57h-.05a1.43 1.43 0 0 0-1.41 1.61z" transform="translate(-120.88 -256.4)"/><path class="cls-2" d="M211.3 58.55v2.11h-2.78v-2.11h-.54v4.75h.54v-2.14h2.78v2.14h.55v-4.75h-.55z"/><path class="cls-2" d="M336.26 317.76a1.16 1.16 0 0 0-1.13-1.2 1.22 1.22 0 0 0-1.16 1.2zm-1 1.57a1.53 1.53 0 0 0 1.13-.49l.33.29a1.86 1.86 0 0 1-1.47.66 1.84 1.84 0 0 1-.07-3.67 1.68 1.68 0 0 1 1.62 1.88.92.92 0 0 1 0 .16H334a1.25 1.25 0 0 0 1.25 1.19M337.66 318.66c0 .45.41.71.89.71a1.07 1.07 0 0 0 1.19-1v-.33a3.53 3.53 0 0 0-1-.15c-.67 0-1 .28-1 .73m-.07-1.79l-.15-.43a2.89 2.89 0 0 1 1.29-.29c1 0 1.52.49 1.52 1.41v2.14h-.51v-.52a1.59 1.59 0 0 1-1.29.6 1.19 1.19 0 0 1-1.33-1.1c0-.75.62-1.14 1.52-1.14a3.79 3.79 0 0 1 1.1.15v-.12c0-.64-.4-1-1.06-1a2.57 2.57 0 0 0-1.09.26" transform="translate(-120.88 -256.4)"/><path class="cls-2" d="M220.21 58.34h.53v4.96h-.53z"/><path class="cls-2" d="M343.23 318.71a.52.52 0 0 0 .6.58 1.06 1.06 0 0 0 .51-.12v.45a1.37 1.37 0 0 1-.64.15.9.9 0 0 1-1-1v-2.11h-.5v-.47h.5v-1.05h.53v1.05h1.13v.47h-1.13zM345.49 319.71H345v-5h.53v2.06a1.34 1.34 0 0 1 1.21-.69 1.29 1.29 0 0 1 1.37 1.41v2.18h-.53v-2.06a.94.94 0 0 0-1-1 1 1 0 0 0-1.06 1.1zM350.46 319.79a1.84 1.84 0 0 1 0-3.67 1.86 1.86 0 0 1 1.42.62l-.35.37a1.45 1.45 0 0 0-1.08-.53 1.31 1.31 0 0 0-1.27 1.37 1.32 1.32 0 0 0 1.31 1.37 1.49 1.49 0 0 0 1.08-.52l.34.31a1.85 1.85 0 0 1-1.45.68M352.72 318.66c0 .45.41.71.89.71a1.07 1.07 0 0 0 1.19-1v-.33a3.53 3.53 0 0 0-1-.15c-.67 0-1 .28-1 .73m-.06-1.79l-.16-.43a2.92 2.92 0 0 1 1.29-.29c1 0 1.52.49 1.52 1.41v2.14h-.51v-.52a1.59 1.59 0 0 1-1.29.6 1.19 1.19 0 0 1-1.33-1.1c0-.75.62-1.14 1.52-1.14a3.79 3.79 0 0 1 1.1.15v-.12c0-.64-.4-1-1.06-1a2.49 2.49 0 0 0-1.08.26M356.62 319.71h-.53v-3.51h.53v.91a1.54 1.54 0 0 1 1.45-1v.57a1.43 1.43 0 0 0-1.41 1.61zM361 317.76a1.16 1.16 0 0 0-1.13-1.2 1.22 1.22 0 0 0-1.16 1.2zm-1 1.57a1.53 1.53 0 0 0 1.13-.49l.33.29a1.86 1.86 0 0 1-1.47.66 1.84 1.84 0 0 1-.07-3.67 1.68 1.68 0 0 1 1.66 1.86.92.92 0 0 1 0 .16h-2.88a1.25 1.25 0 0 0 1.25 1.19" transform="translate(-120.88 -256.4)"/><path class="cls-2" d="M243.1 58.55h.54v4.75h-.54z"/><path class="cls-2" d="M366 319.71h-.53v-3.51h.53v.61a1.37 1.37 0 0 1 1.22-.69 1.29 1.29 0 0 1 1.36 1.41v2.18h-.53v-2.06a.93.93 0 0 0-1-1 1 1 0 0 0-1.07 1.1zM371.26 316.21v.45h-1.12v3h-.53v-3h-.49v-.46h.49v-.3c0-.77.39-1.18 1.07-1.18a1.66 1.66 0 0 1 .59.09v.45a1.93 1.93 0 0 0-.52-.08c-.41 0-.62.24-.62.74v.29zM374.14 317.76a1.17 1.17 0 0 0-1.14-1.2 1.21 1.21 0 0 0-1.15 1.2zm-1 1.57a1.5 1.5 0 0 0 1.12-.49l.33.29a1.84 1.84 0 0 1-1.46.66 1.76 1.76 0 0 1-1.78-1.84 1.74 1.74 0 0 1 1.71-1.83 1.69 1.69 0 0 1 1.66 1.86.92.92 0 0 1 0 .16h-2.82a1.23 1.23 0 0 0 1.25 1.19M376.87 319.79a1.84 1.84 0 0 1 0-3.67 1.86 1.86 0 0 1 1.42.62l-.35.37a1.45 1.45 0 0 0-1.08-.53 1.31 1.31 0 0 0-1.27 1.37 1.32 1.32 0 0 0 1.31 1.37 1.49 1.49 0 0 0 1.08-.52l.34.31a1.85 1.85 0 0 1-1.45.68M379.57 318.71a.52.52 0 0 0 .6.58 1.06 1.06 0 0 0 .51-.12v.45a1.37 1.37 0 0 1-.64.15.9.9 0 0 1-1-1v-2.11h-.5v-.47h.5v-1.05h.53v1.05h1.13v.47h-1.13zM381.34 319.71h.53v-3.51h-.53zm0-4.28h.61v-.58h-.61zM384.39 316.58a1.3 1.3 0 0 0-1.3 1.37 1.33 1.33 0 0 0 1.32 1.37 1.31 1.31 0 0 0 1.31-1.36 1.34 1.34 0 0 0-1.33-1.38m0 3.21a1.84 1.84 0 1 1 1.87-1.84 1.84 1.84 0 0 1-1.87 1.84M387.4 319.71h-.53v-3.51h.53v.61a1.37 1.37 0 0 1 1.22-.69 1.3 1.3 0 0 1 1.37 1.41v2.18h-.53v-2.06a.94.94 0 0 0-1-1 1 1 0 0 0-1.07 1.1zM394.35 315.45h-1.22v2.09h1.2c.79 0 1.32-.42 1.32-1.05s-.52-1-1.3-1m-.05 2.51h-1.17v1.68h-.54V315h1.8c1.09 0 1.81.57 1.81 1.52s-.87 1.56-1.9 1.56M397.29 319.71h-.53v-3.51h.53v.91a1.53 1.53 0 0 1 1.45-1v.57a1.42 1.42 0 0 0-1.41 1.61zM401.66 317.76a1.17 1.17 0 0 0-1.14-1.2 1.21 1.21 0 0 0-1.15 1.2zm-1 1.57a1.5 1.5 0 0 0 1.12-.49l.33.29a1.86 1.86 0 0 1-1.46.66 1.76 1.76 0 0 1-1.78-1.84 1.74 1.74 0 0 1 1.71-1.83 1.69 1.69 0 0 1 1.62 1.88.92.92 0 0 1 0 .16h-2.82a1.23 1.23 0 0 0 1.25 1.19" transform="translate(-120.88 -256.4)"/><path class="cls-2" d="M284.37 59.79l-1.21 2.91-1.2-2.91h-.58l1.54 3.54h.47l1.55-3.54h-.57z"/><path class="cls-2" d="M408.72 317.76a1.17 1.17 0 0 0-1.14-1.2 1.21 1.21 0 0 0-1.15 1.2zm-1 1.57a1.5 1.5 0 0 0 1.12-.49l.33.29a1.86 1.86 0 0 1-1.47.66 1.76 1.76 0 0 1-1.77-1.84 1.74 1.74 0 0 1 1.71-1.83 1.69 1.69 0 0 1 1.66 1.86.92.92 0 0 1 0 .16h-2.82a1.23 1.23 0 0 0 1.25 1.19M410.38 319.71h-.53v-3.51h.53v.61a1.34 1.34 0 0 1 1.22-.69 1.29 1.29 0 0 1 1.36 1.41v2.18h-.53v-2.06a.93.93 0 0 0-1-1 1 1 0 0 0-1.07 1.1zM414.46 318.71a.52.52 0 0 0 .6.58 1.13 1.13 0 0 0 .52-.12v.45a1.44 1.44 0 0 1-.64.15.91.91 0 0 1-1-1v-2.11h-.49v-.47h.49v-1.05h.53v1.05h1.13v.47h-1.13zM416.24 319.71h.53v-3.51h-.53zm0-4.28h.61v-.58h-.61zM419.29 316.58A1.3 1.3 0 0 0 418 318a1.32 1.32 0 0 0 1.31 1.37 1.31 1.31 0 0 0 1.31-1.36 1.33 1.33 0 0 0-1.32-1.38m0 3.21a1.84 1.84 0 1 1 1.87-1.84 1.85 1.85 0 0 1-1.87 1.84M422.31 319.71h-.53v-3.51h.53v.61a1.34 1.34 0 0 1 1.21-.69 1.29 1.29 0 0 1 1.37 1.41v2.18h-.53v-2.06a.94.94 0 0 0-1-1 1 1 0 0 0-1.06 1.1zM429.05 315.31a.69.69 0 0 0-.73.69c0 .29.12.5.49.89.61-.21.93-.49.93-.91a.66.66 0 0 0-.69-.67m-.46 2.08c-.64.23-.92.62-.92 1a.93.93 0 0 0 1 .9 1.65 1.65 0 0 0 1.2-.62zm2.41 2.41l-.76-.77a2.1 2.1 0 0 1-1.58.74 1.37 1.37 0 0 1-1.51-1.33 1.51 1.51 0 0 1 1.16-1.38 1.55 1.55 0 0 1-.48-1.06 1.17 1.17 0 0 1 1.28-1.13 1.11 1.11 0 0 1 1.17 1.08c0 .62-.44 1-1.14 1.24l1.1 1.11a6.63 6.63 0 0 0 .58-1.06l.45.2a7.16 7.16 0 0 1-.7 1.2l.84.85zM435.88 319.79a2.46 2.46 0 0 1 0-4.92 2.56 2.56 0 0 1 1.88.75l-.37.4a2.12 2.12 0 0 0-1.52-.65 2 2 0 0 0 0 3.92 2.1 2.1 0 0 0 1.56-.69l.36.35a2.56 2.56 0 0 1-1.93.84M439.89 316.58a1.3 1.3 0 0 0-1.3 1.37 1.32 1.32 0 0 0 1.31 1.37 1.31 1.31 0 0 0 1.31-1.36 1.33 1.33 0 0 0-1.32-1.38m0 3.21a1.84 1.84 0 1 1 1.86-1.84 1.84 1.84 0 0 1-1.86 1.84M442.9 319.71h-.53v-3.51h.53v.61a1.34 1.34 0 0 1 1.22-.69 1.29 1.29 0 0 1 1.36 1.41v2.18H445v-2.06a.94.94 0 0 0-1-1 1 1 0 0 0-1.06 1.1zM447 318.71a.52.52 0 0 0 .6.58 1.06 1.06 0 0 0 .51-.12v.45a1.37 1.37 0 0 1-.64.15.9.9 0 0 1-1-1v-2.11H446v-.47h.5v-1.05h.5v1.05h1.13v.47H447zM449.25 319.71h-.53v-3.51h.53v.91a1.53 1.53 0 0 1 1.45-1v.57a1.42 1.42 0 0 0-1.41 1.61zM452.63 316.58a1.3 1.3 0 0 0-1.3 1.37 1.33 1.33 0 0 0 1.32 1.37A1.31 1.31 0 0 0 454 318a1.34 1.34 0 0 0-1.33-1.38m0 3.21a1.84 1.84 0 1 1 1.83-1.83 1.84 1.84 0 0 1-1.87 1.84" transform="translate(-120.88 -256.4)"/><path class="cls-2" d="M334.29 58.34h.53v4.96h-.53z"/><path class="cls-3" d="M196.89 46.39h137.38"/></svg>