<svg xmlns="http://www.w3.org/2000/svg" viewBox="0 0 40 40" width="50px" height="50px"><path fill="#98ccfd" d="M17.707 23.25L25.25 15.707 37.985 28.443 31.7 29.7 30.443 35.986z"/><path fill="#4788c7" d="M25.25,16.414l11.722,11.722l-5.043,1.009l-0.654,0.131l-0.131,0.654l-1.009,5.043L18.414,23.25 L25.25,16.414 M25.25,15L17,23.25L30.75,37l1.375-6.875L39,28.75L25.25,15L25.25,15z"/><path fill="#98ccfd" d="M8.3 29.7L2.015 28.443 14.75 15.707 22.293 23.25 9.557 35.986z"/><path fill="#4788c7" d="M14.75,16.414l6.836,6.836L9.864,34.972l-1.009-5.043l-0.131-0.654l-0.654-0.131l-5.043-1.009 L14.75,16.414 M14.75,15L1,28.75l6.875,1.375L9.25,37L23,23.25L14.75,15L14.75,15z"/><g><path fill="#dff0fe" d="M20,30.5c-1.668,0-3.215-0.83-4.139-2.219c-0.165-0.248-0.44-0.396-0.736-0.396h-0.051l-0.126,0.018 c-0.332,0.067-0.669,0.101-1.002,0.101c-1.481,0-2.877-0.667-3.829-1.831c-0.944-1.153-1.315-2.656-1.02-4.123 c0.07-0.357-0.079-0.714-0.38-0.913C7.329,20.215,6.5,18.668,6.5,17s0.829-3.215,2.219-4.138c0.3-0.198,0.449-0.556,0.379-0.91 c-0.296-1.469,0.075-2.972,1.02-4.125c0.952-1.164,2.348-1.831,3.829-1.831c0.333,0,0.67,0.034,1.003,0.101l0.049,0.01l0.127,0.008 c0.296,0,0.571-0.148,0.736-0.395C16.785,4.33,18.332,3.5,20,3.5s3.215,0.83,4.139,2.219c0.165,0.248,0.44,0.396,0.736,0.396h0.051 l0.126-0.018c0.332-0.067,0.669-0.101,1.002-0.101c1.481,0,2.877,0.667,3.829,1.831c0.944,1.153,1.315,2.656,1.02,4.123 c-0.07,0.357,0.079,0.714,0.38,0.913C32.671,13.785,33.5,15.332,33.5,17s-0.829,3.215-2.219,4.138 c-0.3,0.198-0.449,0.556-0.379,0.91c0.296,1.469-0.075,2.971-1.02,4.125c-0.952,1.164-2.348,1.831-3.829,1.831 c-0.332,0-0.67-0.034-1.003-0.101l-0.049-0.01l-0.127-0.008c-0.296,0-0.571,0.148-0.736,0.395C23.215,29.67,21.668,30.5,20,30.5z"/><path fill="#4788c7" d="M20,4c1.523,0,2.879,0.727,3.722,1.996c0.257,0.387,0.689,0.619,1.154,0.619 c0.091,0,0.183-0.009,0.274-0.027c0.3-0.061,0.605-0.091,0.904-0.091c1.331,0,2.586,0.6,3.443,1.647 c0.849,1.037,1.183,2.388,0.916,3.707c-0.112,0.554,0.12,1.115,0.591,1.428C32.273,14.121,33,15.477,33,17 c0,1.523-0.727,2.879-1.996,3.722c-0.471,0.313-0.703,0.873-0.591,1.428c0.266,1.319-0.068,2.67-0.917,3.707 c-0.857,1.047-2.112,1.648-3.442,1.648c-0.3,0-0.604-0.031-0.904-0.091c-0.091-0.018-0.183-0.027-0.274-0.027 c-0.465,0-0.896,0.231-1.154,0.619C22.879,29.273,21.523,30,20,30s-2.879-0.727-3.722-1.996c-0.257-0.387-0.689-0.619-1.154-0.619 c-0.091,0-0.183,0.009-0.274,0.027c-0.3,0.061-0.605,0.091-0.904,0.091c-1.331,0-2.586-0.6-3.443-1.647 c-0.849-1.037-1.183-2.388-0.916-3.707c0.112-0.554-0.12-1.115-0.591-1.428C7.727,19.879,7,18.523,7,17 c0-1.523,0.727-2.879,1.996-3.722c0.471-0.313,0.703-0.873,0.591-1.428c-0.266-1.319,0.068-2.67,0.917-3.707 c0.857-1.047,2.112-1.648,3.443-1.648c0.3,0,0.604,0.031,0.904,0.091c0.091,0.018,0.183,0.027,0.274,0.027 c0.465,0,0.896-0.231,1.154-0.619C17.121,4.727,18.477,4,20,4 M20,3c-1.737,0-3.473,0.814-4.555,2.442 c-0.072,0.109-0.194,0.172-0.321,0.172c-0.025,0-0.051-0.003-0.076-0.008c-0.373-0.075-0.741-0.111-1.102-0.111 c-3.349,0-6.037,3.093-5.339,6.552c0.031,0.154-0.034,0.311-0.164,0.397v0c-3.257,2.163-3.257,6.946,0,9.109 c0.13,0.087,0.195,0.244,0.164,0.397c-0.698,3.46,1.99,6.552,5.339,6.552c0.361,0,0.729-0.036,1.102-0.111 c0.025-0.005,0.051-0.008,0.076-0.008c0.127,0,0.249,0.063,0.321,0.172C16.527,30.186,18.263,31,20,31s3.473-0.814,4.555-2.443 c0.072-0.109,0.194-0.172,0.321-0.172c0.025,0,0.051,0.003,0.076,0.008c0.373,0.075,0.741,0.111,1.102,0.111 c3.349,0,6.037-3.093,5.339-6.552c-0.031-0.154,0.034-0.31,0.164-0.397c3.257-2.163,3.257-6.946,0-9.109v0 c-0.13-0.087-0.195-0.244-0.164-0.397c0.698-3.46-1.99-6.552-5.339-6.552c-0.361,0-0.729,0.036-1.102,0.111 c-0.025,0.005-0.051,0.008-0.076,0.008c-0.127,0-0.249-0.063-0.321-0.172C23.473,3.814,21.737,3,20,3L20,3z"/></g><g><path fill="#b6dcfe" d="M20 8A9 9 0 1 0 20 26A9 9 0 1 0 20 8Z"/></g></svg>