<svg xmlns="http://www.w3.org/2000/svg" viewBox="0 0 40 40" width="50px" height="50px"><path fill="#dff0fe" d="M14.5 7.5H25.5V38.5H14.5z"/><path fill="#4788c7" d="M25,8v30H15V8H25 M26,7H14v32h12V7L26,7z"/><path fill="#4788c7" d="M14.5 11H25.5V12H14.5zM14.5 34H25.5V35H14.5zM20 16L20 16c-.552 0-1 .448-1 1v12c0 .552.448 1 1 1h0c.552 0 1-.448 1-1V17C21 16.448 20.552 16 20 16z"/><path fill="#98ccfd" d="M27.5 1.5H38.5V38.5H27.5z"/><path fill="#4788c7" d="M38,2v36H28V2H38 M39,1H27v38h12V1L39,1z"/><path fill="#4788c7" d="M27.5 5H38.5V6H27.5zM27.5 34H38.5V35H27.5zM33 11L33 11c-.552 0-1 .448-1 1v16c0 .552.448 1 1 1l0 0c.552 0 1-.448 1-1V12C34 11.448 33.552 11 33 11z"/><path fill="#b6dcfe" d="M1.5 1.5H12.5V38.5H1.5z"/><path fill="#4788c7" d="M12,2v36H2V2H12 M13,1H1v38h12V1L13,1z"/><path fill="#4788c7" d="M1.5 5H12.5V6H1.5zM1.5 34H12.5V35H1.5zM7 11L7 11c-.552 0-1 .448-1 1v16c0 .552.448 1 1 1h0c.552 0 1-.448 1-1V12C8 11.448 7.552 11 7 11z"/></svg>