<svg xmlns="http://www.w3.org/2000/svg" viewBox="0 0 40 40" width="50px" height="50px"><path fill="#dff0fe" d="M3.5 8.5H38.5V32.5H3.5z"/><path fill="#4788c7" d="M38,9v23H4V9H38 M39,8H3v25h36V8L39,8z"/><path fill="#dff0fe" d="M2.5,35.5V34c0-0.827,0.673-1.5,1.5-1.5h34c0.827,0,1.5,0.673,1.5,1.5v1.5H2.5z"/><path fill="#4788c7" d="M38,33c0.551,0,1,0.449,1,1v1H3v-1c0-0.551,0.449-1,1-1H38 M38,32H4c-1.105,0-2,0.895-2,2v2h38v-2 C40,32.895,39.105,32,38,32L38,32z"/><path fill="#98ccfd" d="M6 11H36V32H6z"/><path fill="#fff" d="M15 32L9 32 9 29 15 29 16.5 30.5z"/><path fill="#98ccfd" d="M11,25.5C5.21,25.5,0.5,20.79,0.5,15S5.21,4.5,11,4.5S21.5,9.21,21.5,15S16.79,25.5,11,25.5z"/><path fill="#4788c7" d="M11,5c5.514,0,10,4.486,10,10c0,5.514-4.486,10-10,10S1,20.514,1,15C1,9.486,5.486,5,11,5 M11,4 C4.925,4,0,8.925,0,15s4.925,11,11,11s11-4.925,11-11S17.075,4,11,4L11,4z"/><g><path fill="#fff" d="M11 7A8 8 0 1 0 11 23A8 8 0 1 0 11 7Z"/></g><path fill="#4788c7" d="M11 13.625A1.375 1.375 0 1 0 11 16.375A1.375 1.375 0 1 0 11 13.625Z"/><path fill="none" stroke="#4788c7" stroke-linecap="round" stroke-miterlimit="10" d="M12.999 17.499L11 15 12.875 10.001"/></svg>