<svg xmlns="http://www.w3.org/2000/svg" viewBox="0 0 40 40" width="50px" height="50px"><path fill="#dff0fe" d="M1.5 5.5H38.5V34.5H1.5z"/><path fill="#4788c7" d="M38,6v28H2V6H38 M39,5H1v30h38V5L39,5z"/><path fill="#4788c7" d="M30 12H10c-.552 0-1-.448-1-1v0c0-.552.448-1 1-1h20c.552 0 1 .448 1 1v0C31 11.552 30.552 12 30 12zM30.5 15h-21C9.224 15 9 14.776 9 14.5v0C9 14.224 9.224 14 9.5 14h21c.276 0 .5.224.5.5v0C31 14.776 30.776 15 30.5 15z"/><path fill="#98ccfd" d="M19.707 26L23 22.707 27.793 27.5 24.5 27.5 24.5 30.793z"/><path fill="#4788c7" d="M23,23.414L26.586,27H25h-1v1v1.586L20.414,26L23,23.414 M23,22l-4,4l6,6v-4h4L23,22L23,22z"/><path fill="#98ccfd" d="M15.5 27.5L12.207 27.5 17 22.707 20.293 26 15.5 30.793z"/><path fill="#4788c7" d="M17,23.414L19.586,26L16,29.586V28v-1h-1h-1.586L17,23.414 M17,22l-6,6h4v4l6-6L17,22L17,22z"/><path fill="#b6dcfe" d="M20 19.5A3.5 3.5 0 1 0 20 26.5A3.5 3.5 0 1 0 20 19.5Z"/><path fill="#4788c7" d="M20 20c1.654 0 3 1.346 3 3s-1.346 3-3 3-3-1.346-3-3S18.346 20 20 20M20 19c-2.209 0-4 1.791-4 4s1.791 4 4 4 4-1.791 4-4S22.209 19 20 19L20 19zM34 5c0 2.761 2.239 5 5 5V5H34zM6 35c0-2.761-2.239-5-5-5v5H6zM34 35c0-2.761 2.239-5 5-5v5H34zM6 5c0 2.761-2.239 5-5 5V5H6z"/></svg>