<svg xmlns="http://www.w3.org/2000/svg" viewBox="0 0 40 40" width="50px" height="50px"><path fill="#dff0fe" d="M11.5,32.5v-2h-7c-1.103,0-2-0.897-2-2v-20c0-1.103,0.897-2,2-2h31c1.103,0,2,0.897,2,2v20 c0,1.103-0.897,2-2,2h-7v2H11.5z"/><path fill="#4788c7" d="M35.5,7C36.327,7,37,7.673,37,8.5v20c0,0.827-0.673,1.5-1.5,1.5H29h-1v1v1H12v-1v-1h-1H4.5 C3.673,30,3,29.327,3,28.5v-20C3,7.673,3.673,7,4.5,7H35.5 M35.5,6h-31C3.119,6,2,7.119,2,8.5v20C2,29.881,3.119,31,4.5,31H11v2 h18v-2h6.5c1.381,0,2.5-1.119,2.5-2.5v-20C38,7.119,36.881,6,35.5,6L35.5,6z"/><path fill="#b6dcfe" d="M4,33.5c-1.93,0-3.5-1.57-3.5-3.5v-0.5h15.086c0.206,0.582,0.762,1,1.414,1h6 c0.652,0,1.208-0.418,1.414-1H39.5V30c0,1.93-1.57,3.5-3.5,3.5H4z"/><path fill="#4788c7" d="M39 30c0 1.654-1.346 3-3 3H4c-1.654 0-3-1.346-3-3h14.268c.346.597.993 1 1.732 1h6c.739 0 1.385-.403 1.732-1H39M40 29H24c0 .552-.448 1-1 1h-6c-.552 0-1-.448-1-1H0v1c0 2.209 1.791 4 4 4h32c2.209 0 4-1.791 4-4V29L40 29zM17.5 13h-10C7.224 13 7 12.776 7 12.5v0C7 12.224 7.224 12 7.5 12h10c.276 0 .5.224.5.5v0C18 12.776 17.776 13 17.5 13zM17.5 17h-10C7.224 17 7 16.776 7 16.5v0C7 16.224 7.224 16 7.5 16h10c.276 0 .5.224.5.5v0C18 16.776 17.776 17 17.5 17zM17.5 21h-10C7.224 21 7 20.776 7 20.5v0C7 20.224 7.224 20 7.5 20h10c.276 0 .5.224.5.5v0C18 20.776 17.776 21 17.5 21zM17.5 25h-10C7.224 25 7 24.776 7 24.5v0C7 24.224 7.224 24 7.5 24h10c.276 0 .5.224.5.5v0C18 24.776 17.776 25 17.5 25zM32.5 13h-10c-.276 0-.5-.224-.5-.5v0c0-.276.224-.5.5-.5h10c.276 0 .5.224.5.5v0C33 12.776 32.776 13 32.5 13zM32.5 17h-10c-.276 0-.5-.224-.5-.5v0c0-.276.224-.5.5-.5h10c.276 0 .5.224.5.5v0C33 16.776 32.776 17 32.5 17z"/><g><path fill="#4788c7" d="M32.5,21h-10c-0.276,0-0.5-0.224-0.5-0.5v0c0-0.276,0.224-0.5,0.5-0.5h10c0.276,0,0.5,0.224,0.5,0.5 v0C33,20.776,32.776,21,32.5,21z"/></g><g><path fill="#4788c7" d="M28.5,25h-6c-0.276,0-0.5-0.224-0.5-0.5v0c0-0.276,0.224-0.5,0.5-0.5h6c0.276,0,0.5,0.224,0.5,0.5v0 C29,24.776,28.776,25,28.5,25z"/></g></svg>