<svg xmlns="http://www.w3.org/2000/svg" viewBox="0 0 40 40" width="50px" height="50px"><path fill="#fff" d="M2.5 2.5H37.5V37.5H2.5z"/><path fill="#4788c7" d="M37,3v34H3V3H37 M38,2H2v36h36V2L38,2z"/><path fill="#b6dcfe" d="M3 34H37V37H3z"/><path fill="#4788c7" d="M15.729,26.118c0-0.363,0.045-0.715,0.136-1.055s0.228-0.653,0.409-0.94s0.41-0.545,0.686-0.773 s0.598-0.413,0.967-0.554c-0.545-0.305-0.979-0.696-1.301-1.173c-0.322-0.479-0.484-1.007-0.484-1.587 c0-0.463,0.096-0.891,0.286-1.283s0.454-0.732,0.791-1.02s0.733-0.511,1.19-0.673c0.457-0.16,0.955-0.241,1.494-0.241 c0.545,0,1.048,0.082,1.508,0.246s0.858,0.39,1.195,0.677s0.6,0.627,0.787,1.02s0.281,0.817,0.281,1.274 c0,0.58-0.162,1.108-0.484,1.587c-0.322,0.477-0.75,0.868-1.283,1.173c0.363,0.141,0.685,0.323,0.963,0.55 c0.278,0.225,0.512,0.481,0.699,0.769s0.328,0.601,0.422,0.94s0.141,0.694,0.141,1.063c0,0.551-0.104,1.055-0.309,1.512 s-0.492,0.849-0.861,1.173c-0.369,0.326-0.811,0.579-1.326,0.761s-1.084,0.272-1.705,0.272c-0.615,0-1.18-0.091-1.692-0.272 s-0.955-0.435-1.327-0.761c-0.372-0.324-0.662-0.716-0.87-1.173S15.729,26.669,15.729,26.118z M17.715,25.942 c0,0.357,0.053,0.68,0.158,0.967s0.254,0.53,0.447,0.729s0.427,0.352,0.699,0.457s0.576,0.158,0.91,0.158 c0.322,0,0.617-0.055,0.887-0.162c0.27-0.109,0.503-0.264,0.699-0.467c0.196-0.201,0.35-0.445,0.461-0.729 c0.111-0.285,0.168-0.603,0.168-0.954c0-0.322-0.053-0.626-0.158-0.909c-0.105-0.285-0.256-0.532-0.449-0.743 s-0.426-0.378-0.698-0.501s-0.575-0.185-0.909-0.185c-0.316,0-0.611,0.058-0.884,0.171c-0.272,0.115-0.507,0.275-0.703,0.484 c-0.196,0.207-0.351,0.455-0.462,0.742S17.715,25.603,17.715,25.942z M18.145,20.247c0,0.264,0.047,0.509,0.141,0.733 c0.094,0.227,0.221,0.422,0.379,0.59c0.158,0.166,0.344,0.297,0.558,0.391s0.444,0.141,0.69,0.141s0.476-0.049,0.689-0.145 c0.214-0.098,0.401-0.229,0.563-0.396c0.161-0.166,0.289-0.363,0.383-0.588c0.094-0.227,0.141-0.468,0.141-0.726 c0-0.264-0.046-0.51-0.137-0.738s-0.215-0.425-0.373-0.589s-0.346-0.293-0.563-0.387s-0.451-0.141-0.703-0.141 c-0.264,0-0.504,0.049-0.721,0.145c-0.217,0.098-0.403,0.23-0.559,0.4s-0.275,0.367-0.36,0.594 C18.187,19.756,18.145,19.995,18.145,20.247z"/><path fill="#dff0fe" d="M37 7.077L3 7.077 3 13.667 5 13 8 14 11 13 14 14 17 13 20.001 14 23 13 26 14 29 13 32 14 35 13 37 13.667z"/><path fill="#fff" d="M29 10.473L26 11.473 23 10.473 20.001 11.473 17 10.473 14 11.473 11 10.473 8 11.473 5 10.473 2.5 11.307 2.5 5.577 37.5 5.577 37.5 11.307 35 10.473 32 11.473z"/><path fill="#4788c7" d="M37,6.077v4.536l-1.684-0.561L35,9.946l-0.316,0.105L32,10.946l-2.684-0.895L29,9.946 l-0.316,0.105L26,10.946l-2.684-0.895L23,9.946l-0.316,0.105l-2.683,0.895l-2.684-0.895L17,9.946l-0.316,0.105L14,10.946 l-2.684-0.895L11,9.946l-0.316,0.105L8,10.946l-2.684-0.895L5,9.946l-0.316,0.105L3,10.613V6.077H37 M38,5.077H2V12l3-1l3,1l3-1 l3,1l3-1l3.001,1L23,11l3,1l3-1l3,1l3-1l3,1V5.077L38,5.077z"/><g><path fill="#b6dcfe" d="M2.5 2.5H37.5V7.5H2.5z"/><path fill="#4788c7" d="M37,3v4H3V3H37 M38,2H2v6h36V2L38,2z"/></g></svg>