<svg xmlns="http://www.w3.org/2000/svg" viewBox="0 0 40 40" width="50px" height="50px"><path fill="#4788c7" d="M5,30H4c0,0,0-12.475,0-13.535C4,15.59,5,15.553,5,16C5,16.496,5,30,5,30z"/><path fill="#98ccfd" d="M4.5,35.564c-0.907-1.827-2-4.282-2-5.064c0-1.103,0.897-2,2-2s2,0.897,2,2 C6.5,31.282,5.407,33.737,4.5,35.564z"/><path fill="#4788c7" d="M4.5,29C5.327,29,6,29.673,6,30.5c0,0.519-0.68,2.195-1.5,3.922C3.68,32.695,3,31.02,3,30.5 C3,29.673,3.673,29,4.5,29 M4.5,28C3.119,28,2,29.119,2,30.5s2.5,6.167,2.5,6.167S7,31.881,7,30.5S5.881,28,4.5,28L4.5,28z"/><path fill="#b6dcfe" d="M1.182 16.333L20 7.552 38.818 16.333 20 25.115z"/><path fill="#4788c7" d="M20,8.104l17.635,8.23L20,24.563l-17.635-8.23L20,8.104 M20,7L0,16.333l20,9.333l20-9.333L20,7 L20,7z"/><g><path fill="#dff0fe" d="M9.5,24.5V17c0-1.02,4.09-2.5,10.5-2.5s10.5,1.48,10.5,2.5v7.5H9.5z"/><path fill="#4788c7" d="M20,15c6.043,0,9.727,1.33,10,2v7H9.999l-0.005-6.958C10.273,16.33,13.957,15,20,15 M20,14 c-6.075,0-11,1.343-11,3c0,0.547,0,7.453,0,8h22c0-0.547,0-7.453,0-8C31,15.343,26.075,14,20,14L20,14z"/></g><g><path fill="#98ccfd" d="M20,27.5c-6.41,0-10.5-1.48-10.5-2.5s4.09-2.5,10.5-2.5s10.5,1.48,10.5,2.5S26.41,27.5,20,27.5z"/><path fill="#4788c7" d="M20,23c5.926,0,9.582,1.278,9.986,2c-0.404,0.722-4.06,2-9.986,2c-5.926,0-9.582-1.278-9.986-2 C10.418,24.278,14.074,23,20,23 M20,22c-6.075,0-11,1.343-11,3s4.925,3,11,3s11-1.343,11-3S26.075,22,20,22L20,22z"/></g></svg>