<svg xmlns="http://www.w3.org/2000/svg" viewBox="0 0 40 40" width="50px" height="50px"><path fill="#b6dcfe" d="M6.5,37.5v-35H35c0.275,0,0.5,0.224,0.5,0.5v34c0,0.276-0.225,0.5-0.5,0.5H6.5z"/><path fill="#4788c7" d="M35,3v34H7V3H35 M35,2H6v36h29c0.552,0,1-0.448,1-1V3C36,2.448,35.552,2,35,2L35,2z"/><path fill="#98ccfd" d="M5,37.5c-0.275,0-0.5-0.224-0.5-0.5V3c0-0.276,0.225-0.5,0.5-0.5h3.5v35H5z"/><path fill="#4788c7" d="M8,3v34H5V3H8 M9,2H5C4.448,2,4,2.448,4,3v34c0,0.552,0.448,1,1,1h4V2L9,2z"/><path fill="#fff" d="M21.99 11A9 9 0 1 0 21.99 29A9 9 0 1 0 21.99 11Z"/><path fill="#4788c7" d="M22,26L22,26c-0.55,0-1-0.45-1-1V15c0-0.55,0.45-1,1-1h0c0.55,0,1,0.45,1,1v10 C23,25.55,22.55,26,22,26z"/><path fill="#4788c7" d="M27,21H17c-0.55,0-1-0.45-1-1v0c0-0.55,0.45-1,1-1h10c0.55,0,1,0.45,1,1v0C28,20.55,27.55,21,27,21z"/></svg>