<svg xmlns="http://www.w3.org/2000/svg" viewBox="0 0 40 40" width="50px" height="50px"><path fill="#dff0fe" d="M2.5 38.5L2.5 10.267 19.997 3.536 37.5 10.267 37.5 38.5z"/><path fill="#4788c7" d="M19.997,4.071L37,10.61V38H3V10.61L19.997,4.071 M19.997,3L2,9.923V39h36V9.923L19.997,3L19.997,3z"/><path fill="#98ccfd" d="M19.997 5.457L1.5 13.247 1.5 9.332 19.997 1.543 38.5 9.332 38.5 13.247z"/><path fill="#4788c7" d="M19.997,2.085L38,9.664v2.83L20.385,5.078l-0.388-0.163l-0.388,0.163L2,12.494v-2.83L19.997,2.085 M19.997,1L1,9v5l18.997-8L39,14V9L19.997,1L19.997,1z"/><g><path fill="#fff" d="M18.5 30.5L18.5 24.5 12.5 24.5 12.5 21.5 18.5 21.5 18.5 15.5 21.5 15.5 21.5 21.5 27.5 21.5 27.5 24.5 21.5 24.5 21.5 30.5z"/><path fill="#4788c7" d="M21,16v5v1h1h5v2h-5h-1v1v5h-2v-5v-1h-1h-5v-2h5h1v-1v-5H21 M22,15h-4v6h-6v4h6v6h4v-6h6v-4h-6V15 L22,15z"/></g></svg>