<svg xmlns="http://www.w3.org/2000/svg" viewBox="0 0 40 40" width="50px" height="50px"><path fill="none" stroke="#4788c7" stroke-miterlimit="10" d="M6.5,11.179V8.464c0-3.004,2.425-5.444,5.429-5.462h0"/><path fill="#4788c7" d="M12,0.999C11.765,0.999,12.235,0.999,12,0.999c-1.105,0-2,0.895-2,2s0.895,2,2,2c0.235,0-0.235,0,0,0 c1.105,0,2-0.895,2-2S13.105,0.999,12,0.999z"/><path fill="#b6dcfe" d="M9.647 25.5L4.798 15.5 35.202 15.5 30.353 25.5z"/><path fill="#4788c7" d="M34.404,16l-4.364,9H9.96l-4.364-9H34.404 M36,15H4l5.333,11h21.333L36,15L36,15z"/><path fill="#dff0fe" d="M20 29.5A4.5 4.5 0 1 0 20 38.5A4.5 4.5 0 1 0 20 29.5Z"/><path fill="#4788c7" d="M20,30c2.206,0,4,1.794,4,4s-1.794,4-4,4s-4-1.794-4-4S17.794,30,20,30 M20,29c-2.761,0-5,2.239-5,5 c0,2.761,2.239,5,5,5s5-2.239,5-5C25,31.239,22.761,29,20,29L20,29z"/><path fill="#dff0fe" d="M34 29.5A4.5 4.5 0 1 0 34 38.5A4.5 4.5 0 1 0 34 29.5Z"/><path fill="#4788c7" d="M34,30c2.206,0,4,1.794,4,4s-1.794,4-4,4s-4-1.794-4-4S31.794,30,34,30 M34,29c-2.761,0-5,2.239-5,5 c0,2.761,2.239,5,5,5s5-2.239,5-5C39,31.239,36.761,29,34,29L34,29z"/><g><path fill="#dff0fe" d="M6 29.5A4.5 4.5 0 1 0 6 38.5A4.5 4.5 0 1 0 6 29.5Z"/><path fill="#4788c7" d="M6,30c2.206,0,4,1.794,4,4s-1.794,4-4,4c-2.206,0-4-1.794-4-4S3.794,30,6,30 M6,29 c-2.761,0-5,2.239-5,5c0,2.761,2.239,5,5,5c2.761,0,5-2.239,5-5C11,31.239,8.761,29,6,29L6,29z"/></g><g><path fill="#dff0fe" d="M2.5 11.5H37.5V15.5H2.5z"/><path fill="#4788c7" d="M37,12v3H3v-3H37 M38,11H2v5h36V11L38,11z"/></g></svg>