<svg xmlns="http://www.w3.org/2000/svg" viewBox="0 0 40 40" width="50px" height="50px"><path fill="#b6dcfe" d="M20,36.5c-0.707,0-1.364-0.297-1.851-0.835L18.001,35.5H1.333c-0.459,0-0.833-0.374-0.833-0.833 V8.333C0.5,7.874,0.874,7.5,1.333,7.5h37.334c0.459,0,0.833,0.374,0.833,0.833v26.334c0,0.459-0.374,0.833-0.833,0.833H21.999 l-0.148,0.165C21.364,36.203,20.707,36.5,20,36.5z"/><path fill="#4788c7" d="M38.667,8C38.85,8,39,8.15,39,8.333v26.333C39,34.85,38.85,35,38.667,35H22.221h-0.445 l-0.298,0.331C21.09,35.762,20.565,36,20,36s-1.09-0.238-1.478-0.669L18.224,35h-0.445H1.333C1.15,35,1,34.85,1,34.667V8.333 C1,8.15,1.15,8,1.333,8H38.667 M38.667,7H1.333C0.597,7,0,7.597,0,8.333v26.333C0,35.403,0.597,36,1.333,36h16.445 c0.549,0.61,1.336,1,2.221,1s1.672-0.39,2.221-1h16.445C39.403,36,40,35.403,40,34.667V8.333C40,7.597,39.403,7,38.667,7L38.667,7 z"/><path fill="#fff" d="M19.45,33.5c-0.232-1.14-1.243-2-2.45-2H3.5v-27h13.833c1.215,0,2.284,1.155,2.295,1.167l0.37,0.413 l0.374-0.412c0.01-0.012,1.069-1.168,2.295-1.168H36.5v27H23c-1.207,0-2.218,0.86-2.45,2H19.45z"/><path fill="#4788c7" d="M36,5v26H23c-1.304,0-2.416,0.836-2.829,2h-0.343c-0.413-1.164-1.525-2-2.829-2H4V5h13.333 c0.827,0,1.67,0.725,1.922,1l0.741,0.82l0.746-0.817C20.997,5.725,21.839,5,22.667,5H36 M37,4H22.667C21.194,4,20,5.333,20,5.333 S18.806,4,17.333,4H3v28h14c1.105,0,2,0.895,2,2h2c0-1.105,0.895-2,2-2h14V4L37,4z"/><path fill="#dff0fe" d="M22.667,5c-0.982,0-1.913,0.99-1.922,1L20,6.832V33h0.171c0.413-1.164,1.525-2,2.829-2h13V5H22.667z"/><path fill="#4788c7" d="M16.5 18h-9C7.224 18 7 17.776 7 17.5v0C7 17.224 7.224 17 7.5 17h9c.276 0 .5.224.5.5v0C17 17.776 16.776 18 16.5 18zM16.5 10h-9C7.224 10 7 9.776 7 9.5v0C7 9.224 7.224 9 7.5 9h9C16.776 9 17 9.224 17 9.5v0C17 9.776 16.776 10 16.5 10zM16.5 14h-9C7.224 14 7 13.776 7 13.5v0C7 13.224 7.224 13 7.5 13h9c.276 0 .5.224.5.5v0C17 13.776 16.776 14 16.5 14zM16.5 22h-9C7.224 22 7 21.776 7 21.5v0C7 21.224 7.224 21 7.5 21h9c.276 0 .5.224.5.5v0C17 21.776 16.776 22 16.5 22zM32.5 18h-9c-.276 0-.5-.224-.5-.5v0c0-.276.224-.5.5-.5h9c.276 0 .5.224.5.5v0C33 17.776 32.776 18 32.5 18zM32.5 22h-9c-.276 0-.5-.224-.5-.5v0c0-.276.224-.5.5-.5h9c.276 0 .5.224.5.5v0C33 21.776 32.776 22 32.5 22zM32.5 10h-9C23.224 10 23 9.776 23 9.5v0C23 9.224 23.224 9 23.5 9h9C32.776 9 33 9.224 33 9.5v0C33 9.776 32.776 10 32.5 10zM32.5 14h-9c-.276 0-.5-.224-.5-.5v0c0-.276.224-.5.5-.5h9c.276 0 .5.224.5.5v0C33 13.776 32.776 14 32.5 14zM28.5 26h-5c-.276 0-.5-.224-.5-.5v0c0-.276.224-.5.5-.5h5c.276 0 .5.224.5.5v0C29 25.776 28.776 26 28.5 26zM16.5 26h-9C7.224 26 7 25.776 7 25.5v0C7 25.224 7.224 25 7.5 25h9c.276 0 .5.224.5.5v0C17 25.776 16.776 26 16.5 26z"/></svg>