<svg xmlns="http://www.w3.org/2000/svg" viewBox="0 0 40 40" width="50px" height="50px"><path fill="#98CCFD" d="M4,32.5c-1.379,0-2.5-1.122-2.5-2.5V10c0-1.378,1.121-2.5,2.5-2.5h32c1.379,0,2.5,1.122,2.5,2.5v20 c0,1.378-1.121,2.5-2.5,2.5H4z"/><path fill="#4788C7" d="M36,8c1.103,0,2,0.897,2,2v20c0,1.103-0.897,2-2,2H4c-1.103,0-2-0.897-2-2V10c0-1.103,0.897-2,2-2H36 M36,7 H4c-1.657,0-3,1.343-3,3v20c0,1.657,1.343,3,3,3h32c1.657,0,3-1.343,3-3V10C39,8.343,37.657,7,36,7L36,7z"/><path fill="none" stroke="#4788C7" stroke-linecap="round" stroke-miterlimit="10" d="M24.5 25.5L34.5 25.5M24.5 28.5L30.5 28.5"/><path fill="#FFF" d="M13.465 25.246L8.191 28 9.179 22.133 4.93 17.967 10.818 17.095 13.465 11.768 16.112 17.095 22 17.967 17.751 22.133 18.74 28z"/></svg>