<svg xmlns="http://www.w3.org/2000/svg" viewBox="0 0 40 40" width="50px" height="50px"><path fill="none" stroke="#4788c7" stroke-miterlimit="10" stroke-width="2" d="M14.991,30c-4.95,0-9-3.821-9-8.491l0-0.018 c0-4.67,4.05-8.491,9-8.491"/><path fill="#98ccfd" d="M15.818,16.5c-1.83,0-3.318-1.57-3.318-3.5s1.489-3.5,3.318-3.5h6.363c1.83,0,3.318,1.57,3.318,3.5 s-1.489,3.5-3.318,3.5H15.818z"/><path fill="#4788c7" d="M22.182,10C23.736,10,25,11.346,25,13s-1.264,3-2.818,3h-6.364C14.264,16,13,14.654,13,13 s1.264-3,2.818-3H22.182 M22.182,9h-6.364C13.718,9,12,10.8,12,13s1.718,4,3.818,4h6.364c2.1,0,3.818-1.8,3.818-4 C26,10.8,24.282,9,22.182,9L22.182,9z"/><path fill="#98ccfd" d="M16.5 28.5H31.5V31.5H16.5z"/><path fill="#4788c7" d="M31,29v2H17v-2H31 M32,28H16v4h16V28L32,28z"/><path fill="#dff0fe" d="M23.5 1.5H28.5V24.5H23.5z"/><path fill="#4788c7" d="M28,2v22h-4V2H28 M29,1h-6v24h6V1L29,1z"/><path fill="#b6dcfe" d="M22,20.5c-0.276,0-0.5-0.225-0.5-0.5V5.5h9V20c0,0.275-0.224,0.5-0.5,0.5H22z"/><path fill="#4788c7" d="M30 6v14h-8V6H30M31 5H21v15c0 .552.448 1 1 1h8c.552 0 1-.448 1-1V5L31 5zM30.5 2h-9C21.224 2 21 1.776 21 1.5v0C21 1.224 21.224 1 21.5 1h9C30.776 1 31 1.224 31 1.5v0C31 1.776 30.776 2 30.5 2z"/><path fill="#fff" d="M16 12A1 1 0 1 0 16 14A1 1 0 1 0 16 12Z"/><g><path fill="#b6dcfe" d="M7.003,35.5l6.933-9.199c0.361-0.505,0.948-0.801,1.579-0.801h0.252c0.63,0,1.218,0.296,1.571,0.791 l6.94,9.209H7.003z"/><path fill="#4788c7" d="M15.767,26c0.476,0,0.901,0.212,1.18,0.602L23.275,35H8.006l6.344-8.418 C14.614,26.212,15.038,26,15.514,26H15.767 M15.767,25h-0.252c-0.785,0-1.522,0.362-1.978,1L6,36h19.281l-7.536-10 C17.288,25.362,16.552,25,15.767,25L15.767,25z"/></g><g><path fill="#4788c7" d="M15.569 28A1.5 1.5 0 1 0 15.569 31A1.5 1.5 0 1 0 15.569 28Z"/></g><g><path fill="#dff0fe" d="M5.5,38.5V37c0-1.379,1.122-2.5,2.5-2.5h24c1.378,0,2.5,1.121,2.5,2.5v1.5H5.5z"/><path fill="#4788c7" d="M32,35c1.103,0,2,0.897,2,2v1H6v-1c0-1.103,0.897-2,2-2H32 M32,34H8c-1.657,0-3,1.343-3,3v2h30v-2 C35,35.343,33.657,34,32,34L32,34z"/></g></svg>