<svg xmlns="http://www.w3.org/2000/svg" viewBox="0 0 40 40" width="50px" height="50px"><path fill="#b6dcfe" d="M20,26.5c-5.238,0-9.5-4.262-9.5-9.5s4.262-9.5,9.5-9.5s9.5,4.262,9.5,9.5S25.238,26.5,20,26.5z"/><path fill="#4788c7" d="M20,8c4.963,0,9,4.037,9,9s-4.037,9-9,9s-9-4.037-9-9S15.037,8,20,8 M20,7c-5.523,0-10,4.477-10,10 s4.477,10,10,10s10-4.477,10-10S25.523,7,20,7L20,7z"/><path fill="#dff0fe" d="M10.5 17.5H29.5V24.5H10.5z"/><path fill="#4788c7" d="M29,18v6H11v-6H29 M30,17H10v8h20V17L30,17z"/><path fill="#dff0fe" d="M1.5 24.5H38.5V38.5H1.5z"/><path fill="#4788c7" d="M38,25v13H2V25H38 M39,24H1v15h38V24L39,24z"/><path fill="#98ccfd" d="M15 24h-2l0-3c0-.552.448-1 1-1h0c.552 0 1 .448 1 1L15 24zM19 24h-2v-3c0-.552.448-1 1-1h0c.552 0 1 .448 1 1V24zM23 24h-2v-3c0-.552.448-1 1-1h0c.552 0 1 .448 1 1V24zM27 24h-2v-3c0-.552.448-1 1-1h0c.552 0 1 .448 1 1V24zM33 34H35V38H33zM33 27H35V31H33zM29 34H31V38H29zM29 27H31V31H29zM25 34H27V38H25zM25 27H27V31H25zM21 34H23V38H21zM21 27H23V31H21zM17 34H19V38H17zM17 27H19V31H17zM13 34H15V38H13zM13 27H15V31H13zM9 34H11V38H9zM9 27H11V31H9z"/><g><path fill="#98ccfd" d="M5 34H7V38H5z"/></g><g><path fill="#98ccfd" d="M5 27H7V31H5z"/></g><g><path fill="#98ccfd" d="M25.503,5.5c-0.543,0-1.111-0.209-1.768-0.452c-0.843-0.312-1.872-0.691-3.235-0.769V1.516 c1.161,0.074,2.062,0.396,2.868,0.685c0.73,0.261,1.419,0.508,2.149,0.508c0.673,0,1.318-0.213,1.983-0.661v2.498 C26.555,5.388,25.938,5.5,25.503,5.5z"/><path fill="#4788c7" d="M21,2.068c0.837,0.116,1.526,0.363,2.199,0.603c0.772,0.276,1.501,0.537,2.318,0.537 c0.507,0,0.997-0.102,1.483-0.313v1.421C26.279,4.915,25.825,5,25.503,5c-0.454,0-0.957-0.186-1.594-0.421 C23.131,4.291,22.202,3.948,21,3.818V2.068 M28,1c-0.963,0.906-1.735,1.209-2.483,1.209C24.021,2.208,22.624,1,20,1v3.765 C22.667,4.765,24.021,6,25.503,6C26.243,6,27.016,5.691,28,4.765V1L28,1z"/></g></svg>