<svg xmlns="http://www.w3.org/2000/svg" viewBox="0 0 40 40" width="50px" height="50px"><path fill="#b6dcfe" d="M20,35.5c-0.707,0-1.364-0.297-1.851-0.835L18.001,34.5H1.333c-0.459,0-0.833-0.374-0.833-0.833 V8.333C0.5,7.874,0.874,7.5,1.333,7.5h37.334c0.459,0,0.833,0.374,0.833,0.833v25.334c0,0.459-0.374,0.833-0.833,0.833H21.999 l-0.148,0.165C21.364,35.203,20.707,35.5,20,35.5z"/><path fill="#4788c7" d="M38.667,8C38.85,8,39,8.15,39,8.333v25.333C39,33.85,38.85,34,38.667,34H22.221h-0.445 l-0.298,0.331C21.09,34.762,20.565,35,20,35s-1.09-0.238-1.478-0.669L18.224,34h-0.445H1.333C1.15,34,1,33.85,1,33.667V8.333 C1,8.15,1.15,8,1.333,8H38.667 M38.667,7H1.333C0.597,7,0,7.597,0,8.333v25.333C0,34.403,0.597,35,1.333,35h16.445 c0.549,0.61,1.336,1,2.221,1s1.672-0.39,2.221-1h16.445C39.403,35,40,34.403,40,33.667V8.333C40,7.597,39.403,7,38.667,7L38.667,7 z"/><path fill="#fff" d="M19.45,33.5c-0.232-1.14-1.243-2-2.45-2H3.5v-27h13.833c1.215,0,2.284,1.155,2.295,1.167l0.37,0.413 l0.374-0.412c0.01-0.012,1.069-1.168,2.295-1.168H36.5v27H23c-1.207,0-2.218,0.86-2.45,2H19.45z"/><path fill="#4788c7" d="M36,5v26H23c-1.304,0-2.416,0.836-2.829,2h-0.343c-0.413-1.164-1.525-2-2.829-2H4V5h13.333 c0.827,0,1.67,0.725,1.922,1L20,6.832L20.745,6c0.009-0.01,0.94-1,1.922-1H36 M37,4H22.667C21.194,4,20,5.333,20,5.333 S18.806,4,17.333,4H3v28h14c1.105,0,2,0.895,2,2h2c0-1.105,0.895-2,2-2h14V4L37,4z"/><path fill="#dff0fe" d="M22.667,5c-0.982,0-1.913,0.99-1.922,1L20,6.832V33h0.171c0.413-1.164,1.525-2,2.829-2h13V5H22.667z"/><path fill="#4788c7" d="M11.5 10h-5C6.225 10 6 9.775 6 9.5v0C6 9.225 6.225 9 6.5 9h5C11.775 9 12 9.225 12 9.5v0C12 9.775 11.775 10 11.5 10zM11.5 14h-5C6.225 14 6 13.775 6 13.5v0C6 13.225 6.225 13 6.5 13h5c.275 0 .5.225.5.5v0C12 13.775 11.775 14 11.5 14zM11.5 18h-5C6.225 18 6 17.775 6 17.5l0 0C6 17.225 6.225 17 6.5 17h5c.275 0 .5.225.5.5l0 0C12 17.775 11.775 18 11.5 18zM11.5 22h-5C6.225 22 6 21.775 6 21.5l0 0C6 21.225 6.225 21 6.5 21h5c.275 0 .5.225.5.5l0 0C12 21.775 11.775 22 11.5 22zM11.5 26h-5C6.225 26 6 25.775 6 25.5l0 0C6 25.225 6.225 25 6.5 25h5c.275 0 .5.225.5.5l0 0C12 25.775 11.775 26 11.5 26zM14.5 10L14.5 10C14.225 10 14 9.775 14 9.5v0C14 9.225 14.225 9 14.5 9h0C14.775 9 15 9.225 15 9.5v0C15 9.775 14.775 10 14.5 10zM14.5 14L14.5 14c-.275 0-.5-.225-.5-.5v0c0-.275.225-.5.5-.5h0c.275 0 .5.225.5.5v0C15 13.775 14.775 14 14.5 14zM14.5 22L14.5 22c-.275 0-.5-.225-.5-.5l0 0c0-.275.225-.5.5-.5h0c.275 0 .5.225.5.5l0 0C15 21.775 14.775 22 14.5 22zM16.5 10L16.5 10C16.225 10 16 9.775 16 9.5v0C16 9.225 16.225 9 16.5 9l0 0C16.775 9 17 9.225 17 9.5v0C17 9.775 16.775 10 16.5 10zM16.5 14L16.5 14c-.275 0-.5-.225-.5-.5v0c0-.275.225-.5.5-.5l0 0c.275 0 .5.225.5.5v0C17 13.775 16.775 14 16.5 14zM16.5 18L16.5 18c-.275 0-.5-.225-.5-.5l0 0c0-.275.225-.5.5-.5l0 0c.275 0 .5.225.5.5l0 0C17 17.775 16.775 18 16.5 18zM16.5 22L16.5 22c-.275 0-.5-.225-.5-.5l0 0c0-.275.225-.5.5-.5l0 0c.275 0 .5.225.5.5l0 0C17 21.775 16.775 22 16.5 22zM16.5 26L16.5 26c-.275 0-.5-.225-.5-.5l0 0c0-.275.225-.5.5-.5l0 0c.275 0 .5.225.5.5l0 0C17 25.775 16.775 26 16.5 26zM28.5 10h-5C23.225 10 23 9.775 23 9.5v0C23 9.225 23.225 9 23.5 9h5C28.775 9 29 9.225 29 9.5v0C29 9.775 28.775 10 28.5 10zM28.5 14h-5c-.275 0-.5-.225-.5-.5v0c0-.275.225-.5.5-.5h5c.275 0 .5.225.5.5v0C29 13.775 28.775 14 28.5 14zM33.5 10L33.5 10C33.225 10 33 9.775 33 9.5v0C33 9.225 33.225 9 33.5 9l0 0C33.775 9 34 9.225 34 9.5v0C34 9.775 33.775 10 33.5 10zM33.5 14L33.5 14c-.275 0-.5-.225-.5-.5v0c0-.275.225-.5.5-.5l0 0c.275 0 .5.225.5.5v0C34 13.775 33.775 14 33.5 14zM33.5 18L33.5 18c-.275 0-.5-.225-.5-.5l0 0c0-.275.225-.5.5-.5l0 0c.275 0 .5.225.5.5l0 0C34 17.775 33.775 18 33.5 18z"/><g><path fill="#4788c7" d="M31.5 10L31.5 10C31.225 10 31 9.775 31 9.5v0C31 9.225 31.225 9 31.5 9l0 0C31.775 9 32 9.225 32 9.5v0C32 9.775 31.775 10 31.5 10zM31.5 14L31.5 14c-.275 0-.5-.225-.5-.5v0c0-.275.225-.5.5-.5l0 0c.275 0 .5.225.5.5v0C32 13.775 31.775 14 31.5 14z"/></g><path fill="#4788c7" d="M28.5,18h-5c-0.275,0-0.5-0.225-0.5-0.5l0,0c0-0.275,0.225-0.5,0.5-0.5h5c0.275,0,0.5,0.225,0.5,0.5 l0,0C29,17.775,28.775,18,28.5,18z"/></svg>