<svg xmlns="http://www.w3.org/2000/svg" viewBox="0 0 40 40" width="50px" height="50px"><path fill="#b6dcfe" d="M28.2 5.988H35.167V10.645H28.2z" transform="rotate(-45.001 31.686 8.317)"/><path fill="#4788c7" d="M32.5,4.914L35.086,7.5l-4.219,4.219l-2.586-2.586L32.5,4.914 M32.5,3.5l-5.633,5.633l4,4L36.5,7.5 L32.5,3.5L32.5,3.5z"/><path fill="#dff0fe" d="M12.974 11.81H33.093V22.124000000000002H12.974z" transform="rotate(-45.001 23.034 16.967)"/><path fill="#4788c7" d="M26.5 6.914l6.586 6.586L19.567 27.019l-6.586-6.586L26.5 6.914M26.5 5.5L11.567 20.433l8 8L34.5 13.5 26.5 5.5 26.5 5.5zM2 39L2 37 11 28 12 29z"/><path fill="#98ccfd" d="M11.207 29.5L10.5 28.793 10.5 22.207 13 19.707 20.293 27 17.793 29.5z"/><path fill="#4788c7" d="M13 20.414L19.586 27l-2 2h-6.172L11 28.586v-6.172L13 20.414M13 19l-3 3v7l1 1h7l3-3L13 19 13 19zM37.793 10.793l-8.586-8.586c-.276-.276-.276-.724 0-1l0 0c.276-.276.724-.276 1 0l8.586 8.586c.276.276.276.724 0 1v0C38.517 11.069 38.069 11.069 37.793 10.793z"/><g><path fill="#4788c7" d="M24.793,13.793L22,11c-0.276-0.276-0.276-0.724,0-1v0c0.276-0.276,0.724-0.276,1,0l2.793,2.793 c0.276,0.276,0.276,0.724,0,1l0,0C25.517,14.069,25.069,14.069,24.793,13.793z"/></g><g><path fill="#4788c7" d="M21.793,16.793L19,14c-0.276-0.276-0.276-0.724,0-1v0c0.276-0.276,0.724-0.276,1,0l2.793,2.793 c0.276,0.276,0.276,0.724,0,1l0,0C22.517,17.069,22.069,17.069,21.793,16.793z"/></g><g><path fill="#4788c7" d="M18.793,19.793L16,17c-0.276-0.276-0.276-0.724,0-1l0,0c0.276-0.276,0.724-0.276,1,0l2.793,2.793 c0.276,0.276,0.276,0.724,0,1l0,0C19.517,20.069,19.069,20.069,18.793,19.793z"/></g></svg>