<svg xmlns="http://www.w3.org/2000/svg" viewBox="0 0 40 40" width="50px" height="50px"><path fill="#b6dcfe" d="M6.363,37.5c-0.476,0-0.863-0.396-0.863-0.885V3.385C5.5,2.896,5.888,2.5,6.363,2.5H16.54 C16.513,2.668,16.5,2.834,16.5,3c0,1.93,1.57,3.5,3.5,3.5s3.5-1.57,3.5-3.5c0-0.166-0.013-0.332-0.04-0.5h10.177 c0.476,0,0.863,0.396,0.863,0.885v33.23c0,0.488-0.388,0.885-0.863,0.885H6.363z"/><path fill="#4788c7" d="M33.636,3C33.837,3,34,3.173,34,3.385v33.231C34,36.827,33.837,37,33.636,37H6.364 C6.163,37,6,36.827,6,36.615V3.385C6,3.173,6.163,3,6.364,3H16c0,2.206,1.794,4,4,4s4-1.794,4-4H33.636 M33.636,2h-10.82 C22.928,2.314,23,2.647,23,3c0,1.657-1.343,3-3,3s-3-1.343-3-3c0-0.353,0.072-0.686,0.184-1H6.364C5.611,2,5,2.62,5,3.385v33.231 C5,37.38,5.611,38,6.364,38h27.273C34.389,38,35,37.38,35,36.615V3.385C35,2.62,34.389,2,33.636,2L33.636,2z"/><path fill="#fff" d="M8 5H32V35H8z"/><path fill="#4788c7" d="M20,1c1.103,0,2,0.897,2,2s-0.897,2-2,2s-2-0.897-2-2S18.897,1,20,1 M20,0c-1.657,0-3,1.343-3,3 s1.343,3,3,3s3-1.343,3-3S21.657,0,20,0L20,0z"/><path fill="#98ccfd" d="M15,7.5c-0.827,0-1.5-0.673-1.5-1.5V2.5h4.036l0.038-0.106C17.525,2.588,17.5,2.791,17.5,3 c0,1.379,1.121,2.5,2.5,2.5s2.5-1.121,2.5-2.5c0-0.209-0.025-0.412-0.074-0.606L22.464,2.5H26.5V6c0,0.827-0.673,1.5-1.5,1.5H15z M20.01,0.5L20.01,0.5z M19.99,0.5L19.99,0.5z M20.007,0.5C20.006,0.5,20.006,0.5,20.007,0.5z M19.993,0.5 C19.994,0.5,19.994,0.5,19.993,0.5z M19.996,0.5c0.002,0,0.006,0,0.008,0C20.002,0.5,19.998,0.5,19.996,0.5z"/><path fill="#4788c7" d="M26 3v3c0 .551-.449 1-1 1H15c-.551 0-1-.449-1-1V3h3c0 1.654 1.346 3 3 3s3-1.346 3-3H26M20 0c-1.304 0-2.403.837-2.816 2H13v4c0 1.105.895 2 2 2h10c1.105 0 2-.895 2-2V2h-4.184C22.403.837 21.304 0 20 0L20 0zM20 5c-1.103 0-2-.897-2-2 0-1.103.897-2 2-2s2 .897 2 2C22 4.103 21.103 5 20 5L20 5zM16 20L16 20c-.55 0-1-.45-1-1v-6c0-.55.45-1 1-1h0c.55 0 1 .45 1 1v6C17 19.55 16.55 20 16 20z"/><path fill="#4788c7" d="M19 17h-6c-.55 0-1-.45-1-1v0c0-.55.45-1 1-1h6c.55 0 1 .45 1 1v0C20 16.55 19.55 17 19 17zM27.5 13h-5c-.275 0-.5-.225-.5-.5v0c0-.275.225-.5.5-.5h5c.275 0 .5.225.5.5v0C28 12.775 27.775 13 27.5 13zM27.5 17h-5c-.275 0-.5-.225-.5-.5l0 0c0-.275.225-.5.5-.5h5c.275 0 .5.225.5.5l0 0C28 16.775 27.775 17 27.5 17zM27.5 21h-5c-.275 0-.5-.225-.5-.5l0 0c0-.275.225-.5.5-.5h5c.275 0 .5.225.5.5l0 0C28 20.775 27.775 21 27.5 21zM27.5 25h-15c-.275 0-.5-.225-.5-.5l0 0c0-.275.225-.5.5-.5h15c.275 0 .5.225.5.5l0 0C28 24.775 27.775 25 27.5 25zM27.5 29h-15c-.275 0-.5-.225-.5-.5l0 0c0-.275.225-.5.5-.5h15c.275 0 .5.225.5.5l0 0C28 28.775 27.775 29 27.5 29z"/></svg>