<svg xmlns="http://www.w3.org/2000/svg" viewBox="0 0 40 40" width="50px" height="50px"><path fill="#b6dcfe" d="M16.5 23.5H23.5V32.5H16.5z"/><path fill="#4788c7" d="M23,24v8h-6v-8H23 M24,23h-8v10h8V23L24,23z"/><path fill="#fff" d="M1.5 4.5H38.5V28.5H1.5z"/><path fill="#4788c7" d="M38,5v23H2V5H38 M39,4H1v25h38V4L39,4z"/><path fill="#98ccfd" d="M9.5 32.5H30.5V35.5H9.5z"/><path fill="#4788c7" d="M30,33v2H10v-2H30 M31,32H9v4h22V32L31,32z"/><path fill="#98ccfd" d="M11.515,28.5c0.26-4.455,3.967-8,8.485-8s8.226,3.545,8.485,8H11.515z"/><path fill="#4788c7" d="M20,21c4.073,0,7.444,3.059,7.938,7H12.062C12.556,24.059,15.927,21,20,21 M20,20 c-4.971,0-9,4.029-9,9h18C29,24.029,24.971,20,20,20L20,20z"/><path fill="#dff0fe" d="M20 9.5A4.5 4.5 0 1 0 20 18.5A4.5 4.5 0 1 0 20 9.5Z"/><path fill="#4788c7" d="M20,10c2.206,0,4,1.794,4,4s-1.794,4-4,4s-4-1.794-4-4S17.794,10,20,10 M20,9c-2.761,0-5,2.239-5,5 s2.239,5,5,5s5-2.239,5-5S22.761,9,20,9L20,9z"/><path fill="#788b9c" d="M9.867 27.6H30.134V28.867H9.867z"/><g><path fill="#dff0fe" d="M15.5 24.5H24.5V28.5H15.5z"/><path fill="#4788c7" d="M24,25v3h-8v-3H24 M25,24H15v5h10V24L25,24z"/></g><g><path fill="#dff0fe" d="M24.5 24.5H33.5V28.5H24.5z"/><path fill="#4788c7" d="M33,25v3h-8v-3H33 M34,24H24v5h10V24L34,24z"/></g><g><path fill="#dff0fe" d="M6.5 24.5H15.5V28.5H6.5z"/><path fill="#4788c7" d="M15,25v3H7v-3H15 M16,24H6v5h10V24L16,24z"/></g></svg>