<?xml version="1.0" encoding="utf-8"?>
<!-- Generator: Adobe Illustrator 20.0.0, SVG Export Plug-In . SVG Version: 6.00 Build 0)  -->
<svg version="1.1" id="Layer_1" xmlns="http://www.w3.org/2000/svg" xmlns:xlink="http://www.w3.org/1999/xlink" x="0px" y="0px"
	 viewBox="0 0 512 512" style="enable-background:new 0 0 512 512;" xml:space="preserve">
<path d="M381.9,381.9c-23.1,0-41.8,18.9-41.8,42c0,23.1,18.7,42,41.8,42c23.1,0,42-18.9,42-42C423.9,400.8,405,381.9,381.9,381.9z
	 M46.1,46.1v42h42l75.6,159.3l-28.3,51.4c-3.4,5.9-5.2,12.8-5.2,20.1c0,23.1,18.9,42,42,42h251.9v-42H180.9c-2.9,0-5.2-2.3-5.2-5.2
	l0.6-2.5l18.9-34.2h156.4c15.7,0,29.6-8.6,36.7-21.6l75.1-136.2c1.7-2.9,2.5-6.5,2.5-10.1c0-11.5-9.4-21-21-21H134.5l-19.7-42H46.1z
	 M172,381.9c-23.1,0-41.8,18.9-41.8,42c0,23.1,18.7,42,41.8,42s42-18.9,42-42C214,400.8,195.1,381.9,172,381.9z"/>
</svg>
