<?xml version="1.0" encoding="utf-8"?>
<!-- Generator: Adobe Illustrator 20.0.0, SVG Export Plug-In . SVG Version: 6.00 Build 0)  -->
<svg version="1.1" id="Layer_1" xmlns="http://www.w3.org/2000/svg" xmlns:xlink="http://www.w3.org/1999/xlink" x="0px" y="0px"
	 viewBox="0 0 512 512" style="enable-background:new 0 0 512 512;" xml:space="preserve">
<path d="M256,329.5c-40.5,0-73.5-33-73.5-73.5s33-73.5,73.5-73.5c40.5,0,73.5,33,73.5,73.5S296.6,329.5,256,329.5z M412,276.6
	c0.8-6.7,1.5-13.4,1.5-20.6c0-7.1-0.6-13.9-1.5-20.6l44.3-34.6c4-3.1,5-8.8,2.5-13.4l-42-72.6c-2.5-4.6-8.2-6.3-12.8-4.6l-52.3,21
	c-10.9-8.4-22.7-15.3-35.5-20.6l-8-55.6c-0.6-5-5-8.8-10.3-8.8h-84c-5.2,0-9.7,3.8-10.3,8.8l-8,55.6c-12.8,5.2-24.6,12.4-35.5,20.6
	l-52.3-21c-4.8-1.9-10.3,0-12.8,4.6l-42,72.6c-2.7,4.6-1.5,10.3,2.5,13.4l44.3,34.6c-0.8,6.7-1.5,13.6-1.5,20.6
	c0,6.9,0.6,13.9,1.5,20.6l-44.3,34.6c-4,3.1-5,8.8-2.5,13.4l42,72.6c2.5,4.6,8.2,6.3,12.8,4.6l52.3-21c10.9,8.4,22.7,15.3,35.5,20.6
	l8,55.6c0.6,5,5,8.8,10.3,8.8h84c5.2,0,9.7-3.8,10.3-8.8l8-55.6c12.8-5.2,24.6-12.4,35.5-20.6l52.3,21c4.8,1.9,10.3,0,12.8-4.6
	l42-72.6c2.5-4.6,1.5-10.3-2.5-13.4L412,276.6z"/>
</svg>
