<?xml version="1.0" encoding="utf-8"?>
<!-- Generator: Adobe Illustrator 20.0.0, SVG Export Plug-In . SVG Version: 6.00 Build 0)  -->
<svg version="1.1" id="Layer_1" xmlns="http://www.w3.org/2000/svg" xmlns:xlink="http://www.w3.org/1999/xlink" x="0px" y="0px"
	 viewBox="0 0 512 512" style="enable-background:new 0 0 512 512;" xml:space="preserve">
<style type="text/css">
	.st0{fill-rule:evenodd;clip-rule:evenodd;}
</style>
<path class="st0" d="M212.3,310.2V193L326,252.5L212.3,310.2z M462.4,172c0,0-3.5-29.7-17.5-42c-15.7-17.5-33.2-17.5-42-17.5
	c-59.5-3.5-146.9-3.5-146.9-3.5s-87.5,0-146.9,3.5c-8.7,1.7-26.2,1.7-42,17.5c-12.2,12.2-17.5,42-17.5,42s-3.5,33.2-3.5,68.2v31.5
	c0,33.2,3.5,68.2,3.5,68.2s3.5,29.7,17.5,42c15.7,17.5,36.7,15.7,45.5,17.5c33.2,3.5,143.4,3.5,143.4,3.5s87.5,0,146.9-5.2
	c8.7-1.7,26.2-1.7,42-17.5c12.2-12.2,17.5-42,17.5-42s3.5-33.2,3.5-68.2v-31.5C465.9,205.3,462.4,172,462.4,172z"/>
</svg>
