<?xml version="1.0" encoding="utf-8"?>
<!-- Generator: Adobe Illustrator 20.0.0, SVG Export Plug-In . SVG Version: 6.00 Build 0)  -->
<svg version="1.1" id="Layer_1" xmlns="http://www.w3.org/2000/svg" xmlns:xlink="http://www.w3.org/1999/xlink" x="0px" y="0px"
	 viewBox="0 0 512 512" style="enable-background:new 0 0 512 512;" xml:space="preserve">
<path d="M322,281H90v84h232V281z M172.1,347l-8.8-13.8l-8.8,13.8h-14.3l15.7-23.4L140.9,301h14.6l8.1,12.9l8.2-12.9h14.3L171,323.5
	l15.7,23.5H172.1z M230,347h-35v-46h13v34h22V347z M275,332.5c0,9.4-7.4,14.9-18.6,14.9c-8.1,0-15.9-2.6-21.5-7.6l7.1-8.5
	c4.5,3.6,9.5,5.5,14.8,5.5c3.4,0,5.2-1.2,5.2-3.1v-0.1c0-1.9-1.5-2.9-7.7-4.4c-9.8-2.2-17.3-5-17.3-14.4v-0.1
	c0-8.5,6.8-14.7,17.8-14.7c7.8,0,13.9,2.1,18.9,6.1l-6.3,9c-4.2-2.9-8.7-4.5-12.8-4.5c-3.1,0-4.6,1.3-4.6,2.9v0.1
	c0,2.1,1.6,3,7.9,4.5c10.5,2.3,17.1,5.7,17.1,14.3V332.5z"/>
<path d="M418.7,173c-1.3-1.3-90.3-89.9-90.3-89.9l-3.2-3.1H170.5c-17.6,0-32.5,14.2-32.5,31.7V259h22V111.7c0-5.9,4.7-9.7,10.5-9.7
	H310v57.3c0,17.6,14.5,31.7,32.1,31.7H400v208c0,5.9-4.3,10-10.2,10H170.5c-5.9,0-10.5-4.2-10.5-10v-13h-22v13
	c0,17.6,14.9,32,32.5,32h219.3c17.6,0,32.2-14.5,32.2-32V180.6l-0.1-4.4L418.7,173z M342.1,170c-5.9,0-10.1-4.8-10.1-10.7v-43.2
	l26.7,26.9c11.4,11.4,19.9,19.9,26.8,26.9H342.1z"/>
</svg>
