<?xml version="1.0" encoding="utf-8"?>
<!-- Generator: Adobe Illustrator 20.0.0, SVG Export Plug-In . SVG Version: 6.00 Build 0)  -->
<svg version="1.1" id="Layer_1" xmlns="http://www.w3.org/2000/svg" xmlns:xlink="http://www.w3.org/1999/xlink" x="0px" y="0px"
	 viewBox="0 0 512 512" style="enable-background:new 0 0 512 512;" xml:space="preserve">
<path d="M208.9,303.3c-52.3,0-94.5-42.2-94.5-94.5s42.2-94.5,94.5-94.5s94.5,42.2,94.5,94.5S261.1,303.3,208.9,303.3z M334.8,303.3
	h-16.6l-5.9-5.7c20.6-23.9,33-55,33-88.8c0-75.4-61.1-136.4-136.4-136.4S72.4,133.5,72.4,208.9s61.1,136.4,136.4,136.4
	c33.8,0,64.9-12.4,88.8-33l5.7,5.9v16.6l104.9,104.7l31.3-31.3L334.8,303.3z"/>
</svg>
