<?xml version="1.0" encoding="utf-8"?>
<!-- Generator: Adobe Illustrator 20.0.0, SVG Export Plug-In . SVG Version: 6.00 Build 0)  -->
<svg version="1.1" id="Layer_1" xmlns="http://www.w3.org/2000/svg" xmlns:xlink="http://www.w3.org/1999/xlink" x="0px" y="0px"
	 viewBox="0 0 512 512" style="enable-background:new 0 0 512 512;" xml:space="preserve">
<style type="text/css">
	.st0{fill-rule:evenodd;clip-rule:evenodd;}
</style>
<path class="st0" d="M256,407.1c52.5,0,98.9-26.9,125.9-67.6c-0.6-41.8-84.2-64.6-125.9-64.6c-42,0-125.3,22.9-125.9,64.6
	C157.1,380.3,203.5,407.1,256,407.1z M256,109.1c-34.8,0-63,28.1-63,63s28.1,63,63,63s63-28.1,63-63S290.8,109.1,256,109.1z
	 M256,46.1c115.9,0,209.9,94,209.9,209.9s-94,209.9-209.9,209.9S46.1,371.9,46.1,256S140.1,46.1,256,46.1z"/>
</svg>
