<?xml version="1.0" encoding="utf-8"?>
<!-- Generator: Adobe Illustrator 20.0.0, SVG Export Plug-In . SVG Version: 6.00 Build 0)  -->
<svg version="1.1" id="Layer_1" xmlns="http://www.w3.org/2000/svg" xmlns:xlink="http://www.w3.org/1999/xlink" x="0px" y="0px"
	 viewBox="0 0 512 512" style="enable-background:new 0 0 512 512;" xml:space="preserve">
<path d="M418.7,173c-1.3-1.3-90.3-89.9-90.3-89.9l-3.2-3.1H170.5c-17.6,0-32.5,14.2-32.5,31.7V259h22V111.7c0-5.9,4.7-9.7,10.5-9.7
	H310v57.3c0,17.6,14.5,31.7,32.1,31.7H400v208c0,5.9-4.3,10-10.2,10H170.5c-5.9,0-10.5-4.2-10.5-10v-13h-22v13
	c0,17.6,14.9,32,32.5,32h219.3c17.6,0,32.2-14.5,32.2-32V180.6l-0.1-4.4L418.7,173z M342.1,170c-5.9,0-10.1-4.8-10.1-10.7v-43.2
	l26.7,26.9c11.4,11.4,19.9,19.9,26.8,26.9H342.1z"/>
<g>
	<path d="M154.7,313H149v11h5.8c4.5,0,7.2-2.2,7.2-5.8v-0.1C162,314.1,159.3,313,154.7,313z"/>
	<path d="M201.3,313H197v23h4.3c7.6,0,12.7-4.2,12.7-11.7v-0.1C214,316.9,208.9,313,201.3,313z"/>
	<path d="M89,282v84h232v-84H89z M175,317.6c0,10.8-8.6,16.4-20,16.4h-6v14h-13v-47h19.7c11.6,0,19.3,6.3,19.3,16.5V317.6z
		 M227,324.2c0,13.2-9.7,23.8-26.2,23.8H184v-47h17.1c16.4,0,25.9,9.8,25.9,23V324.2z M274,313h-25v7h22v12h-22v16h-13v-47h38V313z"
		/>
</g>
</svg>
