<?xml version="1.0" encoding="utf-8"?>
<!-- Generator: Adobe Illustrator 20.0.0, SVG Export Plug-In . SVG Version: 6.00 Build 0)  -->
<svg version="1.1" id="Layer_1" xmlns="http://www.w3.org/2000/svg" xmlns:xlink="http://www.w3.org/1999/xlink" x="0px" y="0px"
	 viewBox="0 0 24 24" style="enable-background:new 0 0 24 24;" xml:space="preserve">
<path d="M12,2C6.5,2,2,6.5,2,12s4.5,10,10,10s10-4.5,10-10S17.5,2,12,2z M17.3,16.7c0,0.3-0.3,0.6-0.6,0.6c-5.5,0-10-4.4-10-9.9
	C6.8,7,7,6.8,7.3,6.8h2C9.7,6.8,10,7,10,7.3c0,0.7,0.1,1.4,0.3,2.1c0.1,0.2,0,0.4-0.1,0.6l-1.3,1.3c0.8,1.7,2.2,3,3.8,3.8l1.3-1.3
	c0.2-0.2,0.4-0.2,0.6-0.1c0.7,0.2,1.4,0.3,2.1,0.3c0.3,0,0.6,0.3,0.6,0.6V16.7L17.3,16.7z"/>
</svg>
