<?xml version="1.0" encoding="utf-8"?>
<!-- Generator: Adobe Illustrator 20.0.0, SVG Export Plug-In . SVG Version: 6.00 Build 0)  -->
<svg version="1.1" id="Layer_1" xmlns="http://www.w3.org/2000/svg" xmlns:xlink="http://www.w3.org/1999/xlink" x="0px" y="0px"
	 viewBox="0 0 512 512" style="enable-background:new 0 0 512 512;" xml:space="preserve">
<path d="M173.9,313.7l0.6-2.5l18.9-34.2h156.4c15.7,0,29.6-8.6,36.7-21.6l81-147.1l-36.5-20.1h-0.2l-23.1,42L349.8,235H202.5
	l-2.7-5.7l-47-99.3l-19.9-42l-19.7-42H44.4v42h42L162,247.4l-28.3,51.4c-3.4,5.9-5.2,12.8-5.2,20.1c0,23.1,18.9,42,42,42h251.9v-42
	H179.2C176.5,319,173.9,316.7,173.9,313.7z M380.3,381.9c-23.1,0-41.8,18.9-41.8,42c0,23.1,18.7,42,41.8,42c23.1,0,42-18.9,42-42
	C422.2,400.8,403.3,381.9,380.3,381.9z M170.4,381.9c-23.1,0-41.8,18.9-41.8,42c0,23.1,18.7,42,41.8,42s42-18.9,42-42
	C212.3,400.8,193.5,381.9,170.4,381.9z"/>
</svg>
