<?xml version="1.0" encoding="utf-8"?>
<!-- Generator: Adobe Illustrator 20.0.0, SVG Export Plug-In . SVG Version: 6.00 Build 0)  -->
<svg version="1.1" id="Layer_1" xmlns="http://www.w3.org/2000/svg" xmlns:xlink="http://www.w3.org/1999/xlink" x="0px" y="0px"
	 viewBox="0 0 512 512" style="enable-background:new 0 0 512 512;" xml:space="preserve">
<path d="M173.4,314l0.6-2.5l18.9-34.2h156.4c15.7,0,29.6-8.6,36.7-21.6l81-147.1l-36.5-20.1h-0.2l-23.1,42l-57.9,104.9H201.9
	l-2.7-5.7l-47-99.3l-19.9-42l-19.7-42H43.9v42h42l75.6,159.3l-28.3,51.4c-3.4,5.9-5.2,12.8-5.2,20.1c0,23.1,18.9,42,42,42h251.9v-42
	H178.6C175.9,319.2,173.4,316.9,173.4,314z M379.7,382.2c-23.1,0-41.8,18.9-41.8,42c0,23.1,18.7,42,41.8,42c23.1,0,42-18.9,42-42
	C421.7,401.1,402.8,382.2,379.7,382.2z M169.8,382.2c-23.1,0-41.8,18.9-41.8,42c0,23.1,18.7,42,41.8,42s42-18.9,42-42
	C211.8,401.1,192.9,382.2,169.8,382.2z M253.7,193.3h42v-63h63v-42h-63v-63h-42v63h-63v42h63V193.3z"/>
</svg>
