<?xml version="1.0" encoding="utf-8"?>
<!-- Generator: Adobe Illustrator 22.0.0, SVG Export Plug-In . SVG Version: 6.00 Build 0)  -->
<svg version="1.1" id="Layer_1" xmlns="http://www.w3.org/2000/svg" xmlns:xlink="http://www.w3.org/1999/xlink" x="0px" y="0px"
	 viewBox="0 0 512 512" style="enable-background:new 0 0 512 512;" xml:space="preserve">
<g>
	<path d="M352.6,400.8l51.6-26.5l51.6,26.5V287.3c-14,11.6-32,18.6-51.6,18.6c-19.6,0-37.6-7-51.6-18.6V400.8z M354.3,155.7
		c6.3-4.6,13.3-8.3,20.7-11v-13.7c0-11-8.8-19.9-19.7-19.9H60.1c-10.8,0-19.7,8.9-19.7,19.9v67.2v64.4v67.2c0,11,8.8,19.9,19.7,19.9
		h277.4v-20.9H61.1v-73.3v-2.9l122.6-120.5h170.6V155.7z M451.6,214.1l-29.3,21.3l11.3,34.6l-29.4-21.4L374.7,270l11.3-34.6
		l-29.2-21.3h36.1l11.3-34.4l11.2,34.4H451.6z M471.6,224.9c0-37.3-30.2-67.5-67.5-67.5s-67.5,30.2-67.5,67.5s30.2,67.5,67.5,67.5
		S471.6,262.1,471.6,224.9"/>
</g>
</svg>
