<?xml version="1.0" encoding="utf-8"?>
<!-- Generator: Adobe Illustrator 20.0.0, SVG Export Plug-In . SVG Version: 6.00 Build 0)  -->
<svg version="1.1" id="Layer_1" xmlns="http://www.w3.org/2000/svg" xmlns:xlink="http://www.w3.org/1999/xlink" x="0px" y="0px"
	 viewBox="0 0 512 512" style="enable-background:new 0 0 512 512;" xml:space="preserve">
<style type="text/css">
	.st0{opacity:0.6;}
</style>
<path class="st0" d="M345,166.8c-24.6-24.6-56.7-36.9-89-36.9v125.9l-89,89c49.1,49.1,128.9,49.1,178.2,0
	C394.3,295.7,394.3,215.9,345,166.8z"/>
<path d="M256,45.9c-115.9,0-209.9,94-209.9,209.9s94,209.9,209.9,209.9s209.9-94,209.9-209.9S371.9,45.9,256,45.9z M256,423.7
	c-92.8,0-167.9-75.1-167.9-167.9S163.3,87.9,256,87.9S423.9,163,423.9,255.8S348.8,423.7,256,423.7z"/>
</svg>
