<?xml version="1.0" encoding="utf-8"?>
<!-- Generator: Adobe Illustrator 20.0.0, SVG Export Plug-In . SVG Version: 6.00 Build 0)  -->
<svg version="1.1" id="Layer_1" xmlns="http://www.w3.org/2000/svg" xmlns:xlink="http://www.w3.org/1999/xlink" x="0px" y="0px"
	 viewBox="0 0 512 512" style="enable-background:new 0 0 512 512;" xml:space="preserve">
<style type="text/css">
	.st0{fill-rule:evenodd;clip-rule:evenodd;}
</style>
<path class="st0" d="M155.4,342.9h201.2l20.1,71.4c-4.8,2.3-10.1,3.6-15.8,3.6H151c-5.7,0-11-1.3-15.8-3.6L155.4,342.9z
	 M293.2,200.7c0,20.6-16.6,37.2-37.2,37.2c-20.6,0-37.2-16.7-37.2-37.2c0-20.6,16.6-37.2,37.2-37.2
	C276.6,163.5,293.2,180.1,293.2,200.7z M181.5,293.8c0-24.8,49.6-37.2,74.5-37.2c24.8,0,74.4,12.5,74.4,37.2v18.6H181.5V293.8z
	 M143.5,243.6c-8,0.4-16,2.7-22,8.7c-2.5,2.5-5.2,5.9-8,9.9V95.5c0-20.7,16.8-37.5,37.5-37.5h210c20.7,0,37.5,16.8,37.5,37.5v166.8
	c-2.8-4-5.5-7.4-8-9.9c-6-6.1-13.9-8.4-22-8.7V103H143.5V243.6z M467.6,250.5c20,20.4,26.4,42.8,26.4,63v127.2l-53.8,12.6
	c-11.4,2.7-23.2-2.2-29.4-12.2l-23-37.3c-2.6-4.3-4.7-9-6.1-13.8l-35.2-124.5c0,0,24.8-12.4,37.2,0c12.4,12.4,31.7,58.1,31.7,58.1
	V203C415.5,203,441.2,223.6,467.6,250.5z M128.2,265.4c12.4-12.4,37.2,0,37.2,0l-35.2,124.5c-1.4,4.9-3.4,9.5-6.1,13.8l-23,37.3
	c-6.1,10-18,14.9-29.4,12.2L18,440.7V313.5c0-20.2,6.4-42.6,26.4-63c26.4-27,52.1-47.5,52.1-47.5v120.5
	C96.6,323.5,115.8,277.8,128.2,265.4z"/>
</svg>
