<?xml version="1.0" encoding="utf-8"?>
<!-- Generator: Adobe Illustrator 20.0.0, SVG Export Plug-In . SVG Version: 6.00 Build 0)  -->
<svg version="1.1" id="Layer_1" xmlns="http://www.w3.org/2000/svg" xmlns:xlink="http://www.w3.org/1999/xlink" x="0px" y="0px"
	 viewBox="0 0 512 512" style="enable-background:new 0 0 512 512;" xml:space="preserve">
<path d="M418.7,173c-1.3-1.3-90.3-89.9-90.3-89.9l-3.2-3.1H170.5c-17.6,0-32.5,14.2-32.5,31.7V259h22V111.7c0-5.9,4.7-9.7,10.5-9.7
	H310v57.3c0,17.6,14.5,31.7,32.1,31.7H400v208c0,5.9-4.3,10-10.2,10H170.5c-5.9,0-10.5-4.2-10.5-10v-13h-22v13
	c0,17.6,14.9,32,32.5,32h219.3c17.6,0,32.2-14.5,32.2-32V180.6l-0.1-4.4L418.7,173z M342.1,170c-5.9,0-10.1-4.8-10.1-10.7v-43.2
	l26.7,26.9c11.4,11.4,19.9,19.9,26.8,26.9H342.1z"/>
<g>
	<path d="M206.4,311.1c-7.1,0-12.4,5.8-12.4,12.5v0.1c0,6.8,5.4,12.7,12.5,12.7c7.2,0,12.5-5.8,12.5-12.5v-0.1
		C219,317,213.6,311.1,206.4,311.1z"/>
	<path d="M89,281v86h237v-86H89z M174,323.6c0,13.5-10.5,23.4-27.4,23.4H129v-47h17.9c16.7,0,27.1,9.9,27.1,23.5V323.6z M232,323.7
		c0,13.5-11.1,24.4-25.6,24.4c-14.5,0-25.4-10.8-25.4-24.3v-0.1c0-13.5,11.1-24.4,25.6-24.4c14.5,0,25.4,10.8,25.4,24.3V323.7z
		 M265,348.1c-13.4,0-24-10.3-24-24.3v-0.1c0-13.7,10.4-24.4,24.6-24.4c9.6,0,15.7,4,19.8,9.8l-9.8,7.6c-2.7-3.4-5.8-5.5-10.3-5.5
		c-6.6,0-11.3,5.6-11.3,12.4v0.1c0,7,4.7,12.5,11.2,12.5c4.9,0,7.8-2.3,10.6-5.7l9.9,7C281.3,343.7,275.4,348.1,265,348.1z"/>
	<path d="M147.1,313H142v23h5.1c7.8,0,13.9-4.6,13.9-12.2v-0.1C161,316.2,154.9,313,147.1,313z"/>
</g>
</svg>
