<?xml version="1.0" encoding="utf-8"?>
<!-- Generator: Adobe Illustrator 20.0.0, SVG Export Plug-In . SVG Version: 6.00 Build 0)  -->
<svg version="1.1" id="Layer_1" xmlns="http://www.w3.org/2000/svg" xmlns:xlink="http://www.w3.org/1999/xlink" x="0px" y="0px"
	 viewBox="0 0 512 512" style="enable-background:new 0 0 512 512;" xml:space="preserve">
<path d="M340,277c-6.1,0-13,0.4-20.4,1c24.3,17.6,41.3,41.3,41.3,72.4v52.5h125.9v-52.5C486.9,301.5,388.9,277,340,277z M172,277
	c-48.9,0-146.9,24.6-146.9,73.5v52.5H319v-52.5C319,301.5,220.9,277,172,277z M172,235c34.8,0,62.8-28.1,62.8-63s-27.9-63-62.8-63
	s-63,28.1-63,63S137.2,235,172,235z M340,235c34.8,0,62.8-28.1,62.8-63s-27.9-63-62.8-63s-63,28.1-63,63S305.1,235,340,235z"/>
</svg>
