<?xml version="1.0" encoding="utf-8"?>
<!-- Generator: Adobe Illustrator 20.0.0, SVG Export Plug-In . SVG Version: 6.00 Build 0)  -->
<svg version="1.1" id="Layer_1" xmlns="http://www.w3.org/2000/svg" xmlns:xlink="http://www.w3.org/1999/xlink" x="0px" y="0px"
	 viewBox="0 0 512 512" style="enable-background:new 0 0 512 512;" xml:space="preserve">
<style type="text/css">
	.st0{fill-rule:evenodd;clip-rule:evenodd;}
</style>
<path class="st0" d="M404.7,404.7h-63v-97.9c0-22.7,0-52.5-31.5-52.5c-33.2,0-36.7,24.5-36.7,50.7v99.7h-63V203.5H270v28
	c8.7-15.7,28-31.5,59.5-31.5c63,0,75.2,42,75.2,96.2V404.7z M138.8,175.5c-19.2,0-36.7-15.7-36.7-36.7c0-19.2,15.7-36.7,36.7-36.7
	c19.2,0,36.7,15.7,36.7,36.7S159.8,175.5,138.8,175.5z M170.3,404.7h-61.2V203.5h63v201.1H170.3z M448.4,46.1H63.6
	c-10.5,0-17.5,7-17.5,17.5v384.8c0,10.5,7,17.5,17.5,17.5h384.8c10.5,0,17.5-7,17.5-17.5V63.6C465.9,53.1,458.9,46.1,448.4,46.1z"/>
</svg>
