<?xml version="1.0" encoding="utf-8"?>
<!-- Generator: Adobe Illustrator 20.0.0, SVG Export Plug-In . SVG Version: 6.00 Build 0)  -->
<svg version="1.1" id="Layer_1" xmlns="http://www.w3.org/2000/svg" xmlns:xlink="http://www.w3.org/1999/xlink" x="0px" y="0px"
	 viewBox="0 0 24 24" style="enable-background:new 0 0 24 24;" xml:space="preserve">
<g>
	<polygon points="7.5,8.7 7.5,9.8 12,12.6 16.5,9.8 16.5,8.7 12,11.4 	"/>
	<path d="M12,2C6.5,2,2,6.5,2,12s4.5,10,10,10s10-4.5,10-10S17.5,2,12,2z M17.5,15.3c0,0.6-0.5,1.1-1.1,1.1H7.5
		c-0.6,0-1.1-0.5-1.1-1.1V8.6c0-0.6,0.5-1.1,1.1-1.1h8.9c0.6,0,1.1,0.5,1.1,1.1V15.3L17.5,15.3z"/>
</g>
</svg>
