<?xml version="1.0" encoding="utf-8"?>
<!-- Generator: Adobe Illustrator 20.0.0, SVG Export Plug-In . SVG Version: 6.00 Build 0)  -->
<svg version="1.1" id="Layer_1" xmlns="http://www.w3.org/2000/svg" xmlns:xlink="http://www.w3.org/1999/xlink" x="0px" y="0px"
	 viewBox="0 0 512 512" style="enable-background:new 0 0 512 512;" xml:space="preserve">
<style type="text/css">
	.st0{fill-rule:evenodd;clip-rule:evenodd;}
</style>
<path class="st0" d="M445.2,357.8h54.5c0,15-12.3,27.2-27.3,27.2H315.4v-54.5h129.8V180.7H240.9c0-0.5,0.1-1,0.1-1.5
	c0-9-1.5-17.7-4.3-25.8h208.5c15,0,27.2,12.3,27.2,27.2v149.9C472.5,345.5,460.2,357.8,445.2,357.8z M160.4,247.7
	c-37.8,0-68.4-30.6-68.4-68.4s30.6-68.4,68.4-68.4s68.4,30.6,68.4,68.4S198.2,247.7,160.4,247.7z M160.4,281.9
	c45.7,0,136.8,22.9,136.8,68.4v34.2H23.6v-34.2C23.6,304.8,114.8,281.9,160.4,281.9z M349.9,251.7c-14.5,0-26.3-11.8-26.3-26.3
	c0-14.5,11.8-26.3,26.3-26.3c14.5,0,26.3,11.8,26.3,26.3C376.2,239.9,364.4,251.7,349.9,251.7z M349.9,264.8
	c-17.6,0-52.7,8.8-52.7,26.3v13.2h105.3v-13.2C402.5,273.7,367.4,264.8,349.9,264.8"/>
</svg>
