<?xml version="1.0" encoding="utf-8"?>
<!-- Generator: Adobe Illustrator 20.0.0, SVG Export Plug-In . SVG Version: 6.00 Build 0)  -->
<svg version="1.1" id="Layer_1" xmlns="http://www.w3.org/2000/svg" xmlns:xlink="http://www.w3.org/1999/xlink" x="0px" y="0px"
	 viewBox="0 0 512 512" style="enable-background:new 0 0 512 512;" xml:space="preserve">
<style type="text/css">
	.st0{fill-rule:evenodd;clip-rule:evenodd;}
</style>
<path class="st0" d="M465.9,126.6c-15.7,7-31.5,12.2-49,14c17.5-10.5,31.5-28,38.5-47.2c-17.5,10.5-35,17.5-54.2,21
	c-15.7-17.5-38.5-28-63-28c-47.2,0-85.7,38.5-85.7,85.7c0,7,0,14,1.8,19.2c-73.5-3.5-136.4-38.5-178.4-91c-8.7,14-12.2,28-12.2,43.7
	c0,29.7,15.7,56,38.5,71.7c-14,0-28-3.5-38.5-10.5c0,0,0,0,0,1.7c0,42,29.7,77,68.2,84c-7,1.7-14,3.5-22.7,3.5
	c-5.2,0-10.5,0-15.7-1.8c10.5,35,42,59.5,80.5,59.5c-29.7,22.7-66.5,36.7-106.7,36.7c-7,0-14,0-21-1.8c38.5,24.5,84,38.5,131.2,38.5
	c159.2,0,244.9-131.2,244.9-244.9v-10.5C439.7,158.1,453.7,142.3,465.9,126.6z"/>
</svg>
