<?xml version="1.0" encoding="utf-8"?>
<!-- Generator: Adobe Illustrator 20.0.0, SVG Export Plug-In . SVG Version: 6.00 Build 0)  -->
<svg version="1.1" id="Layer_1" xmlns="http://www.w3.org/2000/svg" xmlns:xlink="http://www.w3.org/1999/xlink" x="0px" y="0px"
	 viewBox="0 0 512 512" style="enable-background:new 0 0 512 512;" xml:space="preserve">
<style type="text/css">
	.st0{fill-rule:evenodd;clip-rule:evenodd;}
</style>
<path class="st0" d="M353.6,136.7c-21,33.1-71.9,59.4-106.9,64.7v75.2c-27.2,3.4-48.5,26-49.7,53.9h-43.9
	c-1.2-27.8-22.3-50.3-49.4-53.8v-80.2c0-23.8,47.6-35.7,71.5-35.7l71.1-1.2c28.7,1.3,59.1-13.3,77.2-41.9L353.6,136.7z M416.1,369.2
	c-19.8,0-35.7-16-35.7-35.7c0-19.8,16-35.7,35.7-35.7c19.7,0,35.7,16,35.7,35.7C451.8,353.2,435.8,369.2,416.1,369.2z M416.1,387
	c23.9,0,71.5,12,71.5,35.7v17.9h-143v-17.9C344.6,399,392.2,387,416.1,387z M175.2,142.8c-19.8,0-35.7-16-35.7-35.7
	c0-19.8,16-35.7,35.7-35.7c19.7,0,35.7,16,35.7,35.7C211,126.8,194.9,142.8,175.2,142.8z M253.8,369.2c-19.7,0-35.7-16-35.7-35.7
	c0-19.8,16-35.7,35.7-35.7c19.8,0,35.7,16,35.7,35.7C289.5,353.2,273.5,369.2,253.8,369.2z M253.8,387c23.9,0,71.5,12,71.5,35.7
	v17.9h-143v-17.9C182.3,399,229.9,387,253.8,387z M95.9,369.2c-19.8,0-35.7-16-35.7-35.7c0-19.8,16-35.7,35.7-35.7
	c19.7,0,35.7,16,35.7,35.7C131.7,353.2,115.6,369.2,95.9,369.2z M95.9,387c-23.9,0-71.5,12-71.5,35.7v17.9h143v-17.9
	C167.4,399,119.8,387,95.9,387"/>
</svg>
