<?xml version="1.0" encoding="utf-8"?>
<!-- Generator: Adobe Illustrator 20.0.0, SVG Export Plug-In . SVG Version: 6.00 Build 0)  -->
<svg version="1.1" id="Layer_1" xmlns="http://www.w3.org/2000/svg" xmlns:xlink="http://www.w3.org/1999/xlink" x="0px" y="0px"
	 viewBox="0 0 512 512" style="enable-background:new 0 0 512 512;" xml:space="preserve">
<style type="text/css">
	.st0{fill-rule:evenodd;clip-rule:evenodd;}
</style>
<path class="st0" d="M230.2,299.5v58.2H55.4c-16.7,0-30.3-13.1-30.3-29.1h60.6c-16.7,0-30.3-13.1-30.3-29.1V139.4
	c0-16,13.6-29.1,30.3-29.1h242.5c16.7,0,30.3,13.1,30.3,29.1l0,19.5l-15.1-8.1l-15.2,8.1v-19.5H85.8v160.1H230.2z M340,350.4
	l93.5-49v51.3l-93.5,49l-93.5-49v-51.3L340,350.4z M193,247.8l146.9,77l120.2-63v88.6h26.7V247.8l-146.9-77L193,247.8z"/>
</svg>
