<svg width="32" height="32" xmlns="http://www.w3.org/2000/svg">
 <g>
  <title>background</title>
  <rect x="-1" y="-1" width="34" height="34" id="canvas_background" fill="none"/>
 </g>

 <g>
  <title>Layer 1</title>
  <path stroke="null" class="heroicon-ui" d="m25.455714,8.892956l-14.063071,13.704226a1.365343,1.330507 0 1 1 -1.911485,-1.889319l14.035768,-13.690917l-4.887939,0a1.365343,1.330507 0 0 1 0,-2.661014l8.192081,0a1.365343,1.330507 0 0 1 1.365343,1.330507l0,7.983042a1.365343,1.330507 0 0 1 -2.730698,0l0,-4.776525zm-2.730685,10.098553a1.365343,1.330507 0 0 1 2.730685,0l0,6.652535a2.730698,2.661014 0 0 1 -2.730685,2.661014l-16.384162,0a2.730698,2.661014 0 0 1 -2.730698,-2.661014l0,-15.966083c0,-1.463555 1.228807,-2.661014 2.730698,-2.661014l6.826726,0a1.365343,1.330507 0 0 1 0,2.661014l-6.826726,0l0,15.966083l16.384162,0l0,-6.652535z" id="svg_1"/>
 </g>
</svg>