<svg xmlns="http://www.w3.org/2000/svg" width="824" height="537" viewBox="0 0 824 537"><defs><linearGradient id="a" x1="66.808%" x2="17.338%" y1="27.695%" y2="47.156%"><stop offset="0%" stop-color="#1C4053" stop-opacity=".05"/><stop offset="100%" stop-color="#FFF" stop-opacity=".05"/></linearGradient><linearGradient id="b" x1="66.808%" x2="17.338%" y1="18.203%" y2="45.946%"><stop offset="0%" stop-color="#1C4053" stop-opacity=".05"/><stop offset="100%" stop-color="#FFF" stop-opacity=".05"/></linearGradient></defs><g fill="none" fill-rule="evenodd"><path fill="#5D5E5D" d="M740.172 0C795.39 58.65 823 131.7 823 219.15c0 89.833-61.054 131.14-106.347 218.874-9.337 18.085-11.191 51.077-5.563 98.976H0V0h740.172z"/><path fill="#0C1E29" fill-opacity=".05" d="M302.311 0L741 316.744 679.229 537H0V0z"/><path fill="#0C1E29" fill-opacity=".05" d="M160.965 0L679 438.25 675.19 537H0V0z"/><path fill="#0C1E29" fill-opacity=".05" d="M30.79 0L581 537H0V0z"/><path fill="#0C1E29" fill-opacity=".05" d="M0 81.426L385 537H0z"/><path fill="#0C1E29" fill-opacity=".05" d="M0 227.787L229 537H0z"/><path fill="#0C1E29" fill-opacity=".05" d="M0 407.131L79 537H0z"/><path fill="url(#a)" d="M773.87 80.967c38.855 33.077 40.13 67.935 3.824 104.574-91.515 92.356-172.298 166.382-242.35 222.078-31.25 24.845-90.946 67.972-179.092 129.381H0V0h749.42l24.45 80.967z"/><path fill="url(#b)" d="M327 0c-57.11 63.218-104.845 110.054-143.207 140.506C145.431 170.958 84.167 211.046 0 260.77V0h327z"/><path fill="#CF4620" d="M753.986 0C800.662 58.65 824 131.7 824 219.15c0 89.833-46.05 131.14-80.211 218.874-7.042 18.085-13.469 51.077-19.28 98.976h-28.054c-12.73-32.978-18.074-65.029-16.031-96.153 7.94-120.984 81.282-186.115 81.282-309.871 0-57.428-10.029-101.087-30.086-130.976h22.366z"/></g></svg>