<svg xmlns="http://www.w3.org/2000/svg" width="375" height="532" viewBox="0 0 375 532"><defs><linearGradient id="a" x1="66.808%" x2="17.338%" y1="34.386%" y2="48.009%"><stop offset="0%" stop-color="#1C4053" stop-opacity=".05"/><stop offset="100%" stop-color="#FFF" stop-opacity=".05"/></linearGradient><linearGradient id="b" x1="66.808%" x2="17.338%" y1="35.249%" y2="48.119%"><stop offset="0%" stop-color="#1C4053" stop-opacity=".05"/><stop offset="100%" stop-color="#FFF" stop-opacity=".05"/></linearGradient></defs><g fill="none" fill-rule="evenodd"><path fill="#5D5E5D" d="M873.277 0C938.426 58.103 971 130.473 971 217.109c0 88.997-72.034 129.919-125.472 216.836-11.015 17.917-13.203 50.602-6.563 98.055H0V0h873.277z"/><path fill="#0C1E29" fill-opacity=".05" d="M362.692 0L889 313.795 814.892 532H0V0z"/><path fill="#0C1E29" fill-opacity=".05" d="M196.05 0L827 434.17 822.36 532H0V0z"/><path fill="#0C1E29" fill-opacity=".05" d="M38.634 0L729 532H0V0z"/><path fill="#0C1E29" fill-opacity=".05" d="M0 80l533 452H0z"/><path fill="#0C1E29" fill-opacity=".05" d="M0 225l377 307H0z"/><path fill="#0C1E29" fill-opacity=".05" d="M0 403l227 129H0z"/><path fill="url(#a)" d="M916.325 80.213c46.007 32.769 47.516 67.302 4.527 103.6C812.49 275.31 716.837 348.648 633.89 403.824 596.888 428.439 526.202 471.164 421.83 532H0V0h887.374l28.95 80.213z"/><path fill="url(#b)" d="M475 0c-82.957 62.547-152.298 108.885-208.022 139.014C211.254 169.143 122.26 208.804 0 258V0h475z"/></g></svg>