<svg width="16" height="17" viewBox="0 0 16 17" xmlns="http://www.w3.org/2000/svg"><path d="M9.125 16.438h1.125v-1.125c0-.311.252-.563.563-.563h3.374c.311 0 .563.252.563.563v1.124h1.125v-1.125a1.69 1.69 0 0 0-1.688-1.687h-3.374a1.69 1.69 0 0 0-1.688 1.688v1.124zm3.375-3.375a2.25 2.25 0 1 1 0-4.5 2.25 2.25 0 0 1 0 4.5zm0-3.376a1.125 1.125 0 1 0 0 2.25 1.125 1.125 0 0 0 0-2.25zM.125 16.438H1.25v-1.125c0-.31.252-.562.563-.562h3.375c.31 0 .562.252.562.563v1.124h1.125v-1.125a1.69 1.69 0 0 0-1.688-1.687H1.813a1.69 1.69 0 0 0-1.687 1.688v1.124zM3.5 13.063a2.25 2.25 0 1 1 0-4.5 2.25 2.25 0 0 1 0 4.5zm0-3.374a1.125 1.125 0 1 0 0 2.25 1.125 1.125 0 0 0 0-2.25zM9.125 8h1.125V6.875c0-.31.252-.563.563-.563h3.374c.311 0 .563.252.563.563V8h1.125V6.875a1.69 1.69 0 0 0-1.688-1.688h-3.374a1.69 1.69 0 0 0-1.688 1.688V8zM12.5 4.625a2.25 2.25 0 1 1 0-4.5 2.25 2.25 0 0 1 0 4.5zm0-3.375a1.125 1.125 0 1 0 0 2.25 1.125 1.125 0 0 0 0-2.25zM.125 8H1.25V6.875c0-.31.252-.562.563-.563h3.375c.31 0 .562.252.562.563V8h1.125V6.875a1.69 1.69 0 0 0-1.688-1.688H1.813A1.69 1.69 0 0 0 .125 6.875V8zM3.5 4.625a2.25 2.25 0 1 1 0-4.5 2.25 2.25 0 0 1 0 4.5zm0-3.375a1.125 1.125 0 1 0 0 2.25 1.125 1.125 0 0 0 0-2.25z" fill="#009685
" fill-rule="evenodd"/></svg>