<svg xmlns="http://www.w3.org/2000/svg" width="16" height="15" viewBox="0 0 16 15"><path fill="#036" fill-rule="evenodd" d="M4.625 14.875H1.25A1.125 1.125 0 0 1 .125 13.75V7c0-.621.504-1.125 1.125-1.125h3.375c.621 0 1.125.504 1.125 1.125v6.75c0 .621-.504 1.125-1.125 1.125zM1.25 7v6.75h3.375V7H1.25zM14.75.25H2.375C1.754.25 1.25.754 1.25 1.375V4.75h1.125V1.375H14.75V9.25H6.875v1.125H8v2.25H6.875v1.125h5.063v-1.125H9.124v-2.25h5.625c.621 0 1.125-.504 1.125-1.125V1.375c0-.621-.504-1.125-1.125-1.125z"/></svg>