<svg xmlns="http://www.w3.org/2000/svg" width="16" height="12" viewBox="0 0 16 12"><path fill="#CF4620" fill-rule="evenodd" d="M3.5 3.75h5.063v1.125H3.5V3.75zm0 2.813h2.813v1.125H3.5V6.563zm7.313 5.062H1.25A1.126 1.126 0 0 1 .125 10.5v-9C.125.879.629.376 1.25.375h9.563c.62 0 1.124.504 1.124 1.125v2.282l3.049-2.177a.562.562 0 0 1 .889.458v7.874a.563.563 0 0 1-.89.458L11.939 8.22V10.5c-.001.621-.504 1.124-1.126 1.125zM1.25 1.5v9h9.563V7.125a.563.563 0 0 1 .889-.458l3.048 2.177V3.156l-3.048 2.177a.562.562 0 0 1-.89-.458V1.5H1.25z"/></svg>