<svg xmlns="http://www.w3.org/2000/svg" width="451" height="636" viewBox="0 0 451 636"><g fill="none" fill-opacity=".05" fill-rule="evenodd"><path fill="#009685
" d="M246.016 0c-33.179 35.549-58.113 60.704-74.804 75.465C105.28 133.77 48.615 179.967 22.06 233.617-11.15 300.714-6.863 355.175 34.921 397c0-24.876 8.945-50.424 26.836-76.644 13.415-19.662 54.495-70.65 161.555-168.155C279.482 101.044 287.051 50.31 246.016 0z"/><path fill="#CF4620" d="M298.882 66c14.476 41.387 8.842 74.098-16.903 98.133-127.69 119.21-191.503 143.831-203.475 227.63C68.177 464.042 111.047 545.454 207.114 636c5.333-42.938 18.457-74.973 39.372-96.107 49.719-50.237 156.865-115.55 195.43-212.844 19.066-48.104 8.12-98.185-32.84-150.244 5.527 29.305-6.055 61.671-34.745 97.098-18.247 22.532-74.115 62.054-157.218 131.754-10.558 8.855-18.094 19.854-22.61 32.997-3.194-15.87 1.01-33.008 12.612-51.413 17.403-27.608 154.105-134.387 154.105-200.264 0-43.918-20.78-84.243-62.338-120.977z"/></g></svg>