<svg width="27" height="20" viewBox="0 0 27 20" fill="none" xmlns="http://www.w3.org/2000/svg"><mask id="a" fill="#fff"><path fill-rule="evenodd" clip-rule="evenodd" d="M5 .71a5 5 0 0 0-5 5v8.58a5 5 0 0 0 5 5h16.182a5 5 0 0 0 5-5V5.71a5 5 0 0 0-5-5H5zm5.135 13.679L17.736 10l-7.601-4.388v8.777z"/></mask><path fill-rule="evenodd" clip-rule="evenodd" d="M5 .71a5 5 0 0 0-5 5v8.58a5 5 0 0 0 5 5h16.182a5 5 0 0 0 5-5V5.71a5 5 0 0 0-5-5H5zm5.135 13.679L17.736 10l-7.601-4.388v8.777z" fill="#fff"/><path d="M17.736 10l.5.866 1.5-.866-1.5-.866-.5.866zm-7.601 4.389h-1v1.732l1.5-.866-.5-.866zm0-8.777l.5-.867-1.5-.866v1.733h1zM1 5.71a4 4 0 0 1 4-4v-2a6 6 0 0 0-6 6h2zm0 8.58V5.71h-2v8.58h2zm4 4a4 4 0 0 1-4-4h-2a6 6 0 0 0 6 6v-2zm16.182 0H5v2h16.182v-2zm4-4a4 4 0 0 1-4 4v2a6 6 0 0 0 6-6h-2zm0-8.58v8.58h2V5.71h-2zm-4-4a4 4 0 0 1 4 4h2a6 6 0 0 0-6-6v2zM5 1.71h16.182v-2H5v2zm12.236 7.424l-7.601 4.389 1 1.732 7.601-4.389-1-1.732zM9.635 6.478l7.601 4.388 1-1.732-7.601-4.389-1 1.733zm1.5 7.91V5.613h-2v8.777h2z" fill="#fff" mask="url(#a)"/></svg>